<svg width="983" height="953" viewBox="0 0 983 953" fill="none" xmlns="http://www.w3.org/2000/svg">
<g clip-path="url(#clip0)">
<path d="M602.5 -485.5L-457 -548V3373L1055.5 1232L602.5 -485.5Z" fill="#B3E3F3"/>
<g clip-path="url(#clip1)">
<path d="M-6.32788 418.862C-13.7717 417.567 -21.7829 411.917 -21.7829 411.917L520.728 78.3107C520.728 78.3107 519.338 79.1858 524.311 76.0967C529.284 73.0077 534.891 68.8522 541.868 68.9127C555.165 69.0577 565.833 79.372 565.742 92.0599C565.658 95.265 564.893 98.4155 563.498 101.302C562.103 104.189 560.11 106.746 557.652 108.804C553.195 112.473 539.585 121.083 538.999 121.435L369.825 234.913C369.825 234.913 262.185 308.38 144.08 385.238C102.136 412.6 66.8509 423.137 40.1833 424.177C13.5158 425.218 1.10195 420.154 -6.32788 418.862Z" fill="#BCE7F5"/>
<path d="M504.948 151.902L473.391 100.393C469.175 93.5126 460.18 91.3523 453.299 95.5683L441.714 102.667C434.834 106.883 432.673 115.879 436.889 122.76L468.446 174.268C472.661 181.149 481.656 183.309 488.537 179.093L500.122 171.994C507.003 167.778 509.163 158.782 504.948 151.902Z" fill="#BCE7F5"/>
</g>
<g clip-path="url(#clip2)">
<path d="M826.421 752.209L726.185 894.265L634.34 723.077L826.421 752.209Z" fill="#E0F4FF" fill-opacity="0.2"/>
<path d="M826.42 752.21L997.62 660.245L968.366 852.368" fill="#E0F4FF" fill-opacity="0.2"/>
<path d="M868.131 994.424L968.367 852.368L1060.2 1023.57L868.131 994.424Z" fill="#E0F4FF" fill-opacity="0.2"/>
<path d="M868.132 994.424L696.932 1086.39L726.186 894.266" fill="#E0F4FF" fill-opacity="0.2"/>
<path d="M726.186 894.266L868.131 994.424L968.367 852.368L826.421 752.21L726.186 894.266ZM905.19 914.172C897.102 925.64 885.796 934.454 872.703 939.499C859.611 944.544 845.319 945.592 831.635 942.513C817.952 939.433 805.491 932.363 795.83 922.197C786.168 912.032 779.739 899.226 777.357 885.401C774.974 871.576 776.744 857.351 782.443 844.527C788.142 831.703 797.514 820.855 809.374 813.354C821.233 805.854 835.048 802.038 849.071 802.39C863.094 802.742 876.695 807.245 888.154 815.331C895.765 820.697 902.245 827.51 907.221 835.383C912.198 843.255 915.575 852.032 917.16 861.212C918.744 870.392 918.505 879.796 916.455 888.886C914.406 897.976 910.586 906.574 905.215 914.189L905.19 914.172Z" fill="#E0F4FF" fill-opacity="0.2"/>
</g>
</g>
<defs>
<clipPath id="clip0">
<rect width="1440" height="3921" fill="white" transform="translate(-457 -548)"/>
</clipPath>
<clipPath id="clip1">
<rect width="562" height="557" fill="white" transform="translate(55.7578 -87) rotate(13.1543)"/>
</clipPath>
<clipPath id="clip2">
<rect width="597.129" height="591.374" fill="white" transform="translate(457 988.898) rotate(-54.7929)"/>
</clipPath>
</defs>
</svg>
