<?xml version="1.0" standalone="no"?>
<!DOCTYPE svg PUBLIC "-//W3C//DTD SVG 20010904//EN"
 "http://www.w3.org/TR/2001/REC-SVG-20010904/DTD/svg10.dtd">
<svg version="1.0" xmlns="http://www.w3.org/2000/svg"
 width="1160.000000pt" height="1160.000000pt" viewBox="0 0 1160.000000 1160.000000"
 preserveAspectRatio="xMidYMid meet">
<metadata>
Created by potrace 1.11, written by Peter Selinger 2001-2013
</metadata>
<g transform="translate(0.000000,1160.000000) scale(0.100000,-0.100000)"
fill="#000000" stroke="none">
<path d="M8162 11296 c-106 -43 -146 -71 -242 -172 -219 -232 -330 -445 -395
-762 -53 -253 -56 -489 -10 -812 14 -96 25 -183 25 -192 0 -15 -28 -4 -150 57
-744 373 -1577 549 -2388 506 -710 -37 -1299 -189 -1909 -490 -494 -244 -890
-528 -1278 -916 -719 -718 -1184 -1618 -1349 -2615 -48 -291 -60 -441 -60
-785 -1 -327 8 -461 45 -715 295 -2023 1848 -3647 3857 -4035 534 -103 1146
-112 1691 -24 1883 301 3429 1714 3899 3564 257 1011 181 2094 -215 3044 -78
187 -216 462 -317 631 l-75 125 112 12 c219 25 546 95 700 150 228 81 516 274
683 456 164 179 323 518 384 816 11 56 23 156 27 224 6 122 -3 305 -15 323 -4
6 -134 7 -337 3 -549 -12 -890 -58 -1181 -160 -198 -69 -407 -168 -517 -243
-37 -25 -70 -46 -74 -46 -3 0 -3 46 0 103 9 171 -8 480 -33 565 -31 109 -193
519 -252 635 -135 271 -486 788 -532 787 -6 -1 -48 -16 -94 -34z m939 -4893
c60 -158 144 -532 181 -801 30 -224 33 -736 5 -960 -33 -266 -92 -542 -164
-767 l-29 -90 -3870 -3 -3870 -2 -37 122 c-122 408 -166 691 -174 1118 -6 317
8 514 53 772 37 214 105 484 153 611 l11 27 3865 0 3865 0 11 -27z"/>
<path d="M3282 5570 c-242 -34 -471 -161 -628 -348 -66 -80 -152 -229 -138
-241 8 -7 290 -71 313 -71 5 0 30 29 55 64 64 90 137 150 241 201 113 54 176
69 290 68 107 0 193 -21 293 -70 177 -87 327 -295 349 -485 3 -26 6 -48 7 -48
1 0 73 -16 160 -35 88 -19 163 -35 169 -35 6 0 7 30 3 83 -22 255 -105 441
-276 621 -143 149 -302 238 -505 282 -87 19 -250 26 -333 14z"/>
<path d="M6922 5569 c-458 -59 -822 -445 -849 -901 -3 -54 -3 -98 1 -98 9 0
283 59 308 66 11 3 19 20 24 52 19 134 110 302 212 392 251 221 628 218 872
-7 38 -35 84 -87 101 -114 18 -27 38 -49 45 -49 13 0 286 57 312 66 16 5 -33
104 -93 189 -49 69 -179 197 -245 242 -197 133 -451 193 -688 162z"/>
</g>
</svg>
