<svg width="1440" height="3921" viewBox="0 0 1440 3921" fill="none" xmlns="http://www.w3.org/2000/svg">
<g clip-path="url(#clip0)">
<rect width="1440" height="3921" fill="white"/>
<path d="M1440 0H2.06828e-05V3921H1440V0Z" fill="#B3E3F3"/>
<g clip-path="url(#clip1)">
<path d="M135.672 1563.86C128.228 1562.57 120.217 1556.92 120.217 1556.92L662.728 1223.31C662.728 1223.31 661.338 1224.19 666.311 1221.1C671.284 1218.01 676.891 1213.85 683.868 1213.91C697.165 1214.06 707.833 1224.37 707.742 1237.06C707.658 1240.26 706.893 1243.42 705.498 1246.3C704.103 1249.19 702.11 1251.75 699.652 1253.8C695.195 1257.47 681.585 1266.08 680.999 1266.43L511.825 1379.91C511.825 1379.91 404.185 1453.38 286.08 1530.24C244.136 1557.6 208.851 1568.14 182.183 1569.18C155.516 1570.22 143.102 1565.15 135.672 1563.86Z" fill="#BCE7F5"/>
<path d="M646.948 1296.9L615.391 1245.39C611.175 1238.51 602.18 1236.35 595.299 1240.57L583.714 1247.67C576.834 1251.88 574.673 1260.88 578.889 1267.76L610.446 1319.27C614.661 1326.15 623.656 1328.31 630.537 1324.09L642.122 1316.99C649.003 1312.78 651.163 1303.78 646.948 1296.9Z" fill="#BCE7F5"/>
</g>
<g clip-path="url(#clip2)">
<path d="M1124.67 3681.86C1117.23 3680.57 1109.22 3674.92 1109.22 3674.92L1651.73 3341.31C1651.73 3341.31 1650.34 3342.19 1655.31 3339.1C1660.28 3336.01 1665.89 3331.85 1672.87 3331.91C1686.17 3332.06 1696.83 3342.37 1696.74 3355.06C1696.66 3358.26 1695.89 3361.42 1694.5 3364.3C1693.1 3367.19 1691.11 3369.75 1688.65 3371.8C1684.19 3375.47 1670.58 3384.08 1670 3384.43L1500.83 3497.91C1500.83 3497.91 1393.18 3571.38 1275.08 3648.24C1233.14 3675.6 1197.85 3686.14 1171.18 3687.18C1144.52 3688.22 1132.1 3683.15 1124.67 3681.86Z" fill="#BCE7F5"/>
</g>
<g clip-path="url(#clip3)">
<path d="M64.0315 420.298L122.424 382.732C130.06 377.819 140.232 380.027 145.143 387.664L204.22 479.535C209.13 487.172 206.921 497.346 199.284 502.259L140.892 539.825C133.255 544.738 123.083 542.53 118.173 534.893L59.096 443.022C54.1851 435.385 56.3948 425.211 64.0315 420.298Z" fill="#BCE7F5"/>
<path d="M-170.543 372.971C-192.23 339.204 -203.42 299.762 -202.697 259.632C-201.975 219.501 -189.372 180.483 -166.483 147.511C-143.593 114.539 -111.445 89.0924 -74.1012 74.3885C-36.7576 59.6845 4.10451 56.3833 43.3196 64.902C82.5346 73.4207 118.342 93.377 146.215 122.248C174.088 151.119 192.776 187.609 199.915 227.104C207.054 266.6 202.325 307.328 186.325 344.14C170.325 380.951 143.773 412.195 110.025 433.919C87.6012 448.354 62.5539 458.228 36.3146 462.977C10.0753 467.727 -16.8416 467.258 -42.8977 461.597C-68.9539 455.937 -93.6383 445.197 -115.54 429.99C-137.442 414.783 -156.133 395.407 -170.543 372.971ZM81.2406 389.193C106.17 373.156 125.787 350.087 137.61 322.903C149.432 295.718 152.93 265.639 147.661 236.469C142.392 207.3 128.593 180.349 108.008 159.026C87.4228 137.703 60.977 122.965 32.0144 116.676C3.05191 110.386 -27.1265 112.828 -54.7045 123.692C-82.2826 134.557 -106.022 153.356 -122.92 177.712C-139.818 202.068 -149.116 230.887 -149.639 260.526C-150.162 290.164 -141.885 319.29 -125.856 344.221C-104.363 377.653 -70.4708 401.175 -31.6339 409.611C7.2031 418.048 47.803 410.708 81.2344 389.206L81.2406 389.193Z" fill="#BCE7F5"/>
</g>
<g clip-path="url(#clip4)">
<path d="M1074.03 2448.3L1132.42 2410.73C1140.06 2405.82 1150.23 2408.03 1155.14 2415.66L1214.22 2507.54C1219.13 2515.17 1216.92 2525.35 1209.28 2530.26L1150.89 2567.82C1143.26 2572.74 1133.08 2570.53 1128.17 2562.89L1069.1 2471.02C1064.19 2463.38 1066.39 2453.21 1074.03 2448.3Z" fill="#BCE7F5"/>
<path d="M839.457 2400.97C817.77 2367.2 806.58 2327.76 807.303 2287.63C808.025 2247.5 820.628 2208.48 843.517 2175.51C866.407 2142.54 898.555 2117.09 935.899 2102.39C973.242 2087.68 1014.1 2084.38 1053.32 2092.9C1092.53 2101.42 1128.34 2121.38 1156.22 2150.25C1184.09 2179.12 1202.78 2215.61 1209.91 2255.1C1217.05 2294.6 1212.33 2335.33 1196.33 2372.14C1180.33 2408.95 1153.77 2440.19 1120.02 2461.92C1097.6 2476.35 1072.55 2486.23 1046.31 2490.98C1020.08 2495.73 993.158 2495.26 967.102 2489.6C941.046 2483.94 916.362 2473.2 894.46 2457.99C872.558 2442.78 853.867 2423.41 839.457 2400.97V2400.97ZM1091.24 2417.19C1116.17 2401.16 1135.79 2378.09 1147.61 2350.9C1159.43 2323.72 1162.93 2293.64 1157.66 2264.47C1152.39 2235.3 1138.59 2208.35 1118.01 2187.03C1097.42 2165.7 1070.98 2150.96 1042.01 2144.68C1013.05 2138.39 982.874 2140.83 955.295 2151.69C927.717 2162.56 903.978 2181.36 887.08 2205.71C870.182 2230.07 860.884 2258.89 860.361 2288.53C859.838 2318.16 868.115 2347.29 884.144 2372.22C905.637 2405.65 939.529 2429.18 978.366 2437.61C1017.2 2446.05 1057.8 2438.71 1091.23 2417.21L1091.24 2417.19Z" fill="#BCE7F5"/>
</g>
<g clip-path="url(#clip5)">
<path d="M1304.43 674.21L1204.19 816.266L1112.35 645.077L1304.43 674.21Z" fill="#E0F4FF" fill-opacity="0.2"/>
<path d="M1304.43 674.21L1475.63 582.245L1446.37 774.368" fill="#E0F4FF" fill-opacity="0.2"/>
<path d="M1346.14 916.424L1446.37 774.368L1538.21 945.569L1346.14 916.424Z" fill="#E0F4FF" fill-opacity="0.2"/>
<path d="M1346.14 916.424L1174.94 1008.39L1204.19 816.266" fill="#E0F4FF" fill-opacity="0.2"/>
<path d="M1204.19 816.266L1346.14 916.424L1446.37 774.368L1304.43 674.21L1204.19 816.266ZM1383.2 836.172C1375.11 847.64 1363.8 856.454 1350.71 861.499C1337.62 866.544 1323.33 867.592 1309.64 864.513C1295.96 861.433 1283.5 854.363 1273.84 844.197C1264.18 834.032 1257.75 821.226 1255.36 807.401C1252.98 793.576 1254.75 779.351 1260.45 766.527C1266.15 753.703 1275.52 742.855 1287.38 735.354C1299.24 727.854 1313.06 724.038 1327.08 724.39C1341.1 724.742 1354.7 729.245 1366.16 737.331C1373.77 742.697 1380.25 749.51 1385.23 757.383C1390.21 765.255 1393.58 774.032 1395.17 783.212C1396.75 792.392 1396.51 801.796 1394.46 810.886C1392.41 819.976 1388.59 828.574 1383.22 836.189L1383.2 836.172Z" fill="#E0F4FF" fill-opacity="0.2"/>
</g>
<g clip-path="url(#clip6)">
<path d="M75.4206 2336.21L-24.8151 2478.27L-116.66 2307.08L75.4206 2336.21Z" fill="#E0F4FF" fill-opacity="0.2"/>
<path d="M75.4209 2336.21L246.621 2244.25L217.367 2436.37" fill="#E0F4FF" fill-opacity="0.2"/>
<path d="M117.131 2578.42L217.367 2436.37L309.203 2607.57L117.131 2578.42Z" fill="#E0F4FF" fill-opacity="0.2"/>
<path d="M117.131 2578.42L-54.0691 2670.39L-24.8151 2478.27" fill="#E0F4FF" fill-opacity="0.2"/>
<path d="M-24.8145 2478.27L117.131 2578.42L217.367 2436.37L75.4213 2336.21L-24.8145 2478.27ZM154.19 2498.17C146.102 2509.64 134.796 2518.45 121.703 2523.5C108.611 2528.54 94.3188 2529.59 80.6354 2526.51C66.9519 2523.43 54.4915 2516.36 44.8299 2506.2C35.1683 2496.03 28.7395 2483.23 26.3566 2469.4C23.9736 2455.58 25.7436 2441.35 31.4426 2428.53C37.1417 2415.7 46.5137 2404.85 58.3736 2397.35C70.2335 2389.85 84.0484 2386.04 98.0713 2386.39C112.094 2386.74 125.695 2391.25 137.154 2399.33C144.765 2404.7 151.245 2411.51 156.221 2419.38C161.198 2427.26 164.575 2436.03 166.16 2445.21C167.744 2454.39 167.505 2463.8 165.455 2472.89C163.406 2481.98 159.586 2490.57 154.215 2498.19L154.19 2498.17Z" fill="#E0F4FF" fill-opacity="0.2"/>
</g>
</g>
<defs>
<clipPath id="clip0">
<rect width="1440" height="3921" fill="white"/>
</clipPath>
<clipPath id="clip1">
<rect width="562" height="557" fill="white" transform="translate(197.759 1058) rotate(13.1543)"/>
</clipPath>
<clipPath id="clip2">
<rect width="562" height="557" fill="white" transform="translate(1186.76 3176) rotate(13.1543)"/>
</clipPath>
<clipPath id="clip3">
<rect width="569.003" height="563.773" fill="white" transform="matrix(-0.423745 0.905782 0.905782 0.423745 -102.888 -86)"/>
</clipPath>
<clipPath id="clip4">
<rect width="569.003" height="563.773" fill="white" transform="matrix(-0.423745 0.905782 0.905782 0.423745 907.112 1942)"/>
</clipPath>
<clipPath id="clip5">
<rect width="597.129" height="591.374" fill="white" transform="translate(935.008 910.898) rotate(-54.7929)"/>
</clipPath>
<clipPath id="clip6">
<rect width="597.129" height="591.374" fill="white" transform="translate(-294 2572.9) rotate(-54.7929)"/>
</clipPath>
</defs>
</svg>
