<svg xmlns="http://www.w3.org/2000/svg" viewBox="0 0 1082.63 208.62"><defs><style>.cls-1,.cls-3{fill:#0cace3;}.cls-1,.cls-2,.cls-4{stroke:#0cace3;}.cls-2,.cls-4{fill:none;}.cls-2{stroke-width:8px;}.cls-4{stroke-miterlimit:10;stroke-width:5px;}</style></defs><g id="Layer_1" data-name="Layer 1"><path class="cls-1" d="M97.11,136.55q0,4.5-1.59,6.67a16.64,16.64,0,0,1-5.07,4.2,32.31,32.31,0,0,1-5.08,2.25,55.44,55.44,0,0,1-6.67,1.88,69.12,69.12,0,0,1-7.61,1.23,72.82,72.82,0,0,1-7.9.44,65.72,65.72,0,0,1-19.57-2.83,44.53,44.53,0,0,1-15.87-8.55A40.69,40.69,0,0,1,17.1,127.56a47.27,47.27,0,0,1-3.92-19.86A47.09,47.09,0,0,1,17.46,87,43.48,43.48,0,0,1,28.77,72.26a47.37,47.37,0,0,1,16.09-8.77,60.73,60.73,0,0,1,18.62-2.9q13.77,0,21.82,4.43t8,11.52a11.29,11.29,0,0,1-1.88,6.52,15.52,15.52,0,0,1-4.35,4.35,60.23,60.23,0,0,0-9.06-4.28A33.77,33.77,0,0,0,65.8,81q-12.18,0-19.35,7t-7.18,19.28a30.78,30.78,0,0,0,2,11.52,21.94,21.94,0,0,0,5.29,8,21.45,21.45,0,0,0,7.69,4.64,27.69,27.69,0,0,0,9.27,1.53,24.66,24.66,0,0,0,5.66-.59A14.52,14.52,0,0,0,72.9,131V117.42H57.39a23.93,23.93,0,0,1-1.66-4.21,18.45,18.45,0,0,1-.8-5.51q0-5.22,2.39-7.53a8.48,8.48,0,0,1,6.16-2.32H88A8.31,8.31,0,0,1,97.11,107Z"/><path class="cls-1" d="M141.61,78.28a59.68,59.68,0,0,1,14.28,1.59,32,32,0,0,1,11,4.86,22,22,0,0,1,7,8.26,26.49,26.49,0,0,1,2.46,11.81v32.47a9,9,0,0,1-2.1,6.17,21.07,21.07,0,0,1-5,4.13q-9.44,5.64-26.53,5.65a60.89,60.89,0,0,1-13.84-1.45,32.68,32.68,0,0,1-10.58-4.35,19.94,19.94,0,0,1-6.82-7.39,22,22,0,0,1-2.39-10.44q0-10,5.94-15.36t18.41-6.67l19-2v-1a6.21,6.21,0,0,0-3.69-6q-3.71-1.81-10.66-1.81a48.77,48.77,0,0,0-10.72,1.16,56.67,56.67,0,0,0-9.43,2.9,10.1,10.1,0,0,1-3.19-4,12.61,12.61,0,0,1-1.3-5.58,9.31,9.31,0,0,1,1.81-6,14.21,14.21,0,0,1,5.58-3.84A44,44,0,0,1,130.81,79,86.84,86.84,0,0,1,141.61,78.28Zm1.16,57a32.42,32.42,0,0,0,5.44-.5,13.38,13.38,0,0,0,4.42-1.38v-11.6l-10.44.87a16.24,16.24,0,0,0-6.67,1.74,4.69,4.69,0,0,0-2.61,4.35,5.74,5.74,0,0,0,2.25,4.71Q137.41,135.24,142.77,135.24Z"/><path class="cls-1" d="M225.25,78.28a41.61,41.61,0,0,1,11.67,1.66,28.86,28.86,0,0,1,9.93,5,42.78,42.78,0,0,1,9.78-4.79,43.93,43.93,0,0,1,23.92-.43A27.6,27.6,0,0,1,290,84.29a22.13,22.13,0,0,1,6.6,8.27A28.89,28.89,0,0,1,299,105.09v45.66a33.83,33.83,0,0,1-4.56.87,45.2,45.2,0,0,1-6.46.44,33,33,0,0,1-5.72-.44,9.89,9.89,0,0,1-4.28-1.73,8.39,8.39,0,0,1-2.68-3.56,15.3,15.3,0,0,1-.94-5.87V105.82q0-4.35-2.47-6.31a10.43,10.43,0,0,0-6.66-2,11.5,11.5,0,0,0-4.35.94,12.37,12.37,0,0,0-3.48,2,4.75,4.75,0,0,1,.15,1.08v49.21a41,41,0,0,1-4.72.87,44.07,44.07,0,0,1-6.3.44,33,33,0,0,1-5.73-.44,9.79,9.79,0,0,1-4.27-1.73,8.41,8.41,0,0,1-2.69-3.56,15.3,15.3,0,0,1-.94-5.87V105.82q0-4.35-2.68-6.31a10.68,10.68,0,0,0-6.45-2,11.48,11.48,0,0,0-4.49.79,33.58,33.58,0,0,0-3.19,1.53v50.87a33.72,33.72,0,0,1-4.57.87,45.16,45.16,0,0,1-6.45.44,33.12,33.12,0,0,1-5.73-.44,9.85,9.85,0,0,1-4.27-1.73,8.31,8.31,0,0,1-2.68-3.56,15.28,15.28,0,0,1-.95-5.87V96.69a10.51,10.51,0,0,1,1.67-6.24,19,19,0,0,1,4.57-4.35A41.92,41.92,0,0,1,210,80.45,53.31,53.31,0,0,1,225.25,78.28Z"/><path class="cls-1" d="M351.36,153.22a51,51,0,0,1-15.88-2.39,36,36,0,0,1-12.75-7.18,33.2,33.2,0,0,1-8.55-12,42.6,42.6,0,0,1-3.12-17,39.61,39.61,0,0,1,3.12-16.45,32.36,32.36,0,0,1,8.19-11.31A32.77,32.77,0,0,1,334,80.38a43.3,43.3,0,0,1,13.34-2.1,40.22,40.22,0,0,1,14,2.32A33.56,33.56,0,0,1,372.16,87a28.34,28.34,0,0,1,7.1,9.71A29.75,29.75,0,0,1,381.8,109q0,4.93-2.76,7.53a13.64,13.64,0,0,1-7.68,3.34l-35.8,5.36a12,12,0,0,0,6.52,7.18,25.62,25.62,0,0,0,11.31,2.39,40.62,40.62,0,0,0,11.23-1.52,35.91,35.91,0,0,0,8.62-3.55,12.12,12.12,0,0,1,3.92,4.06,10.37,10.37,0,0,1,1.59,5.5q0,6.52-6.08,9.72a32.47,32.47,0,0,1-10.44,3.33A73.53,73.53,0,0,1,351.36,153.22Zm-4.06-57a14.43,14.43,0,0,0-6,1.16,12.28,12.28,0,0,0-4.13,3,12.47,12.47,0,0,0-2.39,4.06,16.53,16.53,0,0,0-.94,4.57L358.6,105a11,11,0,0,0-3.18-5.8Q352.66,96.26,347.3,96.25Z"/><path class="cls-1" d="M410.36,63.06c1.06-.19,2.75-.46,5.07-.8a46,46,0,0,1,6.67-.51,30,30,0,0,1,5.87.51,10.43,10.43,0,0,1,4.27,1.81,7.83,7.83,0,0,1,2.61,3.63,17.61,17.61,0,0,1,.87,6.08v53.64q0,12.9-7.39,19.35t-21.74,6.45q-7.54,0-12.18-2.32a10.51,10.51,0,0,1-4.86-4.35,12.69,12.69,0,0,1-1.52-6.23,14.84,14.84,0,0,1,.8-5.08,10.57,10.57,0,0,1,2-3.47c1.83.38,3.4.65,4.71.79a37.55,37.55,0,0,0,4.27.22q5.66,0,8.12-2.83t2.47-8.33Z"/><path class="cls-1" d="M539.51,56.53a39.43,39.43,0,0,1,4.64-.94,41.18,41.18,0,0,1,6.52-.51,34.23,34.23,0,0,1,5.73.44,9.73,9.73,0,0,1,4.27,1.74,7.85,7.85,0,0,1,2.61,3.55,16.56,16.56,0,0,1,.87,5.87V80.89a34.56,34.56,0,0,1,6.89-2,40.67,40.67,0,0,1,7.17-.58,35.57,35.57,0,0,1,13.19,2.46,32.77,32.77,0,0,1,11,7.18A33.37,33.37,0,0,1,610,99.59a43.6,43.6,0,0,1,2.75,16.09,43.82,43.82,0,0,1-2.83,16.45A31.21,31.21,0,0,1,602,143.8a33.57,33.57,0,0,1-12.39,7,52,52,0,0,1-16.16,2.39A51.2,51.2,0,0,1,557.19,151a42.1,42.1,0,0,1-11.3-5.58q-6.39-4.48-6.38-11.59Zm33.92,77.27q6.66,0,10.36-4.57t3.7-13.55q0-9.14-3.77-13.63a12.59,12.59,0,0,0-10.15-4.49,18.82,18.82,0,0,0-5,.58A27.52,27.52,0,0,0,564,99.88v31.6a14.8,14.8,0,0,0,3.84,1.66A20,20,0,0,0,573.43,133.8Z"/><path class="cls-1" d="M684.17,129.88q0,11-8.26,17.25t-24.35,6.23a70.06,70.06,0,0,1-11.31-.86,32.38,32.38,0,0,1-8.92-2.69,16,16,0,0,1-5.79-4.56,10.46,10.46,0,0,1-2.1-6.53,11.23,11.23,0,0,1,1.44-5.87,14.79,14.79,0,0,1,3.48-4A58.54,58.54,0,0,0,638,133a39.64,39.64,0,0,0,12.54,1.81,14.67,14.67,0,0,0,6.89-1.3,3.93,3.93,0,0,0,2.39-3.48,3.63,3.63,0,0,0-1.74-3.19,16.08,16.08,0,0,0-5.8-1.89l-4.35-.87q-12.6-2.46-18.77-7.75T623,101.18a20,20,0,0,1,8.84-17,32.63,32.63,0,0,1,10.08-4.49,49.07,49.07,0,0,1,13-1.6,60.54,60.54,0,0,1,10.07.8,33,33,0,0,1,8.2,2.39,14.88,14.88,0,0,1,5.5,4.13,9.32,9.32,0,0,1,2,6,12.35,12.35,0,0,1-1.23,5.72,12.83,12.83,0,0,1-3.11,4,18.28,18.28,0,0,0-3.48-1.52c-1.55-.53-3.24-1-5.08-1.45s-3.69-.8-5.58-1.09a34,34,0,0,0-5.14-.43,20,20,0,0,0-7.4,1.08q-2.61,1.1-2.61,3.41a3.08,3.08,0,0,0,1.45,2.61,16.69,16.69,0,0,0,5.51,1.88l4.49,1q13.92,3.19,19.79,8.77A19,19,0,0,1,684.17,129.88Z"/><path class="cls-2" d="M818.4,64q-3.35-2.23-9.72-2.24a48.86,48.86,0,0,0-6.45.43,40.19,40.19,0,0,0-4.85.87V86.54q0,7.83.14,15.66t.73,15.66l-.73.14q-2-5.22-3.77-9.2t-3.91-8.48L775.34,71q-2.9-5.94-7.75-7.61a31.32,31.32,0,0,0-10.22-1.66,27.29,27.29,0,0,0-9,1.45,12,12,0,0,0-6.23,4.35V140a16.48,16.48,0,0,0,.87,5.87,8.42,8.42,0,0,0,2.46,3.56,8.8,8.8,0,0,0,4.06,1.73,31.77,31.77,0,0,0,5.65.44,47,47,0,0,0,6.45-.44,40.06,40.06,0,0,0,4.86-.87V127.86q0-7.83-.07-16T765.78,96l.87-.15q2,5.22,3.76,9.21t3.92,8.48l14.35,29.28q3,6.09,7.83,7.68a32,32,0,0,0,10.14,1.6,34.31,34.31,0,0,0,9.21-1.09,13.27,13.27,0,0,0,5.87-3.12V73.35Q821.73,66.26,818.4,64Z"/><path class="cls-2" d="M861.37,51.61a14.58,14.58,0,0,0-19.57,0,13.5,13.5,0,0,0,0,18.55,14.58,14.58,0,0,0,19.57,0,12.7,12.7,0,0,0,3.7-9.27A12.72,12.72,0,0,0,861.37,51.61ZM863,85.89a8.36,8.36,0,0,0-2.69-3.55A9.68,9.68,0,0,0,856,80.6a34.13,34.13,0,0,0-5.73-.43,40.15,40.15,0,0,0-6.3.5c-2.08.34-3.65.61-4.71.8v59a15.37,15.37,0,0,0,.94,5.87,8.36,8.36,0,0,0,2.68,3.55,9.78,9.78,0,0,0,4.28,1.74,33.94,33.94,0,0,0,5.72.44,39,39,0,0,0,6.31-.51c2.08-.34,3.64-.61,4.71-.8v-59A15.57,15.57,0,0,0,863,85.89Z"/><path class="cls-2" d="M940,85.46q-8.85-7.18-25.22-7.18a59.26,59.26,0,0,0-16.6,2.18,41.15,41.15,0,0,0-12.39,5.65,17.46,17.46,0,0,0-4.57,4.49A11.2,11.2,0,0,0,879.56,97v43.49a15.35,15.35,0,0,0,1,5.87,8.28,8.28,0,0,0,2.68,3.55,9.73,9.73,0,0,0,4.27,1.74,34.06,34.06,0,0,0,5.73.44,46.66,46.66,0,0,0,6.45-.44,33.72,33.72,0,0,0,4.57-.87v-50.3a14.48,14.48,0,0,1,4.85-2.17,22.68,22.68,0,0,1,5.73-.73,10.45,10.45,0,0,1,6.88,2.1c1.69,1.4,2.54,3.61,2.54,6.6v34.21a15.37,15.37,0,0,0,.94,5.87,8.44,8.44,0,0,0,2.68,3.55,9.78,9.78,0,0,0,4.28,1.74,34.06,34.06,0,0,0,5.73.44,46.66,46.66,0,0,0,6.45-.44,33.5,33.5,0,0,0,4.56-.87V105.39Q948.85,92.64,940,85.46Z"/><path class="cls-2" d="M989.08,85.89a8.44,8.44,0,0,0-2.69-3.55,9.68,9.68,0,0,0-4.27-1.74,34.13,34.13,0,0,0-5.73-.43,40.05,40.05,0,0,0-6.3.5c-2.08.34-3.65.61-4.71.8v65.81a20.85,20.85,0,0,1-1.45,7.9,11.71,11.71,0,0,1-4.64,5.58l-3.77,2.32a14,14,0,0,0,3.77,9.64q3.62,3.84,10,3.84a18.31,18.31,0,0,0,15.15-7.47,26.34,26.34,0,0,0,4.13-8.47,39.26,39.26,0,0,0,1.45-11V91.76A15.57,15.57,0,0,0,989.08,85.89Z"/><path class="cls-2" d="M1067,93a22.08,22.08,0,0,0-7-8.26,32,32,0,0,0-11-4.85,59.16,59.16,0,0,0-14.28-1.6,86.93,86.93,0,0,0-10.8.73,43.08,43.08,0,0,0-9.93,2.32,14,14,0,0,0-5.58,3.84,9.28,9.28,0,0,0-1.81,6,12.56,12.56,0,0,0,1.31,5.58,10,10,0,0,0,3.18,4,57.93,57.93,0,0,1,9.43-2.9,49.45,49.45,0,0,1,10.72-1.16q7,0,10.66,1.81a6.22,6.22,0,0,1,3.69,6v1l-19,2q-12.46,1.31-18.4,6.67t-5.95,15.37a21.9,21.9,0,0,0,2.39,10.43,20,20,0,0,0,6.82,7.4,32.68,32.68,0,0,0,10.58,4.34,60.39,60.39,0,0,0,13.84,1.45q17.1,0,26.53-5.65a21.07,21.07,0,0,0,5-4.13,9,9,0,0,0,2.1-6.16V104.81A26.54,26.54,0,0,0,1067,93Zm-21.31,40.38a13.33,13.33,0,0,1-4.42,1.37,32.32,32.32,0,0,1-5.44.51q-5.35,0-7.61-1.81a5.76,5.76,0,0,1-2.24-4.71,4.65,4.65,0,0,1,2.61-4.35,15.88,15.88,0,0,1,6.66-1.74l10.44-.87Z"/><path class="cls-3" d="M487.15,73.4a40.08,40.08,0,1,0,40.07,40.07A40.07,40.07,0,0,0,487.15,73.4ZM455,124.46a34.09,34.09,0,0,1,0-22h64.23a34.09,34.09,0,0,1,0,22Z"/><path class="cls-3" d="M507.51,82.5s-.62-.77-1.06-4a28.42,28.42,0,0,1-.53-6.16,14.83,14.83,0,0,1,1.83-6.59c1-1.49,2.51-3.23,3.42-3.56l1.2-.44a4,4,0,0,1,1.11,1.3,38.39,38.39,0,0,1,3.95,6.75c.91,2.49,1.63,3.65,1.68,5.67s0,3.76,0,3.76a7.94,7.94,0,0,1,2.12-1.35,21.86,21.86,0,0,1,7-2.12,41.66,41.66,0,0,1,5.34-.38c1.35,0,3.08,0,3.08,0a13.61,13.61,0,0,1,0,4,17,17,0,0,1-2.35,6.16,14.75,14.75,0,0,1-6.17,4.82A29.51,29.51,0,0,1,521,91.84c-1.11,0-2.89.29-2.89.29Z"/><path class="cls-3" d="M467.33,115.13a5.42,5.42,0,0,1,10.16,2.21l2.81.61a8.21,8.21,0,0,0-15.77-3.42Z"/><path class="cls-3" d="M507.09,115.13a5.42,5.42,0,0,0-10.16,2.21l-2.8.61a8.2,8.2,0,0,1,15.76-3.42Z"/><circle class="cls-4" cx="710.99" cy="138.96" r="15.41"/><rect class="cls-3" x="717.36" y="149.98" width="8.91" height="12.38" rx="3.13" transform="translate(27.73 408.47) rotate(-32.18)"/><path class="cls-3" d="M360.76,32.21a8.45,8.45,0,0,1-.49-3.06L465.72,78.56l.7.32a6.13,6.13,0,0,1,2.86,2,4.3,4.3,0,0,1-1.14,6,4.13,4.13,0,0,1-3.37.46c-1-.32-3.7-1.53-3.81-1.59L426.64,71.23s-22-9.07-45.64-19.41c-8.4-3.67-13.54-8-16.38-12A27.05,27.05,0,0,1,360.76,32.21Z"/><rect class="cls-3" x="443.51" y="72.97" width="16.39" height="7.83" rx="2.67" transform="translate(713.56 -299.13) rotate(115.19)"/><polygon class="cls-3" points="989.41 36.59 965.75 36.59 977.58 12.93 989.41 36.59"/><polyline class="cls-3" points="989.41 36.59 1013.07 48.43 989.41 60.26"/><polygon class="cls-3" points="965.75 60.26 989.41 60.26 977.58 83.92 965.75 60.26"/><polyline class="cls-3" points="965.75 60.26 942.09 48.43 965.75 36.59"/><path class="cls-3" d="M965.75,36.6V60.26h23.66V36.6Zm11.83,21.48a9.66,9.66,0,1,1,9.65-9.65A9.65,9.65,0,0,1,977.58,58.08Z"/></g></svg>