<svg width="21" height="21" viewBox="0 0 21 21" fill="none" xmlns="http://www.w3.org/2000/svg">
<path d="M10.5 10.5C13.3995 10.5 15.75 8.1495 15.75 5.25C15.75 2.35051 13.3995 0 10.5 0C7.60051 0 5.25 2.35051 5.25 5.25C5.25 8.1495 7.60051 10.5 10.5 10.5ZM14 5.25C14 7.183 12.433 8.75 10.5 8.75C8.567 8.75 7 7.183 7 5.25C7 3.317 8.567 1.75 10.5 1.75C12.433 1.75 14 3.317 14 5.25Z" fill="#00508B"/>
<path d="M21 19.25C21 21 19.25 21 19.25 21H1.75C1.75 21 0 21 0 19.25C0 17.5 1.75 12.25 10.5 12.25C19.25 12.25 21 17.5 21 19.25ZM19.25 19.2439C19.2475 18.812 18.9809 17.5183 17.7938 16.3312C16.6523 15.1897 14.5059 14 10.5 14C6.49404 14 4.34762 15.1897 3.20617 16.3312C2.01907 17.5183 1.75249 18.812 1.75 19.2439H19.25Z" fill="#00508B"/>
</svg>
