<svg width="1373" height="2163" viewBox="0 0 1373 2163" fill="none" xmlns="http://www.w3.org/2000/svg">
<path d="M465.638 1105.55L460.164 1108.92C459.448 1109.36 459.233 1110.28 459.683 1110.98L465.103 1119.41C465.553 1120.11 466.499 1120.32 467.215 1119.88L472.689 1116.51C473.405 1116.07 473.62 1115.14 473.169 1114.44L467.75 1106.02C467.3 1105.32 466.354 1105.11 465.638 1105.55Z" fill="#F1F1F1"/>
<path d="M470.903 1084.36C468.911 1081.27 466.025 1078.82 462.61 1077.33C459.196 1075.84 455.407 1075.37 451.721 1075.99C448.036 1076.6 444.62 1078.28 441.906 1080.79C439.191 1083.3 437.3 1086.55 436.471 1090.12C435.642 1093.68 435.912 1097.41 437.248 1100.82C438.583 1104.24 440.924 1107.19 443.975 1109.31C447.025 1111.42 450.648 1112.6 454.385 1112.7C458.123 1112.8 461.807 1111.82 464.972 1109.87C467.075 1108.58 468.896 1106.89 470.333 1104.91C471.769 1102.93 472.792 1100.69 473.343 1098.32C473.894 1095.95 473.962 1093.5 473.543 1091.1C473.125 1088.71 472.228 1086.42 470.903 1084.36ZM462.334 1105.77C459.997 1107.21 457.277 1107.94 454.516 1107.86C451.756 1107.79 449.08 1106.92 446.827 1105.35C444.574 1103.79 442.845 1101.61 441.859 1099.09C440.872 1096.57 440.673 1093.82 441.285 1091.18C441.898 1088.55 443.295 1086.15 445.3 1084.3C447.305 1082.44 449.828 1081.2 452.55 1080.75C455.272 1080.3 458.07 1080.64 460.591 1081.74C463.113 1082.84 465.243 1084.65 466.714 1086.94C468.686 1090 469.333 1093.71 468.512 1097.24C467.691 1100.77 465.469 1103.84 462.336 1105.77H462.334Z" fill="#F1F1F1"/>
<path d="M675.638 1304.27L670.164 1307.64C669.448 1308.08 669.233 1309.01 669.683 1309.71L675.103 1318.13C675.553 1318.83 676.499 1319.04 677.215 1318.6L682.689 1315.23C683.405 1314.79 683.62 1313.87 683.169 1313.17L677.75 1304.74C677.3 1304.04 676.354 1303.83 675.638 1304.27Z" fill="#F1F1F1"/>
<path d="M680.903 1283.08C678.911 1279.99 676.025 1277.54 672.61 1276.05C669.196 1274.56 665.407 1274.09 661.721 1274.71C658.036 1275.32 654.62 1277 651.906 1279.51C649.191 1282.02 647.3 1285.27 646.471 1288.84C645.642 1292.4 645.912 1296.13 647.248 1299.54C648.583 1302.96 650.924 1305.91 653.975 1308.03C657.025 1310.14 660.648 1311.32 664.385 1311.42C668.123 1311.52 671.807 1310.54 674.972 1308.59C677.075 1307.3 678.896 1305.61 680.333 1303.63C681.769 1301.65 682.792 1299.41 683.343 1297.04C683.894 1294.67 683.962 1292.22 683.543 1289.82C683.125 1287.43 682.228 1285.14 680.903 1283.08ZM672.334 1304.49C669.997 1305.93 667.277 1306.66 664.516 1306.58C661.756 1306.51 659.08 1305.64 656.827 1304.07C654.574 1302.51 652.845 1300.33 651.859 1297.81C650.872 1295.29 650.673 1292.54 651.285 1289.9C651.898 1287.27 653.295 1284.87 655.3 1283.02C657.305 1281.16 659.828 1279.92 662.55 1279.47C665.272 1279.02 668.07 1279.36 670.591 1280.46C673.113 1281.56 675.243 1283.37 676.714 1285.66C678.686 1288.72 679.333 1292.43 678.512 1295.96C677.691 1299.49 675.469 1302.56 672.336 1304.49H672.334Z" fill="#F1F1F1"/>
<path d="M1355.64 1105.55L1350.16 1108.92C1349.45 1109.36 1349.23 1110.28 1349.68 1110.98L1355.1 1119.41C1355.55 1120.11 1356.5 1120.32 1357.21 1119.88L1362.69 1116.51C1363.4 1116.07 1363.62 1115.14 1363.17 1114.44L1357.75 1106.02C1357.3 1105.32 1356.35 1105.11 1355.64 1105.55Z" fill="#F1F1F1"/>
<path d="M1360.9 1084.36C1358.91 1081.27 1356.02 1078.82 1352.61 1077.33C1349.2 1075.84 1345.41 1075.37 1341.72 1075.99C1338.04 1076.6 1334.62 1078.28 1331.91 1080.79C1329.19 1083.3 1327.3 1086.55 1326.47 1090.12C1325.64 1093.68 1325.91 1097.41 1327.25 1100.82C1328.58 1104.24 1330.92 1107.19 1333.97 1109.31C1337.03 1111.42 1340.65 1112.6 1344.39 1112.7C1348.12 1112.8 1351.81 1111.82 1354.97 1109.87C1357.07 1108.58 1358.9 1106.89 1360.33 1104.91C1361.77 1102.93 1362.79 1100.69 1363.34 1098.32C1363.89 1095.95 1363.96 1093.5 1363.54 1091.1C1363.12 1088.71 1362.23 1086.42 1360.9 1084.36ZM1352.33 1105.77C1350 1107.21 1347.28 1107.94 1344.52 1107.86C1341.76 1107.79 1339.08 1106.92 1336.83 1105.35C1334.57 1103.79 1332.85 1101.61 1331.86 1099.09C1330.87 1096.57 1330.67 1093.82 1331.29 1091.18C1331.9 1088.55 1333.29 1086.15 1335.3 1084.3C1337.3 1082.44 1339.83 1081.2 1342.55 1080.75C1345.27 1080.3 1348.07 1080.64 1350.59 1081.74C1353.11 1082.84 1355.24 1084.65 1356.71 1086.94C1358.69 1090 1359.33 1093.71 1358.51 1097.24C1357.69 1100.77 1355.47 1103.84 1352.34 1105.77H1352.33Z" fill="#F1F1F1"/>
<path d="M252.862 1296.32H237.43L245.145 1281.23L252.862 1296.32Z" fill="#F1F1F1"/>
<path d="M252.861 1296.32L268.291 1303.87L252.861 1311.42" fill="#F1F1F1"/>
<path d="M237.43 1311.42H252.862L245.145 1326.51L237.43 1311.42Z" fill="#F1F1F1"/>
<path d="M237.43 1311.42L222 1303.87L237.43 1296.32" fill="#F1F1F1"/>
<path d="M237.43 1296.32V1311.42H252.862V1296.32H237.43ZM245.146 1310.03C243.901 1310.03 242.683 1309.67 241.647 1308.99C240.611 1308.31 239.804 1307.35 239.327 1306.23C238.85 1305.1 238.725 1303.86 238.968 1302.67C239.211 1301.47 239.811 1300.37 240.692 1299.51C241.572 1298.65 242.694 1298.06 243.916 1297.83C245.138 1297.59 246.404 1297.71 247.555 1298.18C248.706 1298.64 249.689 1299.43 250.381 1300.45C251.073 1301.46 251.443 1302.65 251.443 1303.87C251.443 1304.68 251.281 1305.48 250.964 1306.23C250.648 1306.97 250.184 1307.65 249.6 1308.23C249.015 1308.8 248.321 1309.25 247.557 1309.56C246.793 1309.87 245.974 1310.03 245.146 1310.03V1310.03Z" fill="#F1F1F1"/>
<path d="M959.862 1522.19H944.43L952.145 1507.09L959.862 1522.19Z" fill="#F1F1F1"/>
<path d="M959.861 1522.19L975.291 1529.73L959.861 1537.28" fill="#F1F1F1"/>
<path d="M944.43 1537.28H959.862L952.145 1552.37L944.43 1537.28Z" fill="#F1F1F1"/>
<path d="M944.43 1537.28L929 1529.73L944.43 1522.19" fill="#F1F1F1"/>
<path d="M944.43 1522.19V1537.28H959.862V1522.19H944.43ZM952.146 1535.89C950.901 1535.89 949.683 1535.53 948.647 1534.85C947.611 1534.18 946.804 1533.22 946.327 1532.09C945.85 1530.96 945.725 1529.72 945.968 1528.53C946.211 1527.33 946.811 1526.24 947.692 1525.38C948.572 1524.51 949.694 1523.93 950.916 1523.69C952.138 1523.45 953.404 1523.57 954.555 1524.04C955.706 1524.51 956.689 1525.29 957.381 1526.31C958.073 1527.32 958.443 1528.51 958.443 1529.73C958.443 1530.54 958.281 1531.34 957.964 1532.09C957.648 1532.84 957.184 1533.52 956.6 1534.09C956.015 1534.66 955.321 1535.11 954.557 1535.42C953.793 1535.73 952.974 1535.89 952.146 1535.89V1535.89Z" fill="#F1F1F1"/>
<path d="M888.861 1082.09H873.43L881.145 1067L888.861 1082.09Z" fill="#F1F1F1"/>
<path d="M888.861 1082.09L904.291 1089.64L888.861 1097.19" fill="#F1F1F1"/>
<path d="M873.43 1097.19H888.862L881.145 1112.28L873.43 1097.19Z" fill="#F1F1F1"/>
<path d="M873.43 1097.19L858 1089.64L873.43 1082.09" fill="#F1F1F1"/>
<path d="M873.43 1082.09V1097.19H888.862V1082.09H873.43ZM881.146 1095.8C879.901 1095.8 878.683 1095.44 877.647 1094.76C876.611 1094.08 875.804 1093.12 875.327 1092C874.85 1090.87 874.725 1089.63 874.968 1088.44C875.211 1087.24 875.811 1086.14 876.692 1085.28C877.572 1084.42 878.694 1083.83 879.916 1083.6C881.138 1083.36 882.404 1083.48 883.555 1083.95C884.706 1084.41 885.689 1085.2 886.381 1086.21C887.073 1087.23 887.443 1088.42 887.443 1089.64C887.443 1090.45 887.281 1091.25 886.964 1092C886.648 1092.74 886.184 1093.42 885.6 1093.99C885.015 1094.57 884.321 1095.02 883.557 1095.33C882.793 1095.64 881.974 1095.8 881.146 1095.8V1095.8Z" fill="#F1F1F1"/>
<path d="M16.5979 1127.44C15.8731 1127.48 15 1127.14 15 1127.14L58.4647 1085.79C58.4647 1085.79 58.3538 1085.9 58.7516 1085.52C59.1493 1085.14 59.5831 1084.65 60.2372 1084.5C61.4845 1084.24 62.7082 1084.94 62.9771 1086.08C63.0393 1086.37 63.0366 1086.67 62.9692 1086.96C62.9019 1087.25 62.7713 1087.52 62.5862 1087.76C62.2495 1088.18 61.1644 1089.24 61.1172 1089.28L47.77 1103.03C47.77 1103.03 39.3052 1111.88 29.9354 1121.27C26.6093 1124.6 23.5383 1126.29 21.0659 1126.94C18.5935 1127.6 17.3213 1127.4 16.5979 1127.44Z" fill="#F1F1F1"/>
<path d="M58.5964 1092.74L54.5184 1088.77C53.9737 1088.24 53.085 1088.24 52.5335 1088.76L51.605 1089.64C51.0535 1090.16 51.0481 1091.02 51.5928 1091.55L55.6709 1095.51C56.2156 1096.04 57.1043 1096.05 57.6558 1095.52L58.5843 1094.64C59.1358 1094.12 59.1412 1093.27 58.5964 1092.74Z" fill="#F1F1F1"/>
<path d="M1114.6 1325.2C1113.87 1325.24 1113 1324.9 1113 1324.9L1156.46 1283.54C1156.46 1283.54 1156.35 1283.65 1156.75 1283.27C1157.15 1282.89 1157.58 1282.4 1158.24 1282.26C1159.48 1281.99 1160.71 1282.69 1160.98 1283.83C1161.04 1284.12 1161.04 1284.42 1160.97 1284.71C1160.9 1285 1160.77 1285.27 1160.59 1285.51C1160.25 1285.93 1159.16 1286.99 1159.12 1287.03L1145.77 1300.78C1145.77 1300.78 1137.31 1309.64 1127.94 1319.02C1124.61 1322.36 1121.54 1324.04 1119.07 1324.7C1116.59 1325.35 1115.32 1325.16 1114.6 1325.2Z" fill="#F1F1F1"/>
<path d="M1156.6 1290.49L1152.52 1286.52C1151.97 1285.99 1151.08 1285.99 1150.53 1286.51L1149.6 1287.39C1149.05 1287.91 1149.05 1288.77 1149.59 1289.3L1153.67 1293.26C1154.22 1293.79 1155.11 1293.8 1155.66 1293.27L1156.59 1292.39C1157.14 1291.87 1157.14 1291.02 1156.6 1290.49Z" fill="#F1F1F1"/>
<path d="M44.638 263.159L39.1639 266.528C38.4479 266.969 38.2328 267.894 38.6832 268.594L44.1026 277.019C44.5531 277.72 45.4986 277.93 46.2146 277.489L51.6887 274.12C52.4047 273.679 52.6198 272.754 52.1693 272.054L46.75 263.629C46.2995 262.928 45.3539 262.718 44.638 263.159Z" fill="#F1F1F1"/>
<path d="M49.9035 241.97C47.9106 238.875 45.0245 236.429 41.6102 234.939C38.1959 233.449 34.4066 232.982 30.7213 233.598C27.036 234.214 23.6202 235.886 20.9057 238.4C18.1912 240.915 16.2998 244.16 15.4707 247.726C14.6417 251.292 14.912 255.019 16.2477 258.434C17.5834 261.85 19.9244 264.801 22.9749 266.916C26.0253 269.03 29.6481 270.213 33.3854 270.314C37.1227 270.414 40.8067 269.429 43.9717 267.482C46.0746 266.189 47.8963 264.503 49.3326 262.52C50.769 260.538 51.7918 258.298 52.3427 255.928C52.8936 253.559 52.9617 251.107 52.5432 248.712C52.1246 246.316 51.2276 244.025 49.9035 241.97ZM41.3342 263.379C38.9973 264.818 36.2767 265.546 33.5165 265.472C30.7563 265.399 28.0805 264.526 25.8274 262.964C23.5744 261.403 21.8452 259.223 20.8587 256.701C19.8722 254.178 19.6725 251.426 20.2851 248.792C20.8976 246.159 22.2947 243.762 24.2999 241.905C26.305 240.048 28.828 238.815 31.5499 238.36C34.2717 237.906 37.0702 238.252 39.5914 239.353C42.1126 240.454 44.2433 242.262 45.7141 244.548C47.6864 247.613 48.3332 251.319 47.5121 254.851C46.691 258.382 44.4692 261.45 41.3356 263.379H41.3342Z" fill="#F1F1F1"/>
<path d="M684.638 462.849L679.164 466.218C678.448 466.659 678.233 467.584 678.683 468.284L684.103 476.709C684.553 477.409 685.499 477.62 686.215 477.179L691.689 473.809C692.405 473.369 692.62 472.444 692.169 471.744L686.75 463.319C686.3 462.619 685.354 462.408 684.638 462.849Z" fill="#F1F1F1" fill-opacity="0.5"/>
<path d="M689.903 441.66C687.911 438.565 685.025 436.119 681.61 434.629C678.196 433.139 674.407 432.672 670.721 433.288C667.036 433.904 663.62 435.575 660.906 438.09C658.191 440.605 656.3 443.85 655.471 447.416C654.642 450.982 654.912 454.709 656.248 458.124C657.583 461.54 659.924 464.492 662.975 466.606C666.025 468.72 669.648 469.903 673.385 470.004C677.123 470.105 680.807 469.119 683.972 467.172C686.075 465.879 687.896 464.193 689.333 462.21C690.769 460.228 691.792 457.988 692.343 455.618C692.894 453.249 692.962 450.797 692.543 448.402C692.125 446.006 691.228 443.715 689.903 441.66ZM681.334 463.069C678.997 464.508 676.277 465.236 673.516 465.162C670.756 465.089 668.08 464.216 665.827 462.654C663.574 461.093 661.845 458.913 660.859 456.391C659.872 453.868 659.673 451.116 660.285 448.482C660.898 445.849 662.295 443.452 664.3 441.595C666.305 439.738 668.828 438.505 671.55 438.05C674.272 437.596 677.07 437.941 679.591 439.043C682.113 440.144 684.243 441.952 685.714 444.238C687.686 447.303 688.333 451.009 687.512 454.541C686.691 458.072 684.469 461.14 681.336 463.069H681.334Z" fill="#F1F1F1" fill-opacity="0.5"/>
<path d="M683.638 83.8265L678.164 87.1958C677.448 87.6364 677.233 88.5613 677.683 89.2616L683.103 97.6857C683.553 98.386 684.499 98.5965 685.215 98.1559L690.689 94.7866C691.405 94.3459 691.62 93.421 691.169 92.7208L685.75 84.2966C685.3 83.5963 684.354 83.3859 683.638 83.8265Z" fill="#F1F1F1"/>
<path d="M688.903 62.6356C686.911 59.5415 684.025 57.0947 680.61 55.6047C677.196 54.1147 673.407 53.6482 669.721 54.2644C666.036 54.8805 662.62 56.5515 659.906 59.0662C657.191 61.5809 655.3 64.8264 654.471 68.3923C653.642 71.9583 653.912 75.6846 655.248 79.1002C656.583 82.5159 658.924 85.4675 661.975 87.582C665.025 89.6964 668.648 90.8788 672.385 90.9797C676.123 91.0805 679.807 90.0952 682.972 88.1484C685.075 86.8549 686.896 85.1687 688.333 83.1862C689.769 81.2037 690.792 78.9637 691.343 76.5944C691.894 74.225 691.962 71.7727 691.543 69.3776C691.125 66.9825 690.228 64.6915 688.903 62.6356ZM680.334 84.0453C677.997 85.4838 675.277 86.2122 672.516 86.1384C669.756 86.0645 667.08 85.1917 664.827 83.6304C662.574 82.069 660.845 79.8892 659.859 77.3667C658.872 74.8441 658.673 72.092 659.285 69.4584C659.898 66.8249 661.295 64.4281 663.3 62.5712C665.305 60.7144 667.828 59.4808 670.55 59.0265C673.272 58.5722 676.07 58.9175 678.591 60.0189C681.113 61.1203 683.243 62.9282 684.714 65.214C686.686 68.2792 687.333 71.9851 686.512 75.5167C685.691 79.0482 683.469 82.116 680.336 84.0453H680.334Z" fill="#F1F1F1"/>
<path d="M1076.6 42.994C1075.87 43.034 1075 42.6947 1075 42.6947L1118.46 1.34412C1118.46 1.34412 1118.35 1.45188 1118.75 1.07006C1119.15 0.688227 1119.58 0.197305 1120.24 0.0562808C1121.48 -0.209802 1122.71 0.492656 1122.98 1.63415C1123.04 1.92377 1123.04 2.22279 1122.97 2.51135C1122.9 2.79991 1122.77 3.07141 1122.59 3.30781C1122.25 3.73088 1121.16 4.78989 1121.12 4.8338L1107.77 18.577C1107.77 18.577 1099.31 27.4349 1089.94 36.8169C1086.61 40.1549 1083.54 41.8419 1081.07 42.4951C1078.59 43.1484 1077.32 42.9541 1076.6 42.994Z" fill="#F1F1F1" fill-opacity="0.5"/>
<path d="M1118.6 8.2876L1114.52 4.32318C1113.97 3.79358 1113.08 3.78837 1112.53 4.31154L1111.6 5.19243C1111.05 5.7156 1111.05 6.56903 1111.59 7.09863L1115.67 11.0631C1116.22 11.5927 1117.1 11.5979 1117.66 11.0747L1118.58 10.1938C1119.14 9.67063 1119.14 8.8172 1118.6 8.2876Z" fill="#F1F1F1" fill-opacity="0.5"/>
<path d="M1364.64 264.129L1359.16 267.498C1358.45 267.939 1358.23 268.864 1358.68 269.564L1364.1 277.989C1364.55 278.69 1365.5 278.9 1366.21 278.459L1371.69 275.09C1372.4 274.649 1372.62 273.724 1372.17 273.024L1366.75 264.599C1366.3 263.899 1365.35 263.688 1364.64 264.129Z" fill="#F1F1F1" fill-opacity="0.5"/>
<path d="M1369.9 242.938C1367.91 239.844 1365.02 237.398 1361.61 235.907C1358.2 234.417 1354.41 233.951 1350.72 234.567C1347.04 235.183 1343.62 236.854 1340.91 239.369C1338.19 241.884 1336.3 245.129 1335.47 248.695C1334.64 252.261 1334.91 255.988 1336.25 259.403C1337.58 262.819 1339.92 265.771 1342.97 267.885C1346.03 270 1349.65 271.182 1353.39 271.283C1357.12 271.384 1360.81 270.398 1363.97 268.452C1366.07 267.158 1367.9 265.472 1369.33 263.489C1370.77 261.507 1371.79 259.267 1372.34 256.897C1372.89 254.528 1372.96 252.076 1372.54 249.68C1372.12 247.285 1371.23 244.994 1369.9 242.938ZM1361.33 264.348C1359 265.787 1356.28 266.515 1353.52 266.441C1350.76 266.368 1348.08 265.495 1345.83 263.933C1343.57 262.372 1341.85 260.192 1340.86 257.67C1339.87 255.147 1339.67 252.395 1340.29 249.761C1340.9 247.128 1342.29 244.731 1344.3 242.874C1346.3 241.017 1348.83 239.784 1351.55 239.329C1354.27 238.875 1357.07 239.22 1359.59 240.322C1362.11 241.423 1364.24 243.231 1365.71 245.517C1367.69 248.582 1368.33 252.288 1367.51 255.82C1366.69 259.351 1364.47 262.419 1361.34 264.348H1361.33Z" fill="#F1F1F1" fill-opacity="0.5"/>
<path d="M261.862 454.905H246.43L254.145 439.811L261.862 454.905Z" fill="#F1F1F1"/>
<path d="M261.861 454.904L277.291 462.45L261.861 469.997" fill="#F1F1F1"/>
<path d="M246.43 469.997H261.862L254.145 485.092L246.43 469.997Z" fill="#F1F1F1"/>
<path d="M246.43 469.997L231 462.45L246.43 454.904" fill="#F1F1F1"/>
<path d="M246.43 454.904V469.997H261.862V454.904H246.43ZM254.146 468.608C252.901 468.608 251.683 468.247 250.647 467.57C249.611 466.894 248.804 465.932 248.327 464.806C247.85 463.681 247.725 462.442 247.968 461.247C248.211 460.052 248.811 458.954 249.692 458.092C250.572 457.231 251.694 456.644 252.916 456.406C254.138 456.168 255.404 456.29 256.555 456.756C257.706 457.223 258.689 458.012 259.381 459.025C260.073 460.038 260.443 461.229 260.443 462.448C260.443 463.257 260.281 464.058 259.964 464.806C259.648 465.553 259.184 466.233 258.6 466.805C258.015 467.377 257.321 467.831 256.557 468.141C255.793 468.451 254.974 468.611 254.146 468.611V468.608Z" fill="#F1F1F1"/>
<path d="M273.862 69.0946H258.43L266.145 54L273.862 69.0946Z" fill="#F1F1F1"/>
<path d="M273.861 69.0938L289.291 76.641L273.861 84.1882" fill="#F1F1F1"/>
<path d="M258.43 84.1875H273.862L266.145 99.2821L258.43 84.1875Z" fill="#F1F1F1"/>
<path d="M258.43 84.1882L243 76.641L258.43 69.0938" fill="#F1F1F1"/>
<path d="M258.43 69.0938V84.1882H273.862V69.0938H258.43ZM266.146 82.7991C264.901 82.7993 263.683 82.4382 262.647 81.7614C261.611 81.0847 260.804 80.1226 260.327 78.9969C259.85 77.8712 259.725 76.6324 259.968 75.4372C260.211 74.2421 260.811 73.1442 261.692 72.2825C262.572 71.4208 263.694 70.8339 264.916 70.5961C266.138 70.3582 267.404 70.4802 268.555 70.9464C269.706 71.4127 270.689 72.2023 271.381 73.2155C272.073 74.2286 272.443 75.4198 272.443 76.6383C272.443 77.4475 272.281 78.2488 271.964 78.9965C271.648 79.7441 271.184 80.4235 270.6 80.9959C270.015 81.5682 269.321 82.0223 268.557 82.3321C267.793 82.642 266.974 82.8016 266.146 82.8017V82.7991Z" fill="#F1F1F1"/>
<path d="M897.861 240.673H882.43L890.145 225.579L897.861 240.673Z" fill="#F1F1F1" fill-opacity="0.5"/>
<path d="M897.861 240.672L913.291 248.22L897.861 255.767" fill="#F1F1F1" fill-opacity="0.5"/>
<path d="M882.43 255.766H897.862L890.145 270.86L882.43 255.766Z" fill="#F1F1F1" fill-opacity="0.5"/>
<path d="M882.43 255.767L867 248.22L882.43 240.672" fill="#F1F1F1" fill-opacity="0.5"/>
<path d="M882.43 240.672V255.767H897.862V240.672H882.43ZM890.146 254.378C888.901 254.378 887.683 254.017 886.647 253.34C885.611 252.663 884.804 251.701 884.327 250.576C883.85 249.45 883.725 248.211 883.968 247.016C884.211 245.821 884.811 244.723 885.692 243.861C886.572 242.999 887.694 242.413 888.916 242.175C890.138 241.937 891.404 242.059 892.555 242.525C893.706 242.991 894.689 243.781 895.381 244.794C896.073 245.807 896.443 246.999 896.443 248.217C896.443 249.026 896.281 249.828 895.964 250.575C895.648 251.323 895.184 252.002 894.6 252.575C894.015 253.147 893.321 253.601 892.557 253.911C891.793 254.221 890.974 254.38 890.146 254.381V254.378Z" fill="#F1F1F1" fill-opacity="0.5"/>
<path d="M434.598 262.758C433.873 262.798 433 262.459 433 262.459L476.465 221.107C476.465 221.107 476.354 221.215 476.752 220.833C477.149 220.451 477.583 219.96 478.237 219.819C479.485 219.553 480.708 220.255 480.977 221.397C481.039 221.687 481.037 221.986 480.969 222.274C480.902 222.563 480.771 222.834 480.586 223.071C480.249 223.494 479.164 224.553 479.117 224.597L465.77 238.34C465.77 238.34 457.305 247.199 447.935 256.581C444.609 259.919 441.538 261.606 439.066 262.26C436.594 262.913 435.321 262.719 434.598 262.758Z" fill="#F1F1F1"/>
<path d="M476.596 228.05L472.518 224.085C471.974 223.556 471.085 223.551 470.534 224.074L469.605 224.955C469.054 225.478 469.048 226.331 469.593 226.861L473.671 230.826C474.216 231.355 475.104 231.361 475.656 230.837L476.584 229.956C477.136 229.433 477.141 228.58 476.596 228.05Z" fill="#F1F1F1"/>
<path d="M1123.6 483.774C1122.87 483.814 1122 483.475 1122 483.475L1165.46 442.123C1165.46 442.123 1165.35 442.231 1165.75 441.849C1166.15 441.468 1166.58 440.977 1167.24 440.836C1168.48 440.569 1169.71 441.272 1169.98 442.413C1170.04 442.703 1170.04 443.002 1169.97 443.291C1169.9 443.579 1169.77 443.851 1169.59 444.087C1169.25 444.51 1168.16 445.569 1168.12 445.613L1154.77 459.357C1154.77 459.357 1146.31 468.215 1136.94 477.597C1133.61 480.935 1130.54 482.622 1128.07 483.275C1125.59 483.928 1124.32 483.734 1123.6 483.774Z" fill="#F1F1F1" fill-opacity="0.5"/>
<path d="M1165.6 449.065L1161.52 445.101C1160.97 444.571 1160.08 444.566 1159.53 445.089L1158.6 445.97C1158.05 446.493 1158.05 447.347 1158.59 447.876L1162.67 451.84C1163.22 452.37 1164.11 452.375 1164.66 451.852L1165.59 450.971C1166.14 450.448 1166.14 449.595 1165.6 449.065Z" fill="#F1F1F1" fill-opacity="0.5"/>
<path d="M464.638 2140.16L459.164 2143.53C458.448 2143.97 458.233 2144.89 458.683 2145.59L464.103 2154.01C464.553 2154.72 465.499 2154.93 466.215 2154.48L471.689 2151.12C472.405 2150.68 472.62 2149.75 472.169 2149.05L466.75 2140.63C466.3 2139.93 465.354 2139.72 464.638 2140.16Z" fill="#F1F1F1"/>
<path d="M469.903 2118.97C467.911 2115.87 465.025 2113.43 461.61 2111.94C458.196 2110.45 454.407 2109.98 450.721 2110.59C447.036 2111.21 443.62 2112.88 440.906 2115.4C438.191 2117.91 436.3 2121.16 435.471 2124.72C434.642 2128.29 434.912 2132.01 436.248 2135.43C437.583 2138.85 439.924 2141.8 442.975 2143.91C446.025 2146.03 449.648 2147.21 453.385 2147.31C457.123 2147.41 460.807 2146.42 463.972 2144.48C466.075 2143.18 467.896 2141.5 469.333 2139.52C470.769 2137.53 471.792 2135.29 472.343 2132.92C472.894 2130.55 472.962 2128.1 472.543 2125.71C472.125 2123.31 471.228 2121.02 469.903 2118.97ZM461.334 2140.37C458.997 2141.81 456.277 2142.54 453.516 2142.47C450.756 2142.39 448.08 2141.52 445.827 2139.96C443.574 2138.4 441.845 2136.22 440.859 2133.7C439.872 2131.17 439.673 2128.42 440.285 2125.79C440.898 2123.15 442.295 2120.76 444.3 2118.9C446.305 2117.04 448.828 2115.81 451.55 2115.36C454.272 2114.9 457.07 2115.25 459.591 2116.35C462.113 2117.45 464.243 2119.26 465.714 2121.54C467.686 2124.61 468.333 2128.31 467.512 2131.85C466.691 2135.38 464.469 2138.45 461.336 2140.37H461.334Z" fill="#F1F1F1"/>
<path d="M1354.64 2140.16L1349.16 2143.53C1348.45 2143.97 1348.23 2144.89 1348.68 2145.59L1354.1 2154.01C1354.55 2154.72 1355.5 2154.93 1356.21 2154.48L1361.69 2151.12C1362.4 2150.68 1362.62 2149.75 1362.17 2149.05L1356.75 2140.63C1356.3 2139.93 1355.35 2139.72 1354.64 2140.16Z" fill="#F1F1F1"/>
<path d="M1359.9 2118.97C1357.91 2115.87 1355.02 2113.43 1351.61 2111.94C1348.2 2110.45 1344.41 2109.98 1340.72 2110.59C1337.04 2111.21 1333.62 2112.88 1330.91 2115.4C1328.19 2117.91 1326.3 2121.16 1325.47 2124.72C1324.64 2128.29 1324.91 2132.01 1326.25 2135.43C1327.58 2138.85 1329.92 2141.8 1332.97 2143.91C1336.03 2146.03 1339.65 2147.21 1343.39 2147.31C1347.12 2147.41 1350.81 2146.42 1353.97 2144.48C1356.07 2143.18 1357.9 2141.5 1359.33 2139.52C1360.77 2137.53 1361.79 2135.29 1362.34 2132.92C1362.89 2130.55 1362.96 2128.1 1362.54 2125.71C1362.12 2123.31 1361.23 2121.02 1359.9 2118.97ZM1351.33 2140.37C1349 2141.81 1346.28 2142.54 1343.52 2142.47C1340.76 2142.39 1338.08 2141.52 1335.83 2139.96C1333.57 2138.4 1331.85 2136.22 1330.86 2133.7C1329.87 2131.17 1329.67 2128.42 1330.29 2125.79C1330.9 2123.15 1332.29 2120.76 1334.3 2118.9C1336.3 2117.04 1338.83 2115.81 1341.55 2115.36C1344.27 2114.9 1347.07 2115.25 1349.59 2116.35C1352.11 2117.45 1354.24 2119.26 1355.71 2121.54C1357.69 2124.61 1358.33 2128.31 1357.51 2131.85C1356.69 2135.38 1354.47 2138.45 1351.34 2140.37H1351.33Z" fill="#F1F1F1"/>
<path d="M887.861 2116.7H872.43L880.145 2101.61L887.861 2116.7Z" fill="#F1F1F1"/>
<path d="M887.861 2116.7L903.291 2124.25L887.861 2131.79" fill="#F1F1F1"/>
<path d="M872.43 2131.79H887.862L880.145 2146.89L872.43 2131.79Z" fill="#F1F1F1"/>
<path d="M872.43 2131.79L857 2124.25L872.43 2116.7" fill="#F1F1F1"/>
<path d="M872.43 2116.7V2131.79H887.862V2116.7H872.43ZM880.146 2130.4C878.901 2130.4 877.683 2130.04 876.647 2129.37C875.611 2128.69 874.804 2127.73 874.327 2126.6C873.85 2125.48 873.725 2124.24 873.968 2123.04C874.211 2121.85 874.811 2120.75 875.692 2119.89C876.572 2119.03 877.694 2118.44 878.916 2118.2C880.138 2117.96 881.404 2118.09 882.555 2118.55C883.706 2119.02 884.689 2119.81 885.381 2120.82C886.073 2121.83 886.443 2123.02 886.443 2124.24C886.443 2125.05 886.281 2125.85 885.964 2126.6C885.648 2127.35 885.184 2128.03 884.6 2128.6C884.015 2129.17 883.321 2129.63 882.557 2129.94C881.793 2130.25 880.974 2130.41 880.146 2130.41V2130.4Z" fill="#F1F1F1"/>
<path d="M15.5979 2162.05C14.8731 2162.09 14 2161.75 14 2161.75L57.4647 2120.4C57.4647 2120.4 57.3538 2120.51 57.7516 2120.12C58.1493 2119.74 58.5831 2119.25 59.2372 2119.11C60.4845 2118.84 61.7082 2119.55 61.9771 2120.69C62.0393 2120.98 62.0366 2121.28 61.9692 2121.57C61.9019 2121.85 61.7713 2122.13 61.5862 2122.36C61.2495 2122.79 60.1644 2123.84 60.1172 2123.89L46.77 2137.63C46.77 2137.63 38.3052 2146.49 28.9354 2155.87C25.6093 2159.21 22.5383 2160.9 20.0659 2161.55C17.5935 2162.2 16.3213 2162.01 15.5979 2162.05Z" fill="#F1F1F1"/>
<path d="M57.5975 2127.34L53.5187 2123.38C52.9738 2122.85 52.0849 2122.84 51.5333 2123.36L50.6046 2124.24C50.053 2124.77 50.0476 2125.62 50.5924 2126.15L54.6713 2130.12C55.2162 2130.65 56.1051 2130.65 56.6567 2130.13L57.5854 2129.25C58.137 2128.72 58.1424 2127.87 57.5975 2127.34Z" fill="#F1F1F1"/>
<path d="M29.638 1754.35L24.1639 1757.72C23.4479 1758.16 23.2328 1759.08 23.6832 1759.78L29.1026 1768.21C29.5531 1768.91 30.4986 1769.12 31.2146 1768.68L36.6887 1765.31C37.4047 1764.87 37.6198 1763.94 37.1693 1763.24L31.75 1754.82C31.2995 1754.12 30.3539 1753.91 29.638 1754.35Z" fill="#F1F1F1"/>
<path d="M34.9035 1733.16C32.9106 1730.06 30.0245 1727.62 26.6102 1726.13C23.1959 1724.64 19.4066 1724.17 15.7213 1724.79C12.036 1725.4 8.62021 1727.07 5.9057 1729.59C3.19119 1732.1 1.29984 1735.35 0.470747 1738.91C-0.358345 1742.48 -0.0879559 1746.21 1.24773 1749.62C2.58342 1753.04 4.92444 1755.99 7.97486 1758.1C11.0253 1760.22 14.6481 1761.4 18.3854 1761.5C22.1227 1761.6 25.8067 1760.62 28.9717 1758.67C31.0746 1757.38 32.8963 1755.69 34.3326 1753.71C35.769 1751.72 36.7918 1749.48 37.3427 1747.12C37.8936 1744.75 37.9617 1742.29 37.5432 1739.9C37.1246 1737.5 36.2276 1735.21 34.9035 1733.16ZM26.3342 1754.57C23.9973 1756.01 21.2767 1756.73 18.5165 1756.66C15.7563 1756.59 13.0805 1755.71 10.8274 1754.15C8.57436 1752.59 6.84523 1750.41 5.8587 1747.89C4.87217 1745.37 4.67254 1742.61 5.28506 1739.98C5.89758 1737.35 7.29474 1734.95 9.29986 1733.09C11.305 1731.24 13.828 1730 16.5499 1729.55C19.2717 1729.09 22.0702 1729.44 24.5914 1730.54C27.1126 1731.64 29.2433 1733.45 30.7141 1735.74C32.6864 1738.8 33.3332 1742.51 32.5121 1746.04C31.691 1749.57 29.4692 1752.64 26.3356 1754.57H26.3342Z" fill="#F1F1F1"/>
<path d="M669.638 1954.04L664.164 1957.41C663.448 1957.85 663.233 1958.77 663.683 1959.47L669.103 1967.9C669.553 1968.6 670.499 1968.81 671.215 1968.37L676.689 1965C677.405 1964.56 677.62 1963.63 677.169 1962.93L671.75 1954.51C671.3 1953.81 670.354 1953.6 669.638 1954.04Z" fill="#F1F1F1"/>
<path d="M674.903 1932.85C672.911 1929.75 670.025 1927.31 666.61 1925.82C663.196 1924.33 659.407 1923.86 655.721 1924.48C652.036 1925.09 648.62 1926.76 645.906 1929.28C643.191 1931.79 641.3 1935.04 640.471 1938.6C639.642 1942.17 639.912 1945.9 641.248 1949.31C642.583 1952.73 644.924 1955.68 647.975 1957.79C651.025 1959.91 654.648 1961.09 658.385 1961.19C662.123 1961.29 665.807 1960.31 668.972 1958.36C671.075 1957.07 672.896 1955.38 674.333 1953.4C675.769 1951.41 676.792 1949.17 677.343 1946.81C677.894 1944.44 677.962 1941.98 677.543 1939.59C677.125 1937.19 676.228 1934.9 674.903 1932.85ZM666.334 1954.26C663.997 1955.69 661.277 1956.42 658.516 1956.35C655.756 1956.28 653.08 1955.4 650.827 1953.84C648.574 1952.28 646.845 1950.1 645.859 1947.58C644.872 1945.05 644.673 1942.3 645.285 1939.67C645.898 1937.04 647.295 1934.64 649.3 1932.78C651.305 1930.93 653.828 1929.69 656.55 1929.24C659.272 1928.78 662.07 1929.13 664.591 1930.23C667.113 1931.33 669.243 1933.14 670.714 1935.42C672.686 1938.49 673.333 1942.2 672.512 1945.73C671.691 1949.26 669.469 1952.33 666.336 1954.26H666.334Z" fill="#F1F1F1"/>
<path d="M668.638 1575.01L663.164 1578.38C662.448 1578.82 662.233 1579.75 662.683 1580.45L668.103 1588.87C668.553 1589.57 669.499 1589.78 670.215 1589.34L675.689 1585.97C676.405 1585.53 676.62 1584.61 676.169 1583.91L670.75 1575.48C670.3 1574.78 669.354 1574.57 668.638 1575.01Z" fill="#F1F1F1"/>
<path d="M673.903 1553.82C671.911 1550.73 669.025 1548.28 665.61 1546.79C662.196 1545.3 658.407 1544.84 654.721 1545.45C651.036 1546.07 647.62 1547.74 644.906 1550.25C642.191 1552.77 640.3 1556.01 639.471 1559.58C638.642 1563.15 638.912 1566.87 640.248 1570.29C641.583 1573.7 643.924 1576.66 646.975 1578.77C650.025 1580.88 653.648 1582.07 657.385 1582.17C661.123 1582.27 664.807 1581.28 667.972 1579.34C670.075 1578.04 671.896 1576.36 673.333 1574.37C674.769 1572.39 675.792 1570.15 676.343 1567.78C676.894 1565.41 676.962 1562.96 676.543 1560.57C676.125 1558.17 675.228 1555.88 673.903 1553.82ZM665.334 1575.23C662.997 1576.67 660.277 1577.4 657.516 1577.33C654.756 1577.25 652.08 1576.38 649.827 1574.82C647.574 1573.26 645.845 1571.08 644.859 1568.55C643.872 1566.03 643.673 1563.28 644.285 1560.65C644.898 1558.01 646.295 1555.62 648.3 1553.76C650.305 1551.9 652.828 1550.67 655.55 1550.21C658.272 1549.76 661.07 1550.11 663.591 1551.21C666.113 1552.31 668.243 1554.12 669.714 1556.4C671.686 1559.47 672.333 1563.17 671.512 1566.7C670.691 1570.24 668.469 1573.3 665.336 1575.23H665.334Z" fill="#F1F1F1"/>
<path d="M1349.64 1755.32L1344.16 1758.69C1343.45 1759.13 1343.23 1760.05 1343.68 1760.75L1349.1 1769.18C1349.55 1769.88 1350.5 1770.09 1351.21 1769.65L1356.69 1766.28C1357.4 1765.84 1357.62 1764.91 1357.17 1764.21L1351.75 1755.79C1351.3 1755.09 1350.35 1754.88 1349.64 1755.32Z" fill="#F1F1F1"/>
<path d="M1354.9 1734.13C1352.91 1731.03 1350.02 1728.59 1346.61 1727.1C1343.2 1725.61 1339.41 1725.14 1335.72 1725.76C1332.04 1726.37 1328.62 1728.04 1325.91 1730.56C1323.19 1733.07 1321.3 1736.32 1320.47 1739.88C1319.64 1743.45 1319.91 1747.18 1321.25 1750.59C1322.58 1754.01 1324.92 1756.96 1327.97 1759.07C1331.03 1761.19 1334.65 1762.37 1338.39 1762.47C1342.12 1762.57 1345.81 1761.59 1348.97 1759.64C1351.07 1758.35 1352.9 1756.66 1354.33 1754.68C1355.77 1752.69 1356.79 1750.45 1357.34 1748.09C1357.89 1745.72 1357.96 1743.26 1357.54 1740.87C1357.12 1738.47 1356.23 1736.18 1354.9 1734.13ZM1346.33 1755.54C1344 1756.97 1341.28 1757.7 1338.52 1757.63C1335.76 1757.56 1333.08 1756.68 1330.83 1755.12C1328.57 1753.56 1326.85 1751.38 1325.86 1748.86C1324.87 1746.33 1324.67 1743.58 1325.29 1740.95C1325.9 1738.32 1327.29 1735.92 1329.3 1734.06C1331.3 1732.21 1333.83 1730.97 1336.55 1730.52C1339.27 1730.06 1342.07 1730.41 1344.59 1731.51C1347.11 1732.61 1349.24 1734.42 1350.71 1736.7C1352.69 1739.77 1353.33 1743.48 1352.51 1747.01C1351.69 1750.54 1349.47 1753.61 1346.34 1755.54H1346.33Z" fill="#F1F1F1"/>
<path d="M246.862 1946.09H231.43L239.145 1931L246.862 1946.09Z" fill="#F1F1F1"/>
<path d="M246.861 1946.09L262.291 1953.64L246.861 1961.18" fill="#F1F1F1"/>
<path d="M231.43 1961.18H246.862L239.145 1976.28L231.43 1961.18Z" fill="#F1F1F1"/>
<path d="M231.43 1961.18L216 1953.64L231.43 1946.09" fill="#F1F1F1"/>
<path d="M231.43 1946.09V1961.18H246.862V1946.09H231.43ZM239.146 1959.79C237.901 1959.79 236.683 1959.43 235.647 1958.76C234.611 1958.08 233.804 1957.12 233.327 1955.99C232.85 1954.87 232.725 1953.63 232.968 1952.43C233.211 1951.24 233.811 1950.14 234.692 1949.28C235.572 1948.42 236.694 1947.83 237.916 1947.59C239.138 1947.36 240.404 1947.48 241.555 1947.94C242.706 1948.41 243.689 1949.2 244.381 1950.21C245.073 1951.23 245.443 1952.42 245.443 1953.63C245.443 1954.44 245.281 1955.24 244.964 1955.99C244.648 1956.74 244.184 1957.42 243.6 1957.99C243.015 1958.56 242.321 1959.02 241.557 1959.33C240.793 1959.64 239.974 1959.8 239.146 1959.8V1959.79Z" fill="#F1F1F1"/>
<path d="M258.862 1560.28H243.43L251.145 1545.19L258.862 1560.28Z" fill="#F1F1F1"/>
<path d="M258.861 1560.28L274.291 1567.83L258.861 1575.37" fill="#F1F1F1"/>
<path d="M243.43 1575.38H258.862L251.145 1590.47L243.43 1575.38Z" fill="#F1F1F1"/>
<path d="M243.43 1575.37L228 1567.83L243.43 1560.28" fill="#F1F1F1"/>
<path d="M243.43 1560.28V1575.37H258.862V1560.28H243.43ZM251.146 1573.99C249.901 1573.99 248.683 1573.62 247.647 1572.95C246.611 1572.27 245.804 1571.31 245.327 1570.18C244.85 1569.06 244.725 1567.82 244.968 1566.62C245.211 1565.43 245.811 1564.33 246.692 1563.47C247.572 1562.61 248.694 1562.02 249.916 1561.78C251.138 1561.55 252.404 1561.67 253.555 1562.13C254.706 1562.6 255.689 1563.39 256.381 1564.4C257.073 1565.42 257.443 1566.61 257.443 1567.83C257.443 1568.63 257.281 1569.44 256.964 1570.18C256.648 1570.93 256.184 1571.61 255.6 1572.18C255.015 1572.75 254.321 1573.21 253.557 1573.52C252.793 1573.83 251.974 1573.99 251.146 1573.99V1573.99Z" fill="#F1F1F1"/>
<path d="M882.861 1731.86H867.43L875.145 1716.77L882.861 1731.86Z" fill="#F1F1F1"/>
<path d="M882.861 1731.86L898.291 1739.41L882.861 1746.95" fill="#F1F1F1"/>
<path d="M867.43 1746.95H882.862L875.145 1762.05L867.43 1746.95Z" fill="#F1F1F1"/>
<path d="M867.43 1746.95L852 1739.41L867.43 1731.86" fill="#F1F1F1"/>
<path d="M867.43 1731.86V1746.95H882.862V1731.86H867.43ZM875.146 1745.56C873.901 1745.56 872.683 1745.2 871.647 1744.53C870.611 1743.85 869.804 1742.89 869.327 1741.76C868.85 1740.64 868.725 1739.4 868.968 1738.2C869.211 1737.01 869.811 1735.91 870.692 1735.05C871.572 1734.19 872.694 1733.6 873.916 1733.36C875.138 1733.12 876.404 1733.25 877.555 1733.71C878.706 1734.18 879.689 1734.97 880.381 1735.98C881.073 1736.99 881.443 1738.19 881.443 1739.4C881.443 1740.21 881.281 1741.01 880.964 1741.76C880.648 1742.51 880.184 1743.19 879.6 1743.76C879.015 1744.33 878.321 1744.79 877.557 1745.1C876.793 1745.41 875.974 1745.57 875.146 1745.57V1745.56Z" fill="#F1F1F1"/>
<path d="M419.598 1753.95C418.873 1753.99 418 1753.65 418 1753.65L461.465 1712.3C461.465 1712.3 461.354 1712.4 461.752 1712.02C462.149 1711.64 462.583 1711.15 463.237 1711.01C464.485 1710.74 465.708 1711.44 465.977 1712.59C466.039 1712.88 466.037 1713.17 465.969 1713.46C465.902 1713.75 465.771 1714.02 465.586 1714.26C465.249 1714.68 464.164 1715.74 464.117 1715.79L450.77 1729.53C450.77 1729.53 442.305 1738.39 432.935 1747.77C429.609 1751.11 426.538 1752.79 424.066 1753.45C421.594 1754.1 420.321 1753.91 419.598 1753.95Z" fill="#F1F1F1"/>
<path d="M461.597 1719.24L457.518 1715.27C456.974 1714.74 456.085 1714.74 455.533 1715.26L454.605 1716.14C454.053 1716.67 454.048 1717.52 454.593 1718.05L458.671 1722.01C459.216 1722.54 460.104 1722.55 460.656 1722.03L461.584 1721.14C462.136 1720.62 462.141 1719.77 461.597 1719.24Z" fill="#F1F1F1"/>
<path d="M1108.6 1974.96C1107.87 1975 1107 1974.66 1107 1974.66L1150.46 1933.31C1150.46 1933.31 1150.35 1933.42 1150.75 1933.04C1151.15 1932.65 1151.58 1932.16 1152.24 1932.02C1153.48 1931.76 1154.71 1932.46 1154.98 1933.6C1155.04 1933.89 1155.04 1934.19 1154.97 1934.48C1154.9 1934.77 1154.77 1935.04 1154.59 1935.27C1154.25 1935.7 1153.16 1936.76 1153.12 1936.8L1139.77 1950.54C1139.77 1950.54 1131.31 1959.4 1121.94 1968.78C1118.61 1972.12 1115.54 1973.81 1113.07 1974.46C1110.59 1975.12 1109.32 1974.92 1108.6 1974.96Z" fill="#F1F1F1"/>
<path d="M1150.6 1940.25L1146.52 1936.29C1145.97 1935.76 1145.08 1935.75 1144.53 1936.28L1143.6 1937.16C1143.05 1937.68 1143.05 1938.54 1143.59 1939.07L1147.67 1943.03C1148.22 1943.56 1149.1 1943.56 1149.66 1943.04L1150.58 1942.16C1151.14 1941.64 1151.14 1940.78 1150.6 1940.25Z" fill="#F1F1F1"/>
</svg>
