<svg width="22" height="25" viewBox="0 0 22 25" fill="none" xmlns="http://www.w3.org/2000/svg">
<path d="M11 24.5C12.6569 24.5 14 23.1569 14 21.5H8C8 23.1569 9.34315 24.5 11 24.5Z" fill="#00508B"/>
<path d="M11 3.37737L9.80421 3.61888C7.06329 4.17243 5.00003 6.59694 5.00003 9.5C5.00003 10.4417 4.79849 12.7959 4.31173 15.1132C4.0701 16.2636 3.74681 17.4614 3.31714 18.5H18.6829C18.2532 17.4614 17.9299 16.2636 17.6883 15.1132C17.2016 12.7959 17 10.4417 17 9.5C17 6.59693 14.9368 4.1724 12.1958 3.61887L11 3.37737ZM20.329 18.5C20.6638 19.1711 21.0522 19.7015 21.5 20H0.5C0.94779 19.7015 1.33617 19.1711 1.67105 18.5C3.01883 15.7991 3.50003 10.8187 3.50003 9.5C3.50003 5.86901 6.0803 2.84067 9.50726 2.14856C9.50246 2.09969 9.5 2.05013 9.5 2C9.5 1.17157 10.1716 0.5 11 0.5C11.8284 0.5 12.5 1.17157 12.5 2C12.5 2.05013 12.4975 2.09968 12.4927 2.14855C15.9197 2.84063 18.5 5.86899 18.5 9.5C18.5 10.8187 18.9812 15.7991 20.329 18.5Z" fill="#00508B"/>
</svg>
