<svg width="330" height="527" viewBox="0 0 330 527" fill="none" xmlns="http://www.w3.org/2000/svg">
<ellipse cx="100.5" cy="231.792" rx="100.5" ry="99.7923" fill="#F9F9F9"/>
<path d="M73.3101 251.636C73.3101 251.636 59.4429 267.699 56.921 274.09C56.921 274.09 39.8166 278.083 39.6369 287.066C39.4572 296.049 50.6162 298.454 54.7617 299.319C58.9073 300.184 74.9304 300.354 74.9304 300.354C74.9304 300.354 75.2897 302.427 73.3101 306.572C71.3305 310.718 69.1679 314.171 72.5882 314.517C76.0084 314.863 90.6109 306.386 90.6109 306.386C90.6109 306.386 92.2312 306.053 94.3904 307.94C96.5497 309.826 103.214 314.178 106.637 314.514C110.061 314.85 111.319 313.985 111.139 313.466C110.959 312.947 108.81 307.594 106.458 302.932C104.105 298.271 119.783 301.033 127.165 299.822C134.548 298.611 148.595 293.457 142.832 287.052C142.832 287.052 141.572 283.289 134.728 284.82L98.7123 251.636L73.3101 251.636Z" fill="#1C1C1C"/>
<path d="M100.102 197.338C100.102 197.338 99.5832 196.726 99.184 194.128C98.7847 191.529 98.6217 191.063 98.665 189.157C98.7082 187.251 99.2871 185.018 100.042 183.8C100.798 182.583 102.015 181.155 102.751 180.869C103.486 180.583 103.715 180.5 103.715 180.5C103.715 180.5 104.028 180.65 104.63 181.535C105.233 182.42 107.146 184.932 107.921 186.931C108.696 188.931 109.298 189.852 109.368 191.483C109.438 193.113 109.425 194.517 109.425 194.517C109.927 194.057 110.499 193.679 111.118 193.396C112.872 192.481 114.767 191.867 116.724 191.579C118.156 191.357 119.601 191.226 121.049 191.187C122.137 191.167 123.538 191.103 123.538 191.103C123.72 192.183 123.741 193.284 123.601 194.371C123.327 196.143 122.711 197.846 121.788 199.384C120.92 200.802 118.774 202.592 116.881 203.377C115.032 204.051 113.106 204.492 111.148 204.691C110.253 204.748 108.819 204.967 108.819 204.967L100.102 197.338Z" fill="#333333"/>
<path d="M84.8499 254.916C102.738 254.916 117.239 240.415 117.239 222.527C117.239 204.639 102.738 190.138 84.8499 190.138C66.962 190.138 52.4609 204.639 52.4609 222.527C52.4609 240.415 66.962 254.916 84.8499 254.916Z" fill="#333333"/>
<path d="M84.9532 254.925C102.259 254.602 116.036 240.826 115.725 224.155C115.414 207.485 101.132 194.233 83.8257 194.556C66.5196 194.879 52.7426 208.655 53.054 225.326C53.3654 241.996 67.6471 255.248 84.9532 254.925Z" fill="#1C1C1C"/>
<path d="M85.5237 234.159C85.5237 234.159 97.9902 234.355 102.246 232.721C106.501 231.088 112.31 227.521 108.174 221.376C104.039 215.231 91.9416 213.817 89.6759 213.784C87.4101 213.75 76.0615 213.434 68.1864 216.951C60.3112 220.468 60.1448 227.904 63.076 230.259C66.0071 232.615 69.6503 234.565 77.5886 234.362L85.5237 234.159Z" fill="#E8C9B8"/>
<path d="M84.8526 234.152C84.8526 234.152 96.86 234.305 100.966 232.871C105.071 231.437 110.671 228.327 106.698 222.983C102.726 217.64 91.0609 216.432 88.8884 216.396C86.7158 216.359 75.7697 216.116 68.1807 219.194C60.5917 222.271 60.412 228.756 63.23 230.795C66.0481 232.835 69.5515 234.535 77.2037 234.345L84.8526 234.152Z" fill="#F9DAC5"/>
<path d="M72.3713 231.108C74.0746 231.108 75.4555 229.727 75.4555 228.024C75.4555 226.321 74.0746 224.94 72.3713 224.94C70.6679 224.94 69.2871 226.321 69.2871 228.024C69.2871 229.727 70.6679 231.108 72.3713 231.108Z" fill="#1C1C1C"/>
<path d="M98.8498 231.108C100.553 231.108 101.934 229.727 101.934 228.024C101.934 226.321 100.553 224.94 98.8498 224.94C97.1465 224.94 95.7656 226.321 95.7656 228.024C95.7656 229.727 97.1465 231.108 98.8498 231.108Z" fill="#1C1C1C"/>
<path d="M95.935 221.719L100.713 221.719C100.788 221.719 100.863 221.734 100.933 221.763C101.003 221.791 101.066 221.834 101.12 221.887C101.173 221.941 101.215 222.004 101.244 222.074C101.273 222.144 101.288 222.219 101.288 222.294L101.288 222.85C101.288 222.926 101.273 223 101.244 223.07C101.215 223.14 101.173 223.203 101.12 223.257C101.066 223.31 101.003 223.353 100.933 223.382C100.863 223.411 100.788 223.426 100.713 223.426L95.8218 223.426C95.6992 223.426 95.5816 223.377 95.4948 223.29C95.4081 223.203 95.3594 223.086 95.3594 222.963L95.3594 222.298C95.3589 222.222 95.3735 222.147 95.4022 222.076C95.431 222.006 95.4733 221.942 95.5268 221.889C95.5803 221.835 95.6439 221.792 95.7139 221.763C95.784 221.734 95.8591 221.719 95.935 221.719Z" fill="#1C1C1C"/>
<path d="M69.9838 222.051L74.7615 222.051C74.9141 222.051 75.0605 222.112 75.1685 222.22C75.2764 222.328 75.337 222.474 75.337 222.627L75.337 223.182C75.337 223.335 75.2764 223.482 75.1685 223.589C75.0605 223.697 74.9141 223.758 74.7615 223.758L69.8707 223.758C69.748 223.758 69.6304 223.709 69.5437 223.623C69.4569 223.536 69.4082 223.418 69.4082 223.296L69.4082 222.63C69.4078 222.554 69.4223 222.479 69.4511 222.409C69.4798 222.339 69.5221 222.275 69.5756 222.221C69.6291 222.167 69.6927 222.125 69.7628 222.095C69.8328 222.066 69.9079 222.051 69.9838 222.051Z" fill="#1C1C1C"/>
<path d="M56.625 274.336C56.625 274.336 62.0082 255.898 70.236 251.672L90.7507 251.672C98.9752 255.898 104.358 274.336 104.358 274.336" fill="#1C1C1C"/>
<path d="M89.2331 278.718L68.4922 278.718L68.4922 284.454L89.2331 284.454L89.2331 278.718Z" fill="#A0A0A0"/>
<path d="M161.272 245.844L148.772 284.455L87.5039 284.455L99.3682 245.844L161.272 245.844Z" fill="#B5B5B5"/>
<path d="M160.732 247.434L148.589 284.454L89.084 284.454L100.606 247.434L160.732 247.434Z" fill="#A0A0A0"/>
<path d="M129.949 265.244L125.764 260.872L132.228 258.873L129.949 265.244Z" fill="#F2F2F2"/>
<path d="M129.949 265.244L131.946 271.709L125.574 269.426" fill="#F2F2F2"/>
<path d="M121.392 265.054L125.574 269.425L119.109 271.422L121.392 265.054Z" fill="#F2F2F2"/>
<path d="M121.393 265.054L119.396 258.589L125.764 260.872" fill="#F2F2F2"/>
<path d="M125.766 260.872L121.395 265.054L125.577 269.426L129.952 265.244L125.766 260.872ZM123.887 266.861C123.548 266.508 123.322 266.062 123.237 265.581C123.152 265.099 123.212 264.603 123.409 264.155C123.606 263.708 123.931 263.329 124.343 263.066C124.756 262.803 125.237 262.669 125.726 262.679C126.215 262.69 126.689 262.845 127.09 263.126C127.49 263.407 127.799 263.8 127.976 264.255C128.153 264.711 128.191 265.209 128.085 265.687C127.979 266.164 127.733 266.599 127.38 266.937C127.145 267.162 126.868 267.338 126.566 267.455C126.263 267.573 125.94 267.63 125.615 267.622C125.29 267.615 124.97 267.543 124.673 267.412C124.376 267.281 124.107 267.092 123.883 266.857L123.887 266.861Z" fill="#F2F2F2"/>
<path d="M155.822 168.693C155.88 168.75 155.926 168.819 155.957 168.894C155.988 168.969 156.005 169.05 156.005 169.132C156.005 169.213 155.988 169.294 155.957 169.37C155.926 169.445 155.88 169.513 155.822 169.571L147.128 178.268C147.071 178.326 147.002 178.372 146.927 178.403C146.851 178.435 146.771 178.451 146.689 178.451C146.607 178.451 146.526 178.435 146.451 178.403C146.376 178.372 146.307 178.326 146.25 178.268L141.901 173.919C141.796 173.801 141.74 173.646 141.744 173.488C141.749 173.329 141.814 173.178 141.926 173.066C142.039 172.954 142.189 172.889 142.348 172.884C142.507 172.88 142.661 172.936 142.78 173.041L146.689 176.947L154.943 168.693C155.001 168.635 155.069 168.589 155.145 168.557C155.22 168.526 155.301 168.51 155.383 168.51C155.464 168.51 155.545 168.526 155.62 168.557C155.696 168.589 155.764 168.635 155.822 168.693Z" fill="white"/>
<path d="M155.314 188.341L142.411 188.341C141.046 188.341 139.939 189.448 139.939 190.813L139.939 203.716C139.939 205.081 141.046 206.188 142.411 206.188L155.314 206.188C156.679 206.188 157.786 205.081 157.786 203.716L157.786 190.813C157.786 189.448 156.679 188.341 155.314 188.341Z" fill="#0CACE3"/>
<path d="M155.314 212.123L142.411 212.123C141.046 212.123 139.939 213.23 139.939 214.595L139.939 227.497C139.939 228.863 141.046 229.969 142.411 229.969L155.314 229.969C156.679 229.969 157.786 228.863 157.786 227.497L157.786 214.595C157.786 213.23 156.679 212.123 155.314 212.123Z" fill="#A0A0A0"/>
<path d="M145.25 218.601C145.262 218.106 145.414 217.623 145.689 217.211C146.01 216.717 146.454 216.316 146.977 216.046C147.583 215.727 148.261 215.567 148.946 215.584C149.583 215.571 150.214 215.703 150.793 215.97C151.294 216.199 151.723 216.563 152.031 217.021C152.318 217.447 152.471 217.95 152.47 218.465C152.478 218.838 152.393 219.208 152.22 219.54C152.065 219.835 151.865 220.104 151.628 220.338C151.406 220.56 150.996 220.936 150.397 221.466C150.259 221.59 150.127 221.722 150.004 221.862C149.918 221.955 149.845 222.059 149.785 222.171C149.737 222.261 149.699 222.356 149.672 222.454C149.645 222.547 149.605 222.71 149.552 222.946C149.546 223.052 149.518 223.156 149.472 223.251C149.425 223.347 149.36 223.432 149.28 223.502C149.2 223.572 149.107 223.625 149.006 223.659C148.906 223.693 148.799 223.706 148.694 223.698C148.577 223.701 148.461 223.681 148.353 223.639C148.244 223.596 148.145 223.533 148.061 223.452C147.971 223.355 147.901 223.24 147.857 223.115C147.813 222.989 147.795 222.856 147.805 222.724C147.797 222.364 147.861 222.006 147.995 221.672C148.113 221.385 148.28 221.122 148.491 220.894C148.756 220.614 149.036 220.347 149.329 220.095C149.638 219.826 149.858 219.623 149.994 219.486C150.126 219.35 150.238 219.195 150.327 219.027C150.42 218.859 150.468 218.67 150.467 218.478C150.47 218.294 150.433 218.112 150.359 217.944C150.285 217.776 150.175 217.625 150.038 217.503C149.733 217.233 149.336 217.091 148.93 217.107C148.718 217.09 148.504 217.116 148.302 217.185C148.101 217.253 147.916 217.363 147.759 217.507C147.468 217.852 147.252 218.254 147.126 218.688C146.96 219.233 146.651 219.503 146.195 219.503C146.068 219.506 145.941 219.482 145.824 219.434C145.706 219.385 145.601 219.312 145.513 219.22C145.43 219.139 145.365 219.043 145.32 218.937C145.275 218.831 145.251 218.717 145.25 218.601ZM148.773 226.513C148.491 226.516 148.217 226.414 148.005 226.227C147.893 226.128 147.806 226.005 147.748 225.867C147.691 225.73 147.665 225.581 147.672 225.432C147.67 225.288 147.699 225.145 147.756 225.014C147.814 224.882 147.898 224.763 148.005 224.667C148.106 224.564 148.228 224.483 148.362 224.429C148.496 224.376 148.639 224.35 148.783 224.354C148.925 224.352 149.066 224.379 149.197 224.432C149.329 224.486 149.448 224.565 149.548 224.666C149.649 224.766 149.728 224.886 149.781 225.017C149.834 225.149 149.86 225.29 149.858 225.432C149.865 225.58 149.839 225.728 149.781 225.865C149.724 226.002 149.636 226.125 149.525 226.224C149.32 226.411 149.052 226.515 148.773 226.513Z" fill="white"/>
<path d="M155.314 164.557L142.411 164.557C141.046 164.557 139.939 165.663 139.939 167.029L139.939 179.931C139.939 181.296 141.046 182.403 142.411 182.403L155.314 182.403C156.679 182.403 157.786 181.296 157.786 179.931L157.786 167.029C157.786 165.663 156.679 164.557 155.314 164.557Z" fill="#0CACE3"/>
<path d="M153.673 169.497C153.758 169.602 153.804 169.733 153.804 169.868C153.804 170.003 153.758 170.134 153.673 170.239L147.438 177.585C147.401 177.633 147.353 177.672 147.299 177.698C147.244 177.725 147.185 177.738 147.124 177.738C147.063 177.738 147.004 177.725 146.949 177.698C146.895 177.672 146.847 177.633 146.81 177.585L143.692 173.926C143.608 173.82 143.563 173.689 143.563 173.555C143.563 173.42 143.608 173.289 143.692 173.184C143.729 173.135 143.777 173.096 143.832 173.069C143.887 173.042 143.947 173.028 144.008 173.028C144.069 173.028 144.13 173.042 144.184 173.069C144.239 173.096 144.287 173.135 144.324 173.184L147.126 176.487L153.048 169.501C153.085 169.452 153.132 169.413 153.187 169.386C153.241 169.359 153.301 169.345 153.362 169.345C153.423 169.345 153.483 169.359 153.538 169.386C153.592 169.413 153.64 169.452 153.677 169.501L153.673 169.497Z" fill="white" stroke="white" stroke-width="1.5" stroke-miterlimit="10"/>
<path d="M153.673 193.441C153.758 193.546 153.804 193.677 153.804 193.812C153.804 193.946 153.758 194.077 153.673 194.182L147.438 201.529C147.401 201.576 147.353 201.615 147.299 201.641C147.244 201.668 147.185 201.682 147.124 201.682C147.063 201.682 147.004 201.668 146.949 201.641C146.895 201.615 146.847 201.576 146.81 201.529L143.692 197.869C143.608 197.763 143.563 197.633 143.563 197.498C143.563 197.363 143.608 197.232 143.692 197.127C143.729 197.079 143.777 197.039 143.832 197.013C143.887 196.986 143.947 196.972 144.008 196.972C144.069 196.972 144.13 196.986 144.184 197.013C144.239 197.039 144.287 197.079 144.324 197.127L147.126 200.431L153.048 193.444C153.085 193.396 153.132 193.356 153.187 193.33C153.241 193.303 153.301 193.289 153.362 193.289C153.423 193.289 153.483 193.303 153.538 193.33C153.592 193.356 153.64 193.396 153.677 193.444L153.673 193.441Z" fill="white" stroke="white" stroke-width="1.5" stroke-miterlimit="10"/>
<circle cx="184.5" cy="414.5" r="112.5" fill="#F9F9F9"/>
<g clip-path="url(#clip0)">
<path d="M266.68 455.192H99.127V462.373H266.68V455.192Z" fill="#00508B"/>
<path d="M188.378 394.98H113.503C112.121 394.98 111 396.101 111 397.483V449.342C111 450.724 112.121 451.845 113.503 451.845H188.378C189.76 451.845 190.881 450.724 190.881 449.342V397.483C190.881 396.101 189.76 394.98 188.378 394.98Z" fill="#A0A0A0"/>
<path d="M196.53 449.874H105.356C104.907 449.874 104.543 450.238 104.543 450.687V454.208C104.543 454.656 104.907 455.02 105.356 455.02H196.53C196.979 455.02 197.343 454.656 197.343 454.208V450.687C197.343 450.238 196.979 449.874 196.53 449.874Z" fill="#B5B5B5"/>
<path d="M185.612 399.043H116.27C115.07 399.043 114.098 400.016 114.098 401.215V443.369C114.098 444.568 115.07 445.541 116.27 445.541H185.612C186.812 445.541 187.784 444.568 187.784 443.369V401.215C187.784 400.016 186.812 399.043 185.612 399.043Z" fill="white"/>
<path d="M129.65 418.385V419.27C129.654 419.364 129.642 419.459 129.616 419.55C129.591 419.623 129.547 419.689 129.49 419.741C129.416 419.804 129.336 419.859 129.251 419.905C128.998 420.05 128.728 420.165 128.448 420.246C128.173 420.32 127.889 420.355 127.605 420.352C127.275 420.356 126.948 420.301 126.638 420.188C126.357 420.086 126.102 419.924 125.89 419.714C125.68 419.495 125.521 419.232 125.423 418.945C125.206 418.305 125.206 417.611 125.423 416.971C125.521 416.687 125.682 416.427 125.894 416.213C126.107 416.002 126.365 415.84 126.648 415.739C126.978 415.624 127.324 415.568 127.673 415.575C127.952 415.57 128.23 415.612 128.496 415.698C128.707 415.765 128.903 415.87 129.076 416.008C129.215 416.119 129.331 416.254 129.418 416.408C129.485 416.522 129.524 416.651 129.531 416.784C129.531 416.84 129.52 416.896 129.497 416.948C129.475 416.999 129.442 417.046 129.401 417.084C129.316 417.165 129.204 417.209 129.087 417.207C129.02 417.205 128.955 417.188 128.896 417.158C128.836 417.127 128.785 417.083 128.745 417.029C128.657 416.886 128.559 416.749 128.452 416.62C128.362 416.52 128.253 416.441 128.131 416.387C127.968 416.318 127.792 416.285 127.615 416.292C127.416 416.288 127.218 416.327 127.034 416.405C126.866 416.477 126.718 416.588 126.601 416.729C126.472 416.88 126.377 417.057 126.324 417.248C126.257 417.469 126.225 417.7 126.228 417.931C126.199 418.378 126.331 418.82 126.601 419.177C126.728 419.322 126.886 419.437 127.063 419.512C127.241 419.588 127.433 419.623 127.625 419.615C127.831 419.616 128.036 419.588 128.233 419.529C128.433 419.469 128.627 419.388 128.81 419.287V418.539H128.072C127.937 418.548 127.801 418.521 127.68 418.46C127.635 418.433 127.598 418.393 127.575 418.346C127.551 418.299 127.541 418.246 127.547 418.194C127.545 418.146 127.554 418.099 127.572 418.055C127.591 418.011 127.62 417.972 127.656 417.941C127.741 417.87 127.849 417.833 127.96 417.839H129.018C129.133 417.835 129.248 417.847 129.36 417.873C129.449 417.896 129.526 417.951 129.578 418.027C129.636 418.137 129.661 418.261 129.65 418.385Z" fill="#4F4F4F"/>
<path d="M132.648 419.854C132.465 420.001 132.263 420.123 132.047 420.216C131.84 420.3 131.618 420.342 131.395 420.339C131.194 420.342 130.995 420.298 130.814 420.209C130.657 420.132 130.524 420.014 130.428 419.867C130.34 419.721 130.294 419.553 130.295 419.382C130.291 419.161 130.371 418.947 130.517 418.781C130.681 418.606 130.896 418.486 131.132 418.44L131.535 418.365L132.091 418.245L132.593 418.112C132.597 417.936 132.55 417.763 132.457 417.614C132.39 417.551 132.311 417.505 132.224 417.477C132.137 417.449 132.045 417.441 131.955 417.453C131.786 417.443 131.617 417.474 131.463 417.545C131.347 417.611 131.25 417.705 131.18 417.818C131.129 417.902 131.073 417.982 131.012 418.057C130.981 418.098 130.91 418.116 130.804 418.116C130.709 418.12 130.615 418.087 130.544 418.023C130.51 417.995 130.482 417.959 130.464 417.918C130.446 417.877 130.437 417.832 130.438 417.788C130.443 417.627 130.499 417.473 130.599 417.347C130.731 417.19 130.904 417.072 131.098 417.006C131.368 416.905 131.656 416.858 131.944 416.866C132.246 416.854 132.547 416.899 132.832 416.999C133.033 417.077 133.197 417.228 133.29 417.422C133.388 417.666 133.433 417.928 133.423 418.191V418.703C133.423 418.843 133.423 419 133.423 419.171C133.425 419.342 133.452 419.513 133.505 419.676C133.545 419.786 133.571 419.901 133.584 420.018C133.582 420.064 133.57 420.11 133.549 420.151C133.527 420.192 133.497 420.228 133.461 420.257C133.384 420.326 133.284 420.365 133.181 420.366C133.131 420.364 133.081 420.351 133.036 420.33C132.991 420.308 132.951 420.277 132.918 420.24C132.811 420.123 132.721 419.994 132.648 419.854ZM132.593 418.611C132.414 418.672 132.23 418.721 132.043 418.758L131.545 418.87C131.448 418.898 131.358 418.947 131.282 419.014C131.239 419.049 131.204 419.094 131.182 419.145C131.16 419.196 131.151 419.252 131.156 419.307C131.153 419.372 131.165 419.436 131.191 419.495C131.216 419.554 131.254 419.606 131.302 419.649C131.408 419.743 131.547 419.792 131.688 419.785C131.852 419.787 132.014 419.748 132.16 419.673C132.292 419.611 132.402 419.511 132.477 419.386C132.568 419.185 132.608 418.964 132.593 418.744V418.611Z" fill="#4F4F4F"/>
<path d="M137.159 418.655V419.796C137.17 419.942 137.126 420.087 137.036 420.202C136.993 420.249 136.94 420.286 136.881 420.31C136.822 420.333 136.758 420.343 136.694 420.339C136.635 420.341 136.576 420.329 136.522 420.306C136.468 420.282 136.419 420.247 136.38 420.202C136.29 420.087 136.246 419.942 136.257 419.796V418.43C136.259 418.262 136.253 418.095 136.237 417.928C136.228 417.82 136.186 417.718 136.117 417.634C136.078 417.593 136.03 417.561 135.977 417.541C135.924 417.521 135.867 417.513 135.81 417.518C135.699 417.504 135.585 417.523 135.486 417.575C135.386 417.627 135.305 417.709 135.253 417.808C135.152 418.073 135.107 418.355 135.12 418.638V419.796C135.13 419.941 135.088 420.086 135.001 420.202C134.96 420.246 134.91 420.28 134.855 420.304C134.8 420.327 134.741 420.339 134.681 420.339C134.622 420.339 134.563 420.327 134.508 420.304C134.453 420.28 134.403 420.246 134.362 420.202C134.271 420.087 134.226 419.942 134.236 419.796V417.341C134.226 417.208 134.266 417.077 134.348 416.972C134.385 416.93 134.43 416.897 134.481 416.876C134.532 416.854 134.587 416.843 134.642 416.845C134.697 416.845 134.751 416.855 134.801 416.875C134.852 416.896 134.897 416.926 134.936 416.965C134.977 417.008 135.008 417.059 135.029 417.115C135.05 417.171 135.059 417.23 135.055 417.289V417.371C135.184 417.207 135.348 417.074 135.533 416.979C135.709 416.892 135.902 416.849 136.097 416.852C136.29 416.847 136.482 416.892 136.653 416.982C136.815 417.073 136.948 417.208 137.036 417.371C137.163 417.21 137.322 417.076 137.504 416.979C137.674 416.893 137.863 416.849 138.054 416.852C138.264 416.847 138.472 416.895 138.658 416.992C138.824 417.079 138.958 417.217 139.041 417.385C139.126 417.62 139.163 417.87 139.15 418.119V419.793C139.161 419.939 139.117 420.084 139.027 420.199C138.984 420.246 138.931 420.283 138.872 420.306C138.813 420.33 138.749 420.34 138.685 420.335C138.626 420.337 138.567 420.325 138.512 420.302C138.457 420.278 138.408 420.243 138.368 420.199C138.277 420.084 138.232 419.939 138.241 419.793V418.365C138.243 418.217 138.236 418.069 138.221 417.921C138.208 417.817 138.162 417.719 138.091 417.641C138.05 417.601 138 417.57 137.946 417.551C137.892 417.532 137.834 417.524 137.777 417.528C137.662 417.529 137.55 417.565 137.456 417.631C137.354 417.698 137.271 417.791 137.217 417.901C137.154 418.147 137.134 418.402 137.159 418.655Z" fill="#4F4F4F"/>
<path d="M142.395 418.805H140.718C140.715 418.984 140.755 419.161 140.834 419.321C140.899 419.457 141.002 419.572 141.13 419.651C141.259 419.731 141.407 419.771 141.558 419.768C141.654 419.77 141.749 419.758 141.841 419.734C141.928 419.706 142.01 419.667 142.087 419.618C142.164 419.569 142.237 419.514 142.306 419.454C142.374 419.396 142.46 419.318 142.569 419.215C142.623 419.175 142.689 419.156 142.757 419.161C142.834 419.156 142.91 419.182 142.968 419.232C142.996 419.258 143.018 419.29 143.033 419.326C143.047 419.361 143.053 419.399 143.05 419.437C143.044 419.533 143.013 419.626 142.962 419.707C142.889 419.824 142.796 419.926 142.685 420.008C142.546 420.112 142.39 420.191 142.224 420.243C142.018 420.309 141.802 420.341 141.585 420.339C141.35 420.353 141.114 420.319 140.892 420.238C140.671 420.157 140.468 420.031 140.298 419.868C140.141 419.695 140.019 419.493 139.941 419.273C139.862 419.053 139.828 418.82 139.84 418.587C139.838 418.348 139.876 418.11 139.953 417.883C140.025 417.674 140.142 417.483 140.294 417.323C140.444 417.171 140.626 417.054 140.827 416.982C141.051 416.895 141.29 416.852 141.531 416.856C141.832 416.848 142.131 416.921 142.395 417.067C142.622 417.197 142.809 417.387 142.934 417.617C143.049 417.827 143.11 418.061 143.112 418.3C143.124 418.38 143.113 418.462 143.08 418.537C143.048 418.611 142.995 418.675 142.927 418.72C142.759 418.789 142.576 418.818 142.395 418.805ZM140.718 418.317H142.272C142.271 418.077 142.188 417.844 142.036 417.658C141.966 417.586 141.881 417.529 141.788 417.491C141.694 417.454 141.594 417.436 141.493 417.44C141.395 417.436 141.297 417.455 141.206 417.493C141.115 417.531 141.034 417.589 140.967 417.661C140.814 417.847 140.726 418.077 140.718 418.317Z" fill="#4F4F4F"/>
<path d="M146.073 415.653H147.278C147.552 415.648 147.825 415.677 148.091 415.739C148.322 415.802 148.534 415.919 148.709 416.08C148.96 416.319 149.155 416.611 149.279 416.935C149.403 417.259 149.453 417.606 149.426 417.952C149.429 418.206 149.405 418.46 149.355 418.71C149.311 418.925 149.236 419.134 149.133 419.328C149.032 419.512 148.901 419.678 148.747 419.82C148.627 419.93 148.49 420.02 148.34 420.086C148.191 420.155 148.032 420.203 147.869 420.229C147.679 420.258 147.488 420.272 147.296 420.27H146.08C145.948 420.278 145.816 420.251 145.697 420.192C145.656 420.169 145.62 420.139 145.591 420.102C145.562 420.065 145.542 420.022 145.53 419.977C145.5 419.857 145.486 419.734 145.489 419.611V416.234C145.474 416.156 145.479 416.075 145.502 415.998C145.526 415.922 145.568 415.853 145.625 415.797C145.681 415.74 145.751 415.699 145.827 415.676C145.903 415.652 145.984 415.648 146.063 415.664L146.073 415.653ZM146.435 416.391V419.519H147.142C147.296 419.519 147.418 419.519 147.504 419.519C147.598 419.508 147.691 419.486 147.78 419.454C147.87 419.425 147.953 419.377 148.023 419.314C148.337 419.051 148.491 418.597 148.491 417.948C148.514 417.595 148.443 417.241 148.286 416.924C148.178 416.721 147.998 416.566 147.78 416.49C147.543 416.424 147.296 416.393 147.05 416.398L146.435 416.391Z" fill="#4F4F4F"/>
<path d="M152.59 418.805H150.913C150.913 418.984 150.952 419.16 151.029 419.321C151.098 419.461 151.204 419.58 151.337 419.663C151.464 419.738 151.609 419.777 151.757 419.775C151.851 419.777 151.946 419.765 152.037 419.741C152.124 419.714 152.206 419.675 152.283 419.625C152.36 419.575 152.434 419.52 152.505 419.461C152.57 419.403 152.658 419.325 152.764 419.222C152.818 419.182 152.885 419.163 152.952 419.167C153.03 419.164 153.107 419.189 153.167 419.239C153.195 419.265 153.217 419.297 153.231 419.332C153.246 419.368 153.252 419.406 153.249 419.444C153.243 419.541 153.211 419.634 153.157 419.714C153.085 419.83 152.993 419.932 152.884 420.014C152.743 420.118 152.586 420.198 152.419 420.25C152.213 420.316 151.997 420.348 151.781 420.346C151.546 420.36 151.31 420.325 151.089 420.244C150.869 420.163 150.667 420.037 150.497 419.874C150.338 419.702 150.216 419.501 150.137 419.281C150.058 419.061 150.023 418.827 150.036 418.594C150.033 418.355 150.071 418.117 150.148 417.89C150.222 417.682 150.338 417.491 150.49 417.33C150.639 417.178 150.822 417.061 151.023 416.989C151.248 416.901 151.488 416.859 151.729 416.862C152.03 416.854 152.327 416.928 152.59 417.074C152.817 417.204 153.004 417.394 153.13 417.624C153.244 417.833 153.305 418.068 153.307 418.307C153.319 418.387 153.308 418.469 153.276 418.544C153.243 418.618 153.19 418.681 153.123 418.727C152.954 418.794 152.771 418.82 152.59 418.805ZM150.913 418.317H152.467C152.466 418.077 152.383 417.844 152.231 417.658C152.161 417.586 152.077 417.529 151.983 417.491C151.89 417.453 151.789 417.436 151.689 417.44C151.59 417.436 151.492 417.455 151.401 417.493C151.31 417.531 151.229 417.589 151.163 417.662C151.01 417.847 150.922 418.077 150.913 418.317Z" fill="#4F4F4F"/>
<path d="M154.468 417.385L155.151 419.332L155.899 417.3C155.937 417.177 155.996 417.062 156.073 416.958C156.105 416.923 156.145 416.895 156.189 416.877C156.234 416.86 156.281 416.852 156.329 416.856C156.433 416.854 156.534 416.894 156.609 416.965C156.645 416.997 156.673 417.037 156.693 417.081C156.712 417.125 156.722 417.173 156.722 417.221C156.721 417.266 156.714 417.311 156.701 417.354C156.701 417.402 156.674 417.45 156.657 417.494C156.64 417.539 156.616 417.59 156.595 417.645L155.772 419.694L155.68 419.919C155.651 420.001 155.609 420.078 155.557 420.148C155.516 420.211 155.46 420.262 155.393 420.298C155.318 420.335 155.235 420.354 155.151 420.353C155.047 420.359 154.945 420.328 154.861 420.267C154.795 420.219 154.74 420.158 154.7 420.086C154.666 420.021 154.608 419.888 154.526 419.694L153.71 417.675L153.652 417.522C153.631 417.472 153.614 417.421 153.601 417.368C153.588 417.325 153.581 417.28 153.58 417.235C153.581 417.173 153.6 417.112 153.635 417.061C153.671 417.002 153.722 416.952 153.782 416.917C153.844 416.882 153.915 416.863 153.986 416.863C154.042 416.858 154.097 416.866 154.148 416.888C154.2 416.909 154.245 416.943 154.28 416.986C154.357 417.112 154.42 417.246 154.468 417.385Z" fill="#4F4F4F"/>
<path d="M159.66 418.806H157.984C157.981 418.984 158.021 419.161 158.1 419.321C158.167 419.462 158.274 419.581 158.407 419.663C158.533 419.738 158.677 419.777 158.824 419.775C158.919 419.777 159.015 419.765 159.107 419.741C159.194 419.714 159.276 419.675 159.353 419.625C159.43 419.576 159.503 419.521 159.571 419.461C159.64 419.403 159.729 419.325 159.834 419.222C159.888 419.182 159.955 419.163 160.022 419.167C160.1 419.164 160.177 419.189 160.237 419.239C160.265 419.265 160.287 419.297 160.302 419.332C160.316 419.368 160.322 419.406 160.319 419.444C160.313 419.541 160.281 419.634 160.227 419.714C160.155 419.831 160.061 419.933 159.951 420.014C159.811 420.118 159.655 420.198 159.49 420.25C159.283 420.316 159.068 420.348 158.851 420.346C158.615 420.36 158.379 420.326 158.158 420.245C157.936 420.164 157.734 420.038 157.564 419.874C157.406 419.702 157.285 419.5 157.206 419.28C157.128 419.06 157.094 418.827 157.106 418.594C157.104 418.355 157.142 418.117 157.219 417.89C157.291 417.681 157.407 417.49 157.56 417.33C157.71 417.178 157.892 417.061 158.093 416.989C158.317 416.902 158.556 416.859 158.796 416.862C159.098 416.854 159.397 416.927 159.66 417.074C159.888 417.204 160.074 417.394 160.2 417.624C160.314 417.833 160.375 418.068 160.377 418.307C160.389 418.387 160.378 418.469 160.346 418.544C160.313 418.618 160.26 418.681 160.193 418.727C160.024 418.794 159.842 418.82 159.66 418.806ZM157.984 418.317H159.537C159.537 418.077 159.453 417.844 159.302 417.658C159.232 417.586 159.147 417.529 159.054 417.491C158.96 417.453 158.86 417.436 158.759 417.44C158.66 417.436 158.562 417.455 158.471 417.493C158.381 417.531 158.299 417.589 158.233 417.662C158.08 417.847 157.992 418.077 157.984 418.317Z" fill="#4F4F4F"/>
<path d="M161.089 419.816V416.094C161.079 415.954 161.12 415.816 161.206 415.705C161.244 415.661 161.291 415.627 161.344 415.604C161.397 415.582 161.455 415.572 161.513 415.575C161.572 415.572 161.63 415.582 161.685 415.604C161.739 415.627 161.788 415.661 161.827 415.705C161.916 415.814 161.959 415.954 161.947 416.094V419.816C161.957 419.957 161.914 420.097 161.827 420.209C161.787 420.252 161.738 420.285 161.684 420.308C161.63 420.33 161.571 420.34 161.513 420.339C161.455 420.34 161.397 420.328 161.344 420.305C161.291 420.281 161.243 420.246 161.206 420.202C161.121 420.092 161.08 419.955 161.089 419.816Z" fill="#4F4F4F"/>
<path d="M166.059 418.594C166.063 418.835 166.022 419.074 165.94 419.3C165.867 419.508 165.75 419.698 165.598 419.857C165.444 420.008 165.26 420.124 165.059 420.199C164.833 420.286 164.593 420.329 164.352 420.325C164.111 420.327 163.873 420.285 163.648 420.199C163.447 420.116 163.265 419.995 163.112 419.84C162.961 419.682 162.844 419.493 162.771 419.287C162.691 419.06 162.651 418.821 162.655 418.58C162.651 418.337 162.691 418.095 162.774 417.866C162.848 417.66 162.965 417.472 163.116 417.313C163.269 417.162 163.453 417.045 163.655 416.972C164.11 416.803 164.61 416.803 165.065 416.972C165.27 417.051 165.456 417.173 165.609 417.33C165.762 417.488 165.88 417.676 165.953 417.883C166.03 418.112 166.066 418.352 166.059 418.594ZM165.199 418.594C165.218 418.303 165.136 418.015 164.966 417.777C164.894 417.683 164.8 417.607 164.693 417.556C164.585 417.505 164.467 417.48 164.348 417.484C164.191 417.481 164.036 417.526 163.904 417.613C163.769 417.71 163.666 417.844 163.607 417.999C163.536 418.189 163.501 418.391 163.505 418.594C163.501 418.794 163.535 418.994 163.607 419.181C163.665 419.336 163.767 419.47 163.901 419.567C164.067 419.676 164.268 419.72 164.464 419.691C164.661 419.661 164.84 419.56 164.966 419.406C165.13 419.168 165.207 418.881 165.185 418.594H165.199Z" fill="#4F4F4F"/>
<path d="M167.514 417.34V417.443C167.651 417.265 167.821 417.116 168.016 417.006C168.199 416.911 168.402 416.863 168.607 416.866C168.865 416.863 169.119 416.935 169.338 417.07C169.567 417.215 169.75 417.423 169.864 417.668C170.001 417.958 170.067 418.276 170.058 418.597C170.061 418.844 170.023 419.09 169.946 419.324C169.88 419.528 169.776 419.717 169.638 419.881C169.512 420.028 169.355 420.144 169.177 420.222C168.999 420.305 168.804 420.347 168.607 420.345C168.392 420.352 168.179 420.301 167.989 420.199C167.806 420.082 167.645 419.934 167.514 419.761V421.052C167.514 421.428 167.378 421.616 167.101 421.616C167.04 421.623 166.979 421.613 166.923 421.588C166.867 421.562 166.819 421.522 166.784 421.472C166.723 421.339 166.696 421.192 166.705 421.045V417.34C166.694 417.21 166.732 417.079 166.811 416.975C166.847 416.934 166.892 416.902 166.942 416.88C166.992 416.859 167.047 416.849 167.101 416.852C167.157 416.85 167.213 416.86 167.264 416.882C167.315 416.903 167.361 416.936 167.398 416.978C167.441 417.028 167.473 417.086 167.492 417.148C167.512 417.21 167.52 417.275 167.514 417.34ZM169.195 418.587C169.2 418.388 169.165 418.191 169.092 418.006C169.034 417.856 168.934 417.726 168.805 417.631C168.687 417.546 168.545 417.501 168.399 417.501C168.284 417.499 168.17 417.524 168.066 417.572C167.962 417.621 167.871 417.692 167.798 417.781C167.621 418.017 167.534 418.309 167.555 418.604C167.538 418.89 167.624 419.172 167.798 419.399C167.869 419.49 167.961 419.563 168.065 419.613C168.169 419.662 168.283 419.688 168.399 419.686C168.541 419.685 168.679 419.641 168.795 419.56C168.925 419.466 169.026 419.337 169.085 419.188C169.166 418.994 169.203 418.786 169.195 418.576V418.587Z" fill="#4F4F4F"/>
<path d="M173.139 418.805H171.462C171.461 418.984 171.501 419.16 171.578 419.321C171.647 419.461 171.753 419.58 171.886 419.663C172.013 419.738 172.158 419.777 172.306 419.775C172.4 419.777 172.494 419.765 172.586 419.741C172.672 419.714 172.755 419.675 172.832 419.625C172.909 419.575 172.983 419.52 173.053 419.461C173.118 419.403 173.207 419.325 173.313 419.222C173.367 419.182 173.434 419.163 173.501 419.167C173.579 419.164 173.656 419.189 173.716 419.239C173.744 419.265 173.766 419.297 173.78 419.332C173.794 419.368 173.8 419.406 173.798 419.444C173.791 419.541 173.76 419.634 173.706 419.714C173.634 419.83 173.541 419.932 173.433 420.014C173.292 420.118 173.135 420.198 172.968 420.25C172.762 420.316 172.546 420.348 172.33 420.346C172.095 420.36 171.859 420.325 171.638 420.244C171.417 420.163 171.216 420.037 171.046 419.874C170.887 419.702 170.765 419.501 170.686 419.281C170.606 419.061 170.572 418.827 170.585 418.594C170.582 418.355 170.62 418.117 170.697 417.89C170.771 417.682 170.887 417.491 171.039 417.33C171.188 417.178 171.37 417.061 171.571 416.989C171.797 416.901 172.037 416.859 172.278 416.862C172.579 416.854 172.876 416.928 173.139 417.074C173.366 417.204 173.553 417.394 173.678 417.624C173.793 417.833 173.854 418.068 173.856 418.307C173.868 418.387 173.857 418.469 173.824 418.544C173.792 418.618 173.739 418.681 173.672 418.727C173.502 418.794 173.32 418.82 173.139 418.805ZM171.462 418.317H173.016C173.015 418.077 172.932 417.844 172.78 417.658C172.71 417.586 172.626 417.529 172.532 417.491C172.439 417.453 172.338 417.436 172.237 417.44C172.139 417.436 172.041 417.455 171.95 417.493C171.859 417.531 171.778 417.589 171.711 417.662C171.558 417.847 171.471 418.077 171.462 418.317Z" fill="#4F4F4F"/>
<path d="M175.422 419.099V419.816C175.433 419.958 175.389 420.099 175.299 420.209C175.259 420.251 175.21 420.285 175.156 420.307C175.102 420.329 175.044 420.34 174.985 420.339C174.928 420.34 174.871 420.329 174.819 420.306C174.766 420.283 174.719 420.249 174.681 420.206C174.595 420.095 174.552 419.956 174.562 419.816V417.426C174.562 417.04 174.702 416.845 174.982 416.845C175.041 416.84 175.1 416.849 175.154 416.873C175.207 416.897 175.254 416.935 175.289 416.982C175.36 417.103 175.395 417.241 175.392 417.381C175.473 417.23 175.58 417.095 175.709 416.982C175.831 416.885 175.984 416.836 176.14 416.845C176.324 416.846 176.504 416.893 176.665 416.982C176.739 417.01 176.802 417.059 176.847 417.123C176.893 417.186 176.919 417.262 176.922 417.341C176.923 417.389 176.914 417.437 176.895 417.482C176.876 417.527 176.848 417.567 176.812 417.6C176.749 417.662 176.665 417.698 176.577 417.699C176.498 417.689 176.421 417.669 176.348 417.641C176.245 417.606 176.138 417.586 176.03 417.583C175.919 417.578 175.81 417.614 175.723 417.682C175.634 417.761 175.57 417.865 175.538 417.979C175.49 418.129 175.459 418.283 175.446 418.44C175.429 418.625 175.422 418.843 175.422 419.099Z" fill="#4F4F4F"/>
<path d="M161.993 425.639H139.892C137.242 425.639 135.094 427.787 135.094 430.437V430.44C135.094 433.09 137.242 435.238 139.892 435.238H161.993C164.643 435.238 166.791 433.09 166.791 430.44V430.437C166.791 427.787 164.643 425.639 161.993 425.639Z" fill="#0CACE3"/>
<path d="M163.075 429.634C163.023 429.688 162.988 429.756 162.975 429.829C162.961 429.903 162.97 429.979 163 430.047L167.186 439.462C167.214 439.53 167.261 439.588 167.322 439.629C167.383 439.67 167.455 439.692 167.528 439.692C167.601 439.692 167.673 439.67 167.734 439.629C167.794 439.588 167.842 439.53 167.869 439.462L169.379 435.935L172.889 434.415C172.957 434.387 173.015 434.34 173.056 434.279C173.097 434.218 173.119 434.147 173.119 434.073C173.119 434 173.097 433.929 173.056 433.868C173.015 433.807 172.957 433.76 172.889 433.732L163.474 429.549C163.406 429.517 163.33 429.508 163.256 429.521C163.182 429.534 163.114 429.57 163.061 429.624L163.075 429.634Z" fill="#4F4F4F"/>
<path d="M168.678 434.275L167.916 435.124L173.002 439.687L173.764 438.838L168.678 434.275Z" fill="#4F4F4F"/>
<path d="M144.235 432.025L144.017 431.447H142.156L141.937 432.038C141.883 432.202 141.81 432.359 141.719 432.506C141.682 432.549 141.636 432.583 141.583 432.604C141.531 432.625 141.474 432.632 141.418 432.626C141.36 432.626 141.303 432.615 141.249 432.593C141.196 432.57 141.148 432.537 141.107 432.496C141.066 432.46 141.032 432.415 141.008 432.365C140.985 432.315 140.972 432.261 140.971 432.206C140.971 432.139 140.982 432.073 141.005 432.011C141.025 431.943 141.059 431.85 141.107 431.731L142.285 428.739C142.32 428.654 142.361 428.548 142.405 428.429C142.446 428.324 142.497 428.223 142.559 428.128C142.612 428.049 142.683 427.983 142.767 427.937C142.868 427.888 142.979 427.862 143.091 427.862C143.204 427.862 143.315 427.888 143.416 427.937C143.499 427.984 143.571 428.048 143.627 428.125C143.68 428.205 143.725 428.289 143.761 428.378C143.798 428.466 143.846 428.582 143.901 428.719L145.106 431.693C145.18 431.848 145.227 432.014 145.246 432.185C145.245 432.241 145.233 432.295 145.21 432.346C145.187 432.396 145.154 432.441 145.113 432.479C145.071 432.522 145.021 432.555 144.966 432.578C144.911 432.601 144.852 432.613 144.792 432.612C144.726 432.613 144.661 432.6 144.601 432.574C144.549 432.549 144.505 432.511 144.471 432.465C144.423 432.402 144.384 432.333 144.355 432.26L144.235 432.025ZM142.388 430.747H143.754L143.071 428.845L142.388 430.747Z" fill="white"/>
<path d="M147.704 430.748H146.85V432.052C146.861 432.205 146.814 432.356 146.717 432.475C146.675 432.523 146.622 432.561 146.563 432.586C146.504 432.611 146.44 432.622 146.376 432.619C146.312 432.621 146.248 432.61 146.189 432.585C146.13 432.56 146.077 432.523 146.034 432.475C145.942 432.357 145.896 432.209 145.908 432.059V428.507C145.899 428.428 145.907 428.348 145.931 428.272C145.955 428.196 145.995 428.126 146.048 428.067C146.176 427.967 146.337 427.919 146.499 427.934H147.694C147.968 427.925 148.243 427.952 148.51 428.016C148.692 428.064 148.86 428.152 149.002 428.275C149.139 428.398 149.245 428.551 149.313 428.722C149.387 428.912 149.424 429.113 149.422 429.317C149.435 429.516 149.403 429.716 149.327 429.9C149.251 430.085 149.134 430.25 148.985 430.382C148.614 430.65 148.161 430.779 147.704 430.748ZM147.479 428.634H146.85V430.044H147.479C147.665 430.049 147.85 430.024 148.029 429.972C148.165 429.939 148.286 429.859 148.37 429.747C148.451 429.626 148.492 429.483 148.486 429.337C148.494 429.154 148.43 428.975 148.309 428.839C148.067 428.67 147.771 428.597 147.479 428.634Z" fill="white"/>
<path d="M151.997 430.747H151.143V432.052C151.153 432.204 151.107 432.355 151.013 432.475C150.97 432.523 150.917 432.56 150.858 432.585C150.799 432.609 150.735 432.621 150.672 432.619C150.608 432.622 150.544 432.61 150.485 432.586C150.425 432.561 150.373 432.523 150.33 432.475C150.235 432.358 150.188 432.209 150.2 432.059V428.507C150.192 428.428 150.2 428.348 150.225 428.272C150.249 428.197 150.288 428.127 150.34 428.067C150.468 427.967 150.629 427.92 150.791 427.934H151.986C152.262 427.925 152.537 427.952 152.806 428.015C152.986 428.064 153.153 428.152 153.294 428.275C153.432 428.397 153.539 428.551 153.605 428.722C153.679 428.911 153.716 429.113 153.714 429.317C153.727 429.515 153.695 429.715 153.62 429.899C153.545 430.084 153.429 430.249 153.281 430.382C152.908 430.649 152.454 430.778 151.997 430.747ZM151.771 428.634H151.143V430.044H151.771C151.958 430.049 152.145 430.024 152.324 429.972C152.46 429.937 152.58 429.858 152.666 429.747C152.747 429.626 152.788 429.483 152.782 429.337C152.789 429.154 152.724 428.975 152.601 428.838C152.359 428.67 152.064 428.597 151.771 428.634Z" fill="white"/>
<path d="M155.417 428.422V431.775H157.309C157.433 431.766 157.555 431.806 157.651 431.885C157.691 431.918 157.723 431.961 157.745 432.009C157.766 432.057 157.776 432.109 157.774 432.161C157.776 432.213 157.766 432.264 157.745 432.312C157.725 432.359 157.693 432.401 157.654 432.434C157.557 432.51 157.436 432.548 157.313 432.54H155.059C154.98 432.556 154.9 432.552 154.823 432.528C154.747 432.505 154.677 432.464 154.621 432.407C154.564 432.351 154.522 432.282 154.498 432.206C154.475 432.129 154.47 432.048 154.485 431.97V428.422C154.474 428.268 154.52 428.116 154.615 427.995C154.658 427.948 154.711 427.911 154.77 427.887C154.829 427.863 154.893 427.852 154.956 427.855C155.02 427.853 155.083 427.865 155.142 427.889C155.201 427.913 155.254 427.949 155.298 427.995C155.389 428.118 155.432 428.27 155.417 428.422Z" fill="white"/>
<path d="M158.608 432.052V430.59L157.481 428.845C157.405 428.726 157.336 428.603 157.272 428.476C157.236 428.405 157.215 428.327 157.211 428.248C157.211 428.195 157.222 428.143 157.244 428.095C157.265 428.048 157.297 428.005 157.337 427.971C157.378 427.933 157.426 427.903 157.478 427.883C157.53 427.863 157.585 427.853 157.641 427.855C157.695 427.851 157.748 427.859 157.798 427.878C157.848 427.897 157.894 427.926 157.931 427.964C158.044 428.098 158.143 428.242 158.229 428.394L159.093 429.795L159.96 428.394L160.093 428.179C160.129 428.122 160.169 428.067 160.213 428.015C160.25 427.965 160.299 427.924 160.356 427.896C160.416 427.867 160.481 427.853 160.547 427.855C160.602 427.853 160.656 427.863 160.706 427.883C160.757 427.903 160.802 427.933 160.841 427.971C160.878 428.004 160.908 428.044 160.928 428.09C160.948 428.135 160.958 428.184 160.957 428.234C160.956 428.319 160.936 428.403 160.899 428.48C160.837 428.597 160.768 428.711 160.694 428.821L159.54 430.59V432.052C159.551 432.205 159.505 432.358 159.41 432.479C159.366 432.525 159.313 432.561 159.254 432.585C159.196 432.609 159.132 432.621 159.069 432.619C159.005 432.622 158.941 432.612 158.882 432.587C158.823 432.563 158.77 432.526 158.727 432.479C158.634 432.357 158.591 432.204 158.608 432.052Z" fill="white"/>
<path d="M237.912 355.934C237.912 355.934 237.335 355.22 236.936 352.239C236.536 349.258 236.355 348.725 236.444 346.546C236.533 344.368 237.247 341.834 238.134 340.454C239.022 339.075 240.45 337.473 241.293 337.162C242.137 336.851 242.406 336.749 242.406 336.749C242.406 336.749 242.748 336.927 243.431 337.948C244.114 338.969 246.235 341.885 247.078 344.187C247.921 346.488 248.591 347.557 248.635 349.425C248.68 351.293 248.635 352.895 248.635 352.895C249.217 352.378 249.878 351.958 250.592 351.648C252.618 350.64 254.798 349.979 257.043 349.691C258.68 349.474 260.329 349.36 261.981 349.35C263.227 349.35 264.825 349.306 264.825 349.306C265.011 350.544 265.011 351.803 264.825 353.041C264.477 355.063 263.736 356.997 262.647 358.734C261.622 360.336 259.133 362.337 256.954 363.173C254.775 364.01 251.394 364.505 250.37 364.539C249.345 364.574 247.703 364.809 247.703 364.809L237.912 355.934Z" fill="#333333"/>
<path d="M219.939 421.428C240.391 421.428 256.97 404.849 256.97 384.397C256.97 363.945 240.391 347.366 219.939 347.366C199.488 347.366 182.908 363.945 182.908 384.397C182.908 404.849 199.488 421.428 219.939 421.428Z" fill="#333333"/>
<path d="M219.37 421.428C239.159 421.428 255.202 405.974 255.202 386.91C255.202 367.847 239.159 352.393 219.37 352.393C199.58 352.393 183.537 367.847 183.537 386.91C183.537 405.974 199.58 421.428 219.37 421.428Z" fill="#1C1C1C"/>
<path d="M220.458 396.851C220.458 396.851 234.702 397.326 239.602 395.615C244.502 393.904 251.213 390.1 246.623 383.253C242.033 376.406 228.237 374.6 225.645 374.504C223.053 374.408 210.084 373.821 201.01 377.547C191.937 381.272 191.578 389.434 194.863 392.098C198.149 394.761 202.287 396.971 211.364 396.913L220.458 396.851Z" fill="#EFB892"/>
<path d="M220.458 396.851C220.458 396.851 234.702 397.265 239.602 395.776C244.502 394.287 251.213 390.974 246.623 385.012C242.033 379.05 228.237 377.479 225.645 377.397C223.053 377.315 210.084 376.816 201.01 380.047C191.937 383.277 191.578 390.394 194.863 392.713C198.149 395.031 202.287 396.957 211.364 396.906L220.458 396.851Z" fill="#FFC8A1"/>
<path d="M236.267 388.604C235.871 387.879 235.251 387.302 234.499 386.959C233.748 386.615 232.906 386.525 232.099 386.7C231.291 386.875 230.563 387.307 230.021 387.931C229.48 388.555 229.155 389.337 229.095 390.161L227.122 390.592C227.104 389.253 227.549 387.949 228.383 386.901C229.216 385.853 230.386 385.125 231.695 384.841C233.003 384.557 234.369 384.734 235.562 385.342C236.755 385.95 237.701 386.952 238.24 388.177L236.267 388.604Z" fill="black"/>
<path d="M204.648 389.338C205.042 388.611 205.662 388.031 206.414 387.686C207.166 387.342 208.009 387.25 208.818 387.426C209.626 387.601 210.356 388.034 210.897 388.66C211.438 389.286 211.762 390.07 211.819 390.895L213.796 391.326C213.817 389.985 213.372 388.679 212.539 387.629C211.706 386.578 210.535 385.849 209.225 385.564C207.915 385.279 206.546 385.457 205.352 386.066C204.158 386.676 203.212 387.68 202.674 388.908L204.648 389.338Z" fill="black"/>
<path d="M166.316 392.169C170.906 392.169 174.628 388.448 174.628 383.857C174.628 379.267 170.906 375.545 166.316 375.545C161.725 375.545 158.004 379.267 158.004 383.857C158.004 388.448 161.725 392.169 166.316 392.169Z" fill="#1C1C1C"/>
<path d="M258.404 454.42C262.994 454.42 266.716 450.698 266.716 446.108C266.716 441.517 262.994 437.796 258.404 437.796C253.813 437.796 250.092 441.517 250.092 446.108C250.092 450.698 253.813 454.42 258.404 454.42Z" fill="#1C1C1C"/>
<path d="M172.786 384.585C177.659 387.283 197.879 414.636 197.879 414.636H237.089C252.797 419.239 263.1 439.336 263.1 439.336L250.096 444.714C250.096 444.714 248.621 437.284 239.698 435.836C239.698 435.836 244.605 453.918 244.731 467.594C244.858 481.271 246.633 486.789 249.423 487.52C252.213 488.251 250.014 490.279 246.35 490.027C242.686 489.774 234.077 489.521 234.077 489.521C234.077 489.521 231.16 488.633 231.54 484.955C231.919 481.278 228.551 462.677 218.136 462.803C207.721 462.929 206.58 476.62 205.31 483.716C204.039 490.812 204.043 489.716 201.509 490.074C198.975 490.433 183.892 491.956 186.934 488.787C189.977 485.618 189.973 486.632 190.1 482.323C190.226 478.013 191.749 459.316 192.763 452.695C193.778 446.074 195.273 435.849 195.273 435.849C195.273 435.849 164.976 395.349 165.441 392.412" fill="#1C1C1C"/>
<path d="M201.306 444.076C200.787 444.492 201.306 450.059 201.306 450.059C201.306 450.059 198.028 450.479 196.304 450.059C194.579 449.639 196.304 444.076 196.304 444.076H201.306Z" fill="#0CACE3"/>
<path d="M204.742 450.492C206.311 450.492 207.583 448.674 207.583 446.432C207.583 444.189 206.311 442.372 204.742 442.372C203.172 442.372 201.9 444.189 201.9 446.432C201.9 448.674 203.172 450.492 204.742 450.492Z" fill="#0CACE3"/>
<path d="M202.619 450.492C202.619 450.492 204.327 450.789 204.06 452.148C203.794 453.508 200.891 461.393 199.778 460.71C198.665 460.027 194.857 457.868 196.64 455.83C198.422 453.791 202.619 450.492 202.619 450.492Z" fill="#0CACE3"/>
<path d="M207.818 451.278C207.818 451.278 206.298 450.465 205.673 451.694C205.048 452.924 202.501 460.945 203.788 461.089C205.075 461.232 209.419 461.871 209.252 459.169C209.085 456.468 207.818 451.278 207.818 451.278Z" fill="#0CACE3"/>
<path d="M239.478 449.69C240.322 449.663 238.454 444.257 238.454 444.257C236.237 443.85 208.188 444.257 208.188 444.257C208.188 444.257 208.529 449.014 208.188 449.69H239.478Z" fill="#0CACE3"/>
</g>
<circle cx="231.5" cy="98.5" r="98.5" fill="#F9F9F9"/>
<path d="M259.141 40.0304C259.141 40.0304 258.64 39.4539 258.254 36.9318C257.869 34.4097 257.71 33.9701 257.75 32.1254C257.79 30.2806 258.352 28.126 259.083 26.9442C259.815 25.7624 260.993 24.3897 261.703 24.1123C262.412 23.8348 262.636 23.752 262.636 23.752C262.636 23.752 262.938 23.8961 263.518 24.7536C264.099 25.6111 265.951 28.0359 266.704 29.9672C267.457 31.8984 268.033 32.7919 268.102 34.3736C268.17 35.9554 268.156 37.3065 268.156 37.3065C268.641 36.8625 269.193 36.4977 269.791 36.2256C271.488 35.3404 273.321 34.7461 275.214 34.4673C276.594 34.2597 277.987 34.1393 279.383 34.107C280.435 34.0854 281.789 34.0241 281.789 34.0241C281.963 35.069 281.982 36.1335 281.847 37.184C281.584 38.8978 280.989 40.5439 280.096 42.03C279.256 43.4028 277.181 45.1322 275.351 45.8817C273.563 46.5334 271.702 46.9607 269.809 47.1535C268.945 47.2076 267.554 47.4201 267.554 47.4201L259.141 40.0304Z" fill="#333333"/>
<path d="M244.398 95.694C261.692 95.694 275.712 81.6743 275.712 64.3802C275.712 47.0861 261.692 33.0664 244.398 33.0664C227.104 33.0664 213.084 47.0861 213.084 64.3802C213.084 81.6743 227.104 95.694 244.398 95.694Z" fill="#333333"/>
<path d="M244.494 95.7058C261.226 95.3932 274.546 82.0743 274.245 65.957C273.944 49.8397 260.136 37.0274 243.403 37.3399C226.671 37.6524 213.351 50.9714 213.652 67.0887C213.954 83.206 227.762 96.0183 244.494 95.7058Z" fill="#1C1C1C"/>
<path d="M245.058 76.2766C245.058 76.2766 257.113 76.482 261.224 74.8354C265.335 73.1888 270.952 69.6471 266.95 63.5111C262.947 57.3752 251.258 55.9448 249.064 55.9052C246.87 55.8655 235.899 55.5449 228.289 59.0578C220.68 62.5708 220.517 69.9894 223.353 72.3529C226.189 74.7165 229.716 76.6766 237.387 76.4604L245.058 76.2766Z" fill="#935124"/>
<path d="M244.407 76.2729C244.407 76.2729 256.02 76.4278 259.986 75.001C263.953 73.5742 269.354 70.4684 265.521 65.1287C261.687 59.7891 250.413 58.5749 248.302 58.5496C246.191 58.5244 235.616 58.2614 228.28 61.3312C220.944 64.4009 220.775 70.8647 223.502 72.9185C226.23 74.9722 229.627 76.6548 237.014 76.4674L244.407 76.2729Z" fill="#A25D28"/>
<path d="M257.122 72.2635C258.77 72.2635 260.105 70.9278 260.105 69.2802C260.105 67.6325 258.77 66.2969 257.122 66.2969C255.474 66.2969 254.139 67.6325 254.139 69.2802C254.139 70.9278 255.474 72.2635 257.122 72.2635Z" fill="#1C1C1C"/>
<path d="M239.232 70.1155C238.893 69.5081 238.368 69.0258 237.734 68.7398C237.1 68.4537 236.39 68.3791 235.711 68.5269C235.031 68.6747 234.417 69.0371 233.959 69.5606C233.501 70.0841 233.224 70.7409 233.168 71.4342L231.496 71.7945C231.465 70.6538 231.833 69.538 232.537 68.6398C233.241 67.7416 234.236 67.1175 235.351 66.8753C236.466 66.633 237.631 66.7879 238.644 67.313C239.657 67.8382 240.455 68.7007 240.9 69.7516L239.232 70.1155Z" fill="black"/>
<path d="M226.883 91.8813C226.883 91.8813 212.947 103.688 211.21 110.419C209.474 117.149 172.121 148.625 172.121 148.625C172.121 148.625 174.078 169.472 179.071 163.398C184.065 157.323 193.188 151.021 197.53 149.068C201.871 147.116 218.593 135.604 221.85 135.82C225.107 136.036 231.837 149.285 230.537 155.799C229.236 162.313 253.848 155.147 253.848 155.147C253.848 155.147 257.898 153.194 252.252 149.721C246.606 146.247 239.642 137.348 243.349 132.134C243.349 132.134 260.107 114.544 260.067 109.331L261.67 96.8679C261.407 96.8103 258.5 92.4903 245.536 92.2236C232.572 91.957 226.883 91.8813 226.883 91.8813Z" fill="#1C1C1C"/>
<path d="M266.876 117.585C271.572 117.585 275.379 113.778 275.379 109.082C275.379 104.386 271.572 100.579 266.876 100.579C262.18 100.579 258.373 104.386 258.373 109.082C258.373 113.778 262.18 117.585 266.876 117.585Z" fill="#1C1C1C"/>
<path d="M221.38 111.875C220.328 112.956 218.807 116.079 218.807 116.079C218.807 116.079 216.285 115.175 215.478 114.278C214.671 113.381 217.82 109.979 217.82 109.979L221.38 111.875Z" fill="#0CACE3"/>
<path d="M243.898 128.981C241.599 123.094 228.484 116.144 228.484 116.144C228.484 116.144 227.014 119.837 226.254 120.107L243.898 128.981Z" fill="#0CACE3"/>
<path d="M225.864 117.43C226.865 115.82 226.763 113.946 225.636 113.245C224.509 112.544 222.784 113.281 221.782 114.891C220.781 116.502 220.882 118.375 222.009 119.076C223.136 119.777 224.862 119.04 225.864 117.43Z" fill="#0CACE3"/>
<path d="M220.479 118.129C220.479 118.129 221.56 119.098 220.775 119.959C219.989 120.82 214.361 125.18 213.871 124.2C213.381 123.22 211.609 119.963 213.796 119.296C215.983 118.63 220.479 118.129 220.479 118.129Z" fill="#0CACE3"/>
<path d="M223.864 121.011C223.864 121.011 223.143 119.754 222.127 120.352C221.111 120.95 215.721 125.576 216.578 126.253C217.436 126.931 220.271 129.327 221.367 127.334C222.462 125.342 223.864 121.011 223.864 121.011Z" fill="#0CACE3"/>
<path d="M259.943 99.8118L225.603 90.4623C223.322 89.8413 220.969 91.187 220.348 93.4679L218.857 98.9469C218.236 101.228 219.581 103.58 221.862 104.201L256.203 113.551C258.484 114.172 260.836 112.826 261.457 110.545L262.949 105.066C263.57 102.785 262.224 100.433 259.943 99.8118Z" fill="#1C1C1C"/>
<path d="M273.771 93.1792L268.026 89.6644C267.275 89.205 266.294 89.4413 265.834 90.1923L260.305 99.2299C259.846 99.9809 260.082 100.962 260.833 101.422L266.579 104.936C267.33 105.396 268.311 105.159 268.77 104.408L274.299 95.3708C274.759 94.6198 274.522 93.6386 273.771 93.1792Z" fill="#B5B5B5"/>
<path d="M296.657 88.6028C298.698 85.2704 299.706 81.4074 299.551 77.5026C299.397 73.5977 298.088 69.8262 295.791 66.6651C293.493 63.504 290.31 61.0952 286.643 59.7434C282.976 58.3915 278.991 58.1573 275.191 59.0703C271.392 59.9833 267.948 62.0026 265.296 64.8728C262.644 67.743 260.902 71.3352 260.292 75.1951C259.681 79.055 260.229 83.0093 261.865 86.558C263.502 90.1066 266.154 93.0902 269.487 95.1315C271.7 96.4869 274.158 97.3932 276.72 97.7986C279.283 98.204 281.901 98.1007 284.424 97.4944C286.947 96.8882 289.326 95.7909 291.425 94.2653C293.524 92.7397 295.302 90.8156 296.657 88.6028ZM272.189 90.7214C269.728 89.2146 267.77 87.0119 266.561 84.3919C265.352 81.7719 264.947 78.8522 265.397 76.0021C265.848 73.152 267.134 70.4995 269.092 68.3801C271.05 66.2607 273.592 64.7695 276.398 64.0952C279.204 63.4209 282.146 63.5937 284.853 64.5918C287.561 65.5899 289.911 67.3685 291.608 69.7026C293.304 72.0366 294.271 74.8214 294.384 77.7046C294.498 80.5879 293.754 83.4401 292.247 85.9006C291.247 87.5344 289.934 88.9551 288.385 90.0816C286.836 91.2081 285.079 92.0183 283.217 92.466C281.354 92.9136 279.422 92.99 277.529 92.6907C275.637 92.3913 273.823 91.7222 272.189 90.7214Z" fill="#B5B5B5"/>
<path d="M274.747 95.9707L274.102 96.9976L269.058 104.989C268.946 105.168 268.8 105.322 268.628 105.444C268.456 105.566 268.262 105.653 268.056 105.7C267.851 105.747 267.638 105.753 267.43 105.717C267.223 105.682 267.024 105.606 266.846 105.493L263.711 103.519L269.476 94.9366L271.447 91.9966L274.246 93.7585C274.424 93.8708 274.579 94.0171 274.7 94.1891C274.822 94.3611 274.908 94.5554 274.955 94.7608C275.001 94.9663 275.007 95.1789 274.971 95.3865C274.936 95.5941 274.859 95.7926 274.747 95.9707Z" fill="#A0A0A0"/>
<path d="M291.502 62.0698L288.619 66.3934C291.545 68.6641 293.5 71.9604 294.089 75.6166C294.679 79.2728 293.859 83.0164 291.795 86.0914C289.731 89.1665 286.577 91.3438 282.971 92.1837C279.364 93.0236 275.572 92.4635 272.363 90.6165L271.447 91.9856L269.477 94.9401C270.924 95.8254 272.48 96.5182 274.106 97.001C278.571 98.3134 283.355 98.0128 287.62 96.1519C291.885 94.2911 295.359 90.9886 297.434 86.8233C299.508 82.658 300.051 77.8954 298.966 73.3702C297.881 68.845 295.239 64.8459 291.502 62.0734V62.0698Z" fill="#A0A0A0"/>
<defs>
<clipPath id="clip0">
<rect width="170.745" height="170.745" fill="white" transform="translate(99.127 325.138)"/>
</clipPath>
</defs>
</svg>
