<svg width="372" height="602" viewBox="0 0 372 602" fill="none" xmlns="http://www.w3.org/2000/svg">
<g filter="url(#filter0_d)">
<circle cx="244.5" cy="117.5" r="102.5" fill="white"/>
<path d="M304.192 69.0068H185.542C183.353 69.0068 181.578 70.7814 181.578 72.9703V155.155C181.578 157.344 183.353 159.118 185.542 159.118H304.192C306.381 159.118 308.156 157.344 308.156 155.155V72.9703C308.156 70.7814 306.381 69.0068 304.192 69.0068Z" fill="#A0A0A0"/>
<path d="M317.11 155.992H172.629C171.919 155.992 171.344 156.568 171.344 157.278V162.861C171.344 163.571 171.919 164.146 172.629 164.146H317.11C317.82 164.146 318.395 163.571 318.395 162.861V157.278C318.395 156.568 317.82 155.992 317.11 155.992Z" fill="#B5B5B5"/>
<path d="M299.805 75.4463H189.928C188.027 75.4463 186.486 76.9873 186.486 78.8883V145.682C186.486 147.583 188.027 149.124 189.928 149.124H299.805C301.706 149.124 303.247 147.583 303.247 145.682V78.8883C303.247 76.9873 301.706 75.4463 299.805 75.4463Z" fill="white"/>
<path d="M212.138 116.041V117.4C212.143 117.547 212.124 117.693 212.083 117.833C212.045 117.945 211.979 118.046 211.89 118.124C211.778 118.221 211.655 118.306 211.525 118.376C211.136 118.59 210.724 118.76 210.298 118.882C209.875 118.992 209.44 119.046 209.003 119.042C208.496 119.049 207.992 118.964 207.515 118.79C207.084 118.634 206.692 118.385 206.368 118.06C206.045 117.73 205.797 117.335 205.641 116.9C205.465 116.408 205.38 115.889 205.389 115.367C205.383 114.852 205.466 114.34 205.635 113.854C205.785 113.417 206.033 113.02 206.359 112.692C206.689 112.365 207.087 112.115 207.524 111.958C208.024 111.783 208.551 111.698 209.08 111.707C209.509 111.698 209.936 111.763 210.344 111.897C210.67 112.001 210.973 112.164 211.24 112.379C211.448 112.549 211.623 112.757 211.755 112.992C211.86 113.166 211.92 113.363 211.93 113.566C211.931 113.652 211.914 113.738 211.879 113.817C211.845 113.897 211.794 113.968 211.73 114.026C211.667 114.089 211.592 114.138 211.509 114.171C211.426 114.204 211.338 114.221 211.249 114.219C211.142 114.221 211.036 114.195 210.942 114.146C210.848 114.097 210.766 114.028 210.703 113.943C210.567 113.729 210.417 113.524 210.255 113.33C210.117 113.177 209.947 113.055 209.758 112.974C209.507 112.867 209.236 112.817 208.963 112.827C208.658 112.822 208.355 112.88 208.074 112.998C207.816 113.112 207.588 113.281 207.405 113.495C207.211 113.731 207.067 114.003 206.981 114.296C206.88 114.636 206.83 114.99 206.834 115.345C206.789 116.032 206.991 116.712 207.405 117.262C207.603 117.488 207.85 117.665 208.127 117.782C208.404 117.898 208.703 117.95 209.003 117.934C209.315 117.936 209.625 117.891 209.923 117.802C210.231 117.711 210.529 117.586 210.81 117.431V116.281H209.712C209.5 116.295 209.289 116.253 209.098 116.161C209.029 116.119 208.973 116.058 208.937 115.985C208.901 115.912 208.885 115.831 208.893 115.75C208.891 115.676 208.905 115.602 208.935 115.535C208.964 115.467 209.009 115.406 209.064 115.357C209.195 115.249 209.362 115.194 209.531 115.204H211.157C211.328 115.202 211.499 115.219 211.666 115.256C211.803 115.292 211.922 115.377 212 115.495C212.101 115.659 212.149 115.85 212.138 116.041Z" fill="#4F4F4F"/>
<path d="M216.746 118.299C216.465 118.524 216.155 118.711 215.825 118.854C215.508 118.983 215.168 119.047 214.825 119.042C214.516 119.047 214.21 118.979 213.933 118.842C213.689 118.719 213.485 118.531 213.341 118.299C213.205 118.074 213.133 117.816 213.135 117.554C213.128 117.215 213.25 116.886 213.476 116.633C213.728 116.367 214.059 116.187 214.42 116.121L215.034 115.992C215.365 115.925 215.648 115.863 215.887 115.805C216.126 115.747 216.378 115.679 216.657 115.6C216.663 115.33 216.589 115.064 216.445 114.836C216.343 114.74 216.221 114.668 216.088 114.626C215.955 114.583 215.814 114.571 215.675 114.59C215.416 114.574 215.157 114.623 214.92 114.731C214.742 114.832 214.592 114.977 214.485 115.152C214.407 115.28 214.321 115.403 214.227 115.52C214.178 115.581 214.071 115.609 213.92 115.609C213.779 115.612 213.642 115.562 213.537 115.468C213.484 115.423 213.442 115.367 213.414 115.304C213.386 115.24 213.372 115.172 213.374 115.103C213.38 114.857 213.466 114.619 213.62 114.428C213.821 114.18 214.086 113.993 214.387 113.885C214.803 113.732 215.244 113.66 215.687 113.673C216.152 113.654 216.617 113.724 217.056 113.879C217.366 113.995 217.618 114.228 217.758 114.529C217.909 114.903 217.979 115.304 217.964 115.707C217.964 116.014 217.964 116.278 217.964 116.495C217.964 116.713 217.964 116.949 217.964 117.213C217.966 117.477 218.007 117.738 218.086 117.989C218.146 118.157 218.187 118.331 218.209 118.508C218.207 118.58 218.188 118.65 218.155 118.715C218.123 118.779 218.076 118.835 218.019 118.879C217.9 118.986 217.746 119.045 217.586 119.045C217.433 119.036 217.289 118.968 217.184 118.854C217.016 118.688 216.869 118.501 216.746 118.299ZM216.66 116.388C216.384 116.483 216.102 116.559 215.816 116.615C215.448 116.692 215.203 116.75 215.049 116.787C214.9 116.829 214.762 116.903 214.644 117.005C214.58 117.061 214.529 117.131 214.495 117.209C214.462 117.288 214.447 117.373 214.451 117.459C214.451 117.555 214.47 117.65 214.51 117.738C214.549 117.826 214.606 117.904 214.678 117.968C214.842 118.111 215.055 118.186 215.273 118.176C215.524 118.18 215.772 118.121 215.994 118.005C216.196 117.908 216.366 117.755 216.482 117.563C216.622 117.254 216.683 116.916 216.66 116.578V116.388Z" fill="#4F4F4F"/>
<path d="M223.679 116.459V118.21C223.693 118.431 223.625 118.65 223.489 118.824C223.426 118.893 223.349 118.947 223.263 118.983C223.177 119.019 223.085 119.036 222.992 119.032C222.9 119.036 222.81 119.019 222.726 118.983C222.642 118.947 222.567 118.892 222.507 118.824C222.373 118.648 222.307 118.431 222.32 118.21V116.109C222.324 115.851 222.313 115.592 222.286 115.336C222.272 115.171 222.209 115.014 222.105 114.885C222.044 114.822 221.969 114.773 221.887 114.743C221.805 114.712 221.717 114.7 221.63 114.707C221.459 114.686 221.286 114.717 221.134 114.796C220.981 114.876 220.857 115 220.777 115.152C220.622 115.559 220.552 115.993 220.571 116.428V118.21C220.585 118.43 220.52 118.648 220.387 118.824C220.324 118.89 220.247 118.942 220.163 118.978C220.079 119.014 219.988 119.033 219.896 119.033C219.805 119.033 219.714 119.014 219.63 118.978C219.545 118.942 219.469 118.89 219.405 118.824C219.27 118.649 219.203 118.431 219.215 118.21V114.437C219.2 114.234 219.261 114.032 219.387 113.872C219.443 113.809 219.513 113.758 219.591 113.725C219.669 113.691 219.753 113.676 219.838 113.679C219.922 113.677 220.005 113.692 220.082 113.723C220.16 113.754 220.23 113.801 220.289 113.86C220.352 113.927 220.4 114.005 220.431 114.091C220.462 114.177 220.476 114.269 220.47 114.36V114.489C220.67 114.236 220.921 114.027 221.206 113.875C221.477 113.744 221.774 113.678 222.074 113.682C222.372 113.675 222.667 113.743 222.93 113.882C223.18 114.027 223.385 114.239 223.519 114.495C223.712 114.243 223.955 114.034 224.234 113.882C224.496 113.749 224.787 113.681 225.081 113.685C225.4 113.679 225.716 113.752 226.001 113.897C226.255 114.035 226.459 114.25 226.584 114.511C226.717 114.87 226.775 115.253 226.753 115.636V118.21C226.768 118.431 226.701 118.649 226.566 118.824C226.503 118.893 226.426 118.947 226.34 118.983C226.254 119.019 226.162 119.036 226.069 119.032C225.976 119.035 225.885 119.018 225.8 118.982C225.715 118.946 225.639 118.892 225.578 118.824C225.441 118.65 225.373 118.431 225.388 118.21V115.992C225.391 115.765 225.378 115.537 225.351 115.311C225.331 115.151 225.262 115.001 225.154 114.882C225.091 114.819 225.015 114.771 224.931 114.741C224.848 114.711 224.758 114.699 224.67 114.707C224.493 114.708 224.321 114.763 224.176 114.863C224.02 114.967 223.894 115.11 223.811 115.277C223.697 115.66 223.653 116.06 223.679 116.459Z" fill="#4F4F4F"/>
<path d="M231.728 116.686H229.148C229.145 116.96 229.207 117.232 229.329 117.477C229.429 117.688 229.588 117.866 229.787 117.989C229.985 118.112 230.215 118.175 230.449 118.171C230.595 118.172 230.74 118.153 230.881 118.115C231.015 118.076 231.142 118.017 231.259 117.94C231.377 117.865 231.49 117.781 231.596 117.689C231.7 117.597 231.835 117.474 231.998 117.321C232.082 117.258 232.185 117.228 232.289 117.235C232.409 117.23 232.526 117.269 232.618 117.345C232.659 117.384 232.692 117.432 232.714 117.485C232.736 117.538 232.746 117.595 232.743 117.652C232.733 117.801 232.684 117.945 232.602 118.069C232.491 118.248 232.348 118.404 232.179 118.529C231.965 118.69 231.725 118.813 231.47 118.895C231.152 118.995 230.819 119.044 230.486 119.039C230.124 119.06 229.762 119.007 229.422 118.882C229.083 118.758 228.772 118.565 228.51 118.315C228.268 118.05 228.081 117.74 227.96 117.402C227.839 117.065 227.786 116.707 227.804 116.348C227.801 115.979 227.86 115.612 227.979 115.262C228.087 114.945 228.26 114.654 228.485 114.406C228.715 114.164 228.996 113.976 229.308 113.857C229.654 113.727 230.021 113.663 230.391 113.667C230.854 113.653 231.312 113.766 231.716 113.992C232.065 114.191 232.352 114.483 232.544 114.836C232.722 115.158 232.817 115.52 232.82 115.888C232.838 116.012 232.821 116.138 232.771 116.253C232.72 116.367 232.638 116.465 232.535 116.535C232.281 116.648 232.005 116.699 231.728 116.686ZM229.148 115.934H231.538C231.537 115.566 231.408 115.209 231.173 114.925C231.066 114.813 230.936 114.724 230.792 114.666C230.648 114.608 230.493 114.581 230.338 114.587C230.187 114.583 230.037 114.61 229.898 114.669C229.758 114.728 229.633 114.816 229.532 114.928C229.297 115.212 229.162 115.566 229.148 115.934Z" fill="#4F4F4F"/>
<path d="M237.38 111.838H239.248C239.67 111.831 240.09 111.876 240.5 111.973C240.851 112.066 241.176 112.239 241.448 112.479C242.184 113.111 242.553 114.071 242.555 115.36C242.559 115.751 242.521 116.142 242.442 116.526C242.375 116.856 242.26 117.176 242.101 117.473C241.946 117.756 241.745 118.011 241.506 118.228C241.324 118.396 241.117 118.534 240.893 118.639C240.662 118.745 240.417 118.819 240.166 118.857C239.875 118.902 239.582 118.924 239.288 118.921H237.417C237.214 118.934 237.01 118.893 236.828 118.802C236.765 118.766 236.71 118.718 236.666 118.66C236.621 118.603 236.589 118.537 236.57 118.467C236.525 118.286 236.505 118.099 236.509 117.912V112.718C236.486 112.598 236.494 112.474 236.53 112.357C236.566 112.239 236.63 112.133 236.717 112.046C236.804 111.96 236.91 111.895 237.027 111.859C237.145 111.823 237.269 111.816 237.389 111.838H237.38ZM237.935 112.973V117.78H239.021C239.261 117.78 239.448 117.774 239.583 117.762C239.726 117.747 239.868 117.714 240.003 117.664C240.142 117.616 240.27 117.542 240.38 117.446C240.859 117.041 241.101 116.341 241.101 115.351C241.14 114.809 241.034 114.267 240.795 113.78C240.628 113.469 240.349 113.232 240.015 113.117C239.651 113.014 239.274 112.966 238.896 112.973H237.935Z" fill="#4F4F4F"/>
<path d="M247.406 116.686H244.826C244.823 116.96 244.885 117.232 245.007 117.477C245.109 117.686 245.267 117.861 245.464 117.984C245.661 118.106 245.889 118.17 246.121 118.168C246.267 118.169 246.412 118.15 246.553 118.112C246.687 118.073 246.814 118.014 246.931 117.938C247.049 117.861 247.163 117.777 247.271 117.686C247.372 117.594 247.507 117.471 247.67 117.318C247.754 117.255 247.857 117.225 247.961 117.232C248.081 117.227 248.198 117.266 248.29 117.342C248.331 117.382 248.364 117.429 248.386 117.482C248.408 117.535 248.418 117.592 248.415 117.649C248.406 117.798 248.358 117.942 248.274 118.066C248.164 118.246 248.02 118.402 247.851 118.527C247.637 118.687 247.397 118.81 247.142 118.892C246.824 118.992 246.491 119.041 246.158 119.036C245.796 119.057 245.434 119.004 245.094 118.879C244.755 118.755 244.444 118.562 244.182 118.312C243.94 118.047 243.753 117.737 243.632 117.399C243.511 117.062 243.458 116.704 243.476 116.345C243.473 115.976 243.532 115.609 243.651 115.259C243.759 114.942 243.932 114.651 244.157 114.404C244.387 114.161 244.668 113.974 244.979 113.854C245.326 113.724 245.693 113.66 246.062 113.664C246.525 113.65 246.984 113.763 247.388 113.989C247.737 114.188 248.024 114.48 248.216 114.833C248.394 115.155 248.489 115.517 248.492 115.885C248.51 116.009 248.493 116.135 248.443 116.25C248.392 116.364 248.31 116.462 248.207 116.533C247.955 116.645 247.681 116.698 247.406 116.686ZM244.826 115.934H247.216C247.215 115.566 247.086 115.209 246.851 114.925C246.744 114.813 246.615 114.725 246.472 114.666C246.328 114.608 246.174 114.581 246.019 114.588C245.868 114.583 245.717 114.611 245.578 114.67C245.438 114.729 245.312 114.817 245.21 114.928C244.975 115.212 244.84 115.566 244.826 115.934Z" fill="#4F4F4F"/>
<path d="M250.289 114.489L251.357 117.483L252.507 114.357C252.566 114.166 252.655 113.986 252.771 113.823C252.821 113.769 252.883 113.727 252.951 113.7C253.02 113.673 253.093 113.662 253.167 113.667C253.326 113.665 253.481 113.726 253.596 113.836C253.651 113.885 253.695 113.946 253.725 114.014C253.755 114.081 253.771 114.154 253.771 114.228C253.77 114.297 253.76 114.365 253.74 114.431C253.72 114.505 253.695 114.578 253.667 114.649C253.642 114.716 253.609 114.793 253.575 114.879L252.308 118.02C252.274 118.109 252.228 118.226 252.17 118.364C252.121 118.488 252.058 118.606 251.983 118.717C251.916 118.813 251.828 118.891 251.725 118.947C251.611 119.005 251.485 119.033 251.357 119.029C251.197 119.038 251.04 118.993 250.909 118.901C250.807 118.827 250.723 118.732 250.664 118.621C250.611 118.52 250.519 118.315 250.397 118.008L249.139 114.9C249.111 114.824 249.081 114.747 249.05 114.67C249.02 114.593 248.994 114.514 248.973 114.434C248.953 114.366 248.942 114.296 248.939 114.225C248.941 114.129 248.97 114.036 249.022 113.955C249.08 113.867 249.158 113.793 249.249 113.741C249.342 113.686 249.448 113.656 249.556 113.655C249.641 113.645 249.727 113.657 249.806 113.69C249.885 113.722 249.954 113.775 250.007 113.842C250.126 114.046 250.221 114.263 250.289 114.489Z" fill="#4F4F4F"/>
<path d="M258.268 116.686H255.688C255.686 116.96 255.748 117.231 255.869 117.477C255.974 117.69 256.137 117.869 256.339 117.993C256.533 118.109 256.756 118.17 256.983 118.168C257.129 118.169 257.274 118.151 257.415 118.112C257.55 118.074 257.679 118.015 257.796 117.938C257.914 117.862 258.027 117.778 258.133 117.686C258.238 117.594 258.369 117.471 258.535 117.318C258.618 117.256 258.72 117.225 258.824 117.232C258.944 117.226 259.062 117.266 259.155 117.342C259.197 117.382 259.229 117.429 259.251 117.482C259.273 117.535 259.283 117.592 259.281 117.649C259.27 117.798 259.221 117.942 259.139 118.066C259.028 118.244 258.884 118.4 258.716 118.527C258.501 118.686 258.262 118.809 258.007 118.892C257.689 118.992 257.357 119.041 257.023 119.036C256.661 119.057 256.299 119.004 255.96 118.88C255.62 118.755 255.309 118.562 255.047 118.312C254.805 118.047 254.618 117.737 254.497 117.399C254.376 117.062 254.323 116.704 254.342 116.345C254.338 115.976 254.397 115.609 254.516 115.259C254.624 114.942 254.797 114.651 255.023 114.404C255.252 114.161 255.533 113.974 255.845 113.854C256.191 113.724 256.558 113.66 256.928 113.664C257.391 113.65 257.849 113.763 258.253 113.989C258.602 114.188 258.889 114.48 259.081 114.833C259.259 115.155 259.354 115.517 259.357 115.885C259.375 116.009 259.358 116.135 259.308 116.25C259.257 116.364 259.176 116.462 259.072 116.533C258.82 116.645 258.544 116.698 258.268 116.686ZM255.688 115.934H258.081C258.079 115.566 257.95 115.209 257.716 114.925C257.609 114.813 257.479 114.725 257.335 114.666C257.191 114.608 257.037 114.581 256.882 114.588C256.731 114.583 256.58 114.611 256.441 114.669C256.302 114.728 256.177 114.816 256.075 114.928C255.84 115.213 255.705 115.566 255.688 115.934Z" fill="#4F4F4F"/>
<path d="M260.467 118.24V112.519C260.447 112.3 260.51 112.082 260.641 111.906C260.704 111.843 260.78 111.794 260.864 111.763C260.948 111.732 261.037 111.72 261.126 111.728C261.216 111.724 261.306 111.739 261.389 111.774C261.472 111.808 261.547 111.861 261.608 111.927C261.745 112.101 261.811 112.32 261.792 112.541V118.262C261.812 118.483 261.745 118.703 261.605 118.875C261.544 118.941 261.469 118.992 261.387 119.027C261.304 119.061 261.215 119.078 261.126 119.075C261.037 119.077 260.948 119.059 260.867 119.023C260.785 118.987 260.712 118.933 260.654 118.866C260.513 118.69 260.446 118.465 260.467 118.24Z" fill="#4F4F4F"/>
<path d="M268.085 116.36C268.089 116.73 268.027 117.097 267.904 117.446C267.789 117.766 267.607 118.058 267.37 118.302C267.136 118.543 266.852 118.73 266.539 118.851C266.192 118.982 265.824 119.046 265.453 119.041C265.085 119.047 264.719 118.981 264.376 118.848C264.063 118.724 263.78 118.535 263.546 118.293C263.311 118.052 263.131 117.763 263.017 117.446C262.892 117.098 262.831 116.73 262.836 116.36C262.832 115.987 262.894 115.617 263.017 115.265C263.132 114.947 263.311 114.656 263.545 114.412C263.781 114.175 264.064 113.99 264.376 113.869C264.72 113.739 265.085 113.675 265.453 113.679C265.824 113.674 266.193 113.74 266.539 113.872C266.854 113.993 267.14 114.181 267.376 114.423C267.611 114.665 267.792 114.956 267.904 115.274C268.03 115.622 268.091 115.99 268.085 116.36ZM266.763 116.36C266.79 115.914 266.664 115.471 266.407 115.105C266.296 114.96 266.151 114.843 265.985 114.764C265.819 114.686 265.637 114.648 265.453 114.655C265.211 114.65 264.974 114.72 264.772 114.854C264.565 115.002 264.407 115.208 264.318 115.446C264.107 116.034 264.107 116.677 264.318 117.265C264.406 117.502 264.563 117.707 264.769 117.854C265.024 118.026 265.333 118.096 265.637 118.051C265.941 118.006 266.217 117.848 266.41 117.609C266.665 117.244 266.789 116.804 266.763 116.36Z" fill="#4F4F4F"/>
<path d="M270.33 114.419V114.578C270.541 114.305 270.804 114.075 271.103 113.903C271.387 113.756 271.704 113.682 272.024 113.689C272.419 113.683 272.807 113.789 273.143 113.995C273.496 114.218 273.777 114.538 273.953 114.916C274.165 115.362 274.27 115.851 274.26 116.345C274.264 116.724 274.206 117.102 274.088 117.462C273.989 117.776 273.828 118.066 273.616 118.318C273.42 118.545 273.177 118.727 272.904 118.851C272.63 118.975 272.333 119.038 272.033 119.036C271.701 119.046 271.373 118.968 271.082 118.809C270.8 118.633 270.552 118.408 270.352 118.143V120.122C270.352 120.701 270.14 120.993 269.72 120.993C269.625 121.006 269.528 120.991 269.441 120.952C269.354 120.912 269.279 120.849 269.226 120.769C269.135 120.563 269.094 120.338 269.106 120.112V114.428C269.09 114.227 269.148 114.027 269.269 113.867C269.325 113.804 269.395 113.754 269.473 113.722C269.551 113.69 269.636 113.675 269.72 113.679C269.805 113.677 269.889 113.693 269.967 113.725C270.046 113.758 270.116 113.807 270.174 113.87C270.294 114.026 270.35 114.222 270.33 114.419ZM272.913 116.336C272.922 116.03 272.867 115.725 272.754 115.44C272.665 115.211 272.512 115.011 272.312 114.867C272.134 114.736 271.919 114.665 271.699 114.664C271.523 114.663 271.349 114.701 271.19 114.775C271.031 114.85 270.89 114.958 270.778 115.094C270.505 115.457 270.372 115.907 270.404 116.361C270.378 116.801 270.51 117.237 270.778 117.588C270.888 117.726 271.028 117.838 271.188 117.914C271.347 117.99 271.522 118.028 271.699 118.026C271.918 118.027 272.132 117.961 272.312 117.836C272.512 117.691 272.667 117.492 272.76 117.263C272.881 116.967 272.937 116.649 272.926 116.33L272.913 116.336Z" fill="#4F4F4F"/>
<path d="M278.991 116.686H276.411C276.408 116.96 276.47 117.232 276.592 117.477C276.691 117.686 276.847 117.861 277.042 117.984C277.237 118.107 277.463 118.172 277.693 118.171C277.839 118.172 277.985 118.153 278.126 118.115C278.26 118.076 278.387 118.017 278.503 117.94C278.622 117.864 278.736 117.78 278.844 117.689C278.945 117.597 279.08 117.474 279.242 117.321C279.33 117.254 279.44 117.224 279.549 117.235C279.669 117.229 279.786 117.269 279.877 117.345C279.919 117.384 279.952 117.432 279.974 117.485C279.995 117.538 280.006 117.595 280.003 117.652C279.994 117.801 279.945 117.945 279.862 118.069C279.752 118.249 279.608 118.405 279.439 118.529C279.225 118.69 278.985 118.813 278.73 118.895C278.412 118.995 278.079 119.044 277.745 119.039C277.384 119.06 277.022 119.007 276.682 118.882C276.342 118.758 276.032 118.565 275.77 118.315C275.528 118.05 275.341 117.74 275.22 117.402C275.098 117.065 275.046 116.707 275.064 116.348C275.061 115.979 275.12 115.612 275.239 115.262C275.347 114.945 275.519 114.654 275.745 114.406C275.975 114.164 276.256 113.976 276.567 113.857C276.913 113.727 277.281 113.663 277.65 113.667C278.113 113.653 278.571 113.766 278.976 113.992C279.325 114.191 279.611 114.483 279.804 114.836C279.982 115.158 280.077 115.52 280.08 115.888C280.098 116.012 280.081 116.138 280.03 116.253C279.98 116.367 279.898 116.465 279.795 116.535C279.542 116.647 279.267 116.699 278.991 116.686ZM276.411 115.934H278.801C278.8 115.566 278.671 115.209 278.436 114.925C278.329 114.813 278.2 114.725 278.056 114.666C277.913 114.608 277.759 114.581 277.604 114.587C277.453 114.583 277.302 114.611 277.162 114.67C277.023 114.728 276.897 114.817 276.794 114.928C276.56 115.212 276.425 115.566 276.411 115.934Z" fill="#4F4F4F"/>
<path d="M282.496 117.14V118.241C282.515 118.462 282.448 118.682 282.309 118.855C282.248 118.92 282.174 118.971 282.091 119.005C282.009 119.04 281.92 119.056 281.831 119.054C281.742 119.056 281.655 119.039 281.574 119.004C281.493 118.969 281.42 118.917 281.361 118.852C281.223 118.678 281.158 118.459 281.177 118.238V114.557C281.177 113.965 281.392 113.667 281.818 113.667C281.909 113.659 282 113.674 282.083 113.711C282.166 113.747 282.239 113.804 282.294 113.876C282.403 114.061 282.458 114.274 282.453 114.489C282.579 114.258 282.743 114.051 282.938 113.876C283.128 113.729 283.364 113.655 283.604 113.667C283.886 113.669 284.163 113.741 284.411 113.876C284.522 113.919 284.618 113.995 284.687 114.092C284.757 114.19 284.796 114.305 284.8 114.425C284.802 114.568 284.748 114.706 284.649 114.81C284.551 114.913 284.416 114.975 284.273 114.98C284.153 114.964 284.036 114.934 283.923 114.891C283.765 114.837 283.599 114.807 283.432 114.802C283.261 114.795 283.094 114.85 282.96 114.956C282.824 115.076 282.725 115.232 282.674 115.407C282.6 115.637 282.554 115.876 282.536 116.118C282.509 116.407 282.496 116.741 282.496 117.14Z" fill="#4F4F4F"/>
<path d="M257.09 124.472H232.646C229.713 124.472 227.336 126.849 227.336 129.782C227.336 132.715 229.713 135.092 232.646 135.092H257.09C260.023 135.092 262.4 132.715 262.4 129.782C262.4 126.849 260.023 124.472 257.09 124.472Z" fill="#0CACE3"/>
<path d="M236.921 130.395H235.887V131.975C235.899 132.16 235.842 132.344 235.727 132.49C235.675 132.545 235.611 132.589 235.541 132.619C235.471 132.649 235.395 132.665 235.319 132.665C235.243 132.665 235.167 132.649 235.097 132.619C235.027 132.589 234.964 132.545 234.911 132.49C234.792 132.346 234.733 132.161 234.746 131.975V127.68C234.736 127.584 234.747 127.487 234.776 127.395C234.806 127.304 234.854 127.219 234.917 127.146C235.072 127.026 235.268 126.969 235.463 126.987H236.911C237.245 126.975 237.578 127.008 237.902 127.085C238.12 127.141 238.323 127.246 238.494 127.392C238.66 127.54 238.79 127.725 238.872 127.932C238.96 128.161 239.004 128.406 239 128.652C239.017 128.893 238.978 129.135 238.887 129.359C238.796 129.582 238.656 129.783 238.476 129.944C238.026 130.27 237.476 130.43 236.921 130.395ZM236.648 127.836H235.887V129.542H236.648C236.873 129.547 237.099 129.519 237.316 129.459C237.478 129.414 237.621 129.319 237.724 129.186C237.824 129.039 237.874 128.864 237.865 128.686C237.877 128.461 237.798 128.24 237.648 128.073C237.485 127.919 237.154 127.836 236.648 127.836Z" fill="white"/>
<path d="M242.413 126.895C242.932 126.88 243.446 127.001 243.904 127.244C244.313 127.474 244.642 127.825 244.846 128.248C245.072 128.727 245.183 129.252 245.168 129.781C245.173 130.18 245.114 130.577 244.993 130.956C244.883 131.296 244.703 131.61 244.466 131.877C244.228 132.138 243.935 132.342 243.607 132.472C243.234 132.614 242.837 132.683 242.438 132.677C242.037 132.684 241.639 132.612 241.266 132.466C240.936 132.336 240.64 132.132 240.401 131.871C240.164 131.604 239.987 131.29 239.879 130.95C239.757 130.573 239.697 130.178 239.701 129.781C239.697 129.381 239.759 128.983 239.885 128.603C239.996 128.262 240.178 127.949 240.419 127.683C240.656 127.429 240.948 127.232 241.272 127.106C241.635 126.963 242.023 126.891 242.413 126.895ZM244.021 129.763C244.03 129.399 243.963 129.038 243.824 128.702C243.708 128.423 243.511 128.187 243.257 128.024C243.004 127.868 242.711 127.788 242.413 127.794C242.202 127.793 241.993 127.836 241.8 127.919C241.609 128.004 241.441 128.131 241.306 128.291C241.157 128.472 241.046 128.68 240.978 128.904C240.895 129.18 240.854 129.466 240.858 129.754C240.854 130.046 240.895 130.336 240.978 130.616C241.046 130.85 241.162 131.067 241.318 131.254C241.455 131.417 241.627 131.546 241.821 131.631C242.002 131.714 242.198 131.759 242.396 131.765C242.595 131.772 242.793 131.738 242.978 131.668C243.164 131.597 243.334 131.49 243.478 131.353C243.622 131.216 243.738 131.052 243.818 130.871C243.964 130.52 244.031 130.142 244.015 129.763H244.021Z" fill="white"/>
<path d="M250.369 130.896C250.377 131.222 250.286 131.543 250.109 131.816C249.921 132.097 249.656 132.317 249.345 132.448C248.969 132.609 248.563 132.688 248.154 132.678C247.681 132.699 247.211 132.593 246.792 132.371C246.542 132.219 246.331 132.008 246.179 131.758C246.031 131.542 245.948 131.289 245.939 131.028C245.939 130.962 245.951 130.897 245.976 130.837C246 130.776 246.037 130.721 246.084 130.675C246.13 130.626 246.187 130.588 246.249 130.563C246.311 130.538 246.378 130.526 246.446 130.528C246.559 130.525 246.669 130.567 246.752 130.644C246.848 130.739 246.921 130.854 246.964 130.982C247.024 131.138 247.101 131.287 247.194 131.426C247.282 131.556 247.402 131.662 247.541 131.733C247.726 131.819 247.929 131.859 248.133 131.85C248.423 131.864 248.71 131.782 248.949 131.617C249.044 131.552 249.122 131.464 249.175 131.362C249.229 131.26 249.256 131.146 249.256 131.031C249.259 130.948 249.246 130.866 249.217 130.788C249.188 130.711 249.144 130.64 249.087 130.58C248.963 130.459 248.813 130.369 248.648 130.316C248.414 130.239 248.175 130.175 247.934 130.123C247.587 130.047 247.249 129.937 246.924 129.794C246.669 129.681 246.448 129.504 246.283 129.279C246.118 129.042 246.034 128.758 246.044 128.469C246.038 128.177 246.127 127.891 246.295 127.653C246.479 127.402 246.732 127.211 247.022 127.101C247.38 126.967 247.76 126.903 248.142 126.911C248.443 126.906 248.744 126.948 249.032 127.037C249.256 127.11 249.464 127.226 249.645 127.377C249.794 127.499 249.918 127.649 250.007 127.819C250.081 127.959 250.121 128.115 250.124 128.273C250.123 128.407 250.072 128.537 249.98 128.635C249.937 128.687 249.882 128.729 249.82 128.757C249.759 128.785 249.692 128.799 249.624 128.797C249.569 128.803 249.513 128.798 249.46 128.781C249.407 128.764 249.359 128.736 249.317 128.699C249.229 128.608 249.155 128.505 249.096 128.393C249.012 128.203 248.887 128.035 248.731 127.899C248.529 127.765 248.288 127.704 248.047 127.724C247.798 127.711 247.551 127.777 247.341 127.914C247.261 127.962 247.194 128.03 247.147 128.111C247.1 128.192 247.074 128.284 247.071 128.377C247.069 128.481 247.101 128.582 247.164 128.666C247.231 128.753 247.317 128.824 247.415 128.874C247.512 128.931 247.615 128.977 247.722 129.012C247.832 129.046 248.029 129.095 248.265 129.156C248.553 129.223 248.838 129.305 249.118 129.402C249.348 129.479 249.567 129.587 249.768 129.724C249.945 129.848 250.089 130.014 250.188 130.206C250.302 130.418 250.364 130.655 250.369 130.896Z" fill="white"/>
<path d="M254.951 127.923H253.724V131.975C253.739 132.162 253.683 132.347 253.567 132.494C253.516 132.55 253.454 132.595 253.384 132.624C253.314 132.654 253.238 132.668 253.163 132.666C253.086 132.668 253.01 132.654 252.94 132.624C252.869 132.594 252.806 132.55 252.755 132.494C252.639 132.347 252.584 132.162 252.598 131.975V127.923H251.371C251.216 127.937 251.061 127.891 250.938 127.794C250.892 127.751 250.855 127.699 250.831 127.641C250.807 127.583 250.795 127.52 250.797 127.457C250.794 127.393 250.806 127.328 250.832 127.269C250.857 127.21 250.896 127.158 250.945 127.116C251.066 127.022 251.218 126.978 251.371 126.99H254.963C255.119 126.978 255.275 127.024 255.399 127.119C255.446 127.162 255.482 127.214 255.507 127.272C255.531 127.331 255.543 127.394 255.54 127.457C255.543 127.52 255.532 127.584 255.507 127.642C255.482 127.7 255.444 127.752 255.396 127.794C255.27 127.894 255.11 127.94 254.951 127.923Z" fill="white"/>
<path d="M240.175 85.4806C240.175 85.4806 240.368 85.2413 240.503 84.2535C240.629 83.6236 240.685 82.9815 240.668 82.3393C240.641 81.6224 240.447 80.9218 240.101 80.2931C239.794 79.8298 239.325 79.293 239.039 79.1887L238.665 79.0537C238.523 79.162 238.405 79.3002 238.322 79.4587C237.842 80.1132 237.431 80.8153 237.095 81.5539C236.812 82.3239 236.588 82.6828 236.573 83.3117C236.558 83.9406 236.573 84.4775 236.573 84.4775C236.378 84.3023 236.155 84.1604 235.913 84.0572C235.233 83.7187 234.501 83.4967 233.748 83.4007C233.199 83.3262 232.645 83.2862 232.091 83.281C231.674 83.281 231.134 83.281 231.134 83.281C231.073 83.697 231.073 84.1198 231.134 84.5357C231.252 85.2144 231.501 85.8636 231.867 86.4469C232.356 87.1097 233.017 87.6263 233.778 87.9409C234.493 88.1869 235.236 88.3425 235.99 88.4042C236.334 88.4195 236.886 88.4931 236.886 88.4931L240.175 85.4806Z" fill="#333333"/>
<path d="M246.209 107.473C253.076 107.473 258.642 101.907 258.642 95.04C258.642 88.1731 253.076 82.6064 246.209 82.6064C239.342 82.6064 233.775 88.1731 233.775 95.04C233.775 101.907 239.342 107.473 246.209 107.473Z" fill="#333333"/>
<path d="M246.403 107.473C253.048 107.473 258.434 102.284 258.434 95.8829C258.434 89.4819 253.048 84.293 246.403 84.293C239.758 84.293 234.371 89.4819 234.371 95.8829C234.371 102.284 239.758 107.473 246.403 107.473Z" fill="#1C1C1C"/>
<path d="M246.037 99.3925C246.037 99.3925 241.251 99.5581 239.595 98.9691C237.938 98.3801 235.693 97.0733 237.236 94.7203C238.779 92.3674 243.411 91.7446 244.292 91.7109C245.172 91.6771 249.507 91.4839 252.574 92.757C255.642 94.0301 255.74 96.8432 254.63 97.7605C253.519 98.6777 252.139 99.4354 249.089 99.414L246.037 99.3925Z" fill="#EFB892"/>
<path d="M246.037 99.3959C246.037 99.3959 241.251 99.5401 239.595 99.0278C237.938 98.5155 235.693 97.3773 237.236 95.3281C238.779 93.2789 243.411 92.7359 244.292 92.7083C245.172 92.6806 249.507 92.5089 252.574 93.6286C255.642 94.7483 255.74 97.1871 254.63 97.9817C253.519 98.7762 252.139 99.4419 249.089 99.4235L246.037 99.3959Z" fill="#FFC8A1"/>
<path d="M240.727 96.4503C240.859 96.2054 241.067 96.0101 241.32 95.8939C241.573 95.7777 241.857 95.7469 242.129 95.8061C242.401 95.8653 242.646 96.0114 242.827 96.2222C243.009 96.4331 243.117 96.6973 243.135 96.9749L243.801 97.1191C243.814 96.6654 243.669 96.2212 243.389 95.8635C243.11 95.5058 242.714 95.2572 242.27 95.1607C241.827 95.0642 241.363 95.1259 240.961 95.3351C240.558 95.5443 240.241 95.8878 240.064 96.3062L240.727 96.4503Z" fill="black"/>
<path d="M251.347 96.6963C251.215 96.4514 251.007 96.2561 250.754 96.1399C250.501 96.0237 250.217 95.9929 249.945 96.0521C249.673 96.1113 249.428 96.2574 249.247 96.4682C249.065 96.679 248.957 96.9432 248.939 97.2209L248.276 97.362C248.265 96.9099 248.412 96.4681 248.692 96.1126C248.971 95.7571 249.366 95.5102 249.808 95.4143C250.25 95.3184 250.712 95.3796 251.113 95.5873C251.515 95.7949 251.832 96.1361 252.009 96.5521L251.347 96.6963Z" fill="black"/>
<path d="M258.599 129.947C258.518 130.029 258.464 130.134 258.443 130.247C258.422 130.36 258.436 130.477 258.483 130.582L264.925 145.056C264.986 145.194 265.099 145.302 265.24 145.357C265.381 145.412 265.538 145.408 265.676 145.347C265.81 145.287 265.914 145.177 265.968 145.041L268.281 139.645L273.705 137.307C273.806 137.262 273.891 137.189 273.951 137.096C274.012 137.004 274.044 136.896 274.044 136.785C274.044 136.675 274.012 136.567 273.951 136.474C273.891 136.382 273.806 136.309 273.705 136.264L259.231 129.822C259.126 129.775 259.01 129.761 258.897 129.782C258.784 129.803 258.68 129.857 258.599 129.938V129.947Z" fill="#4F4F4F"/>
<path d="M267.215 137.089L266.045 138.393L273.863 145.407L275.033 144.104L267.215 137.089Z" fill="#4F4F4F"/>
<ellipse cx="128.5" cy="278.701" rx="113.5" ry="112.701" fill="white"/>
<path d="M206.155 227.292H144.676C140.294 227.292 136.742 230.844 136.742 235.226V309.819C136.742 314.201 140.294 317.753 144.676 317.753H206.155C210.536 317.753 214.089 314.201 214.089 309.819V235.226C214.089 230.844 210.536 227.292 206.155 227.292Z" fill="#CCB29B"/>
<path d="M204.248 231.762H146.587C145.159 231.762 144.002 232.919 144.002 234.346V307.756C144.002 309.183 145.159 310.34 146.587 310.34H204.248C205.675 310.34 206.833 309.183 206.833 307.756V234.346C206.833 232.919 205.675 231.762 204.248 231.762Z" fill="white"/>
<path d="M181.819 224.286H178.438V224.305C178.438 225.11 178.118 225.882 177.549 226.451C176.98 227.021 176.208 227.34 175.403 227.34C174.598 227.34 173.826 227.021 173.256 226.451C172.687 225.882 172.367 225.11 172.367 224.305V224.286H158.821C158.667 224.286 158.515 224.316 158.373 224.375C158.231 224.434 158.102 224.521 157.993 224.63C157.885 224.739 157.799 224.868 157.74 225.01C157.682 225.152 157.652 225.304 157.652 225.458V231.954C157.652 232.107 157.683 232.259 157.741 232.401C157.8 232.542 157.886 232.671 157.995 232.78C158.103 232.888 158.232 232.974 158.374 233.033C158.515 233.092 158.667 233.122 158.821 233.122H192.007C192.317 233.122 192.614 232.999 192.833 232.78C193.052 232.561 193.176 232.263 193.176 231.954V225.458C193.176 225.148 193.053 224.85 192.834 224.631C192.615 224.411 192.317 224.287 192.007 224.286H181.819Z" fill="#A0A0A0"/>
<path fill-rule="evenodd" clip-rule="evenodd" d="M164.916 278.461C164.916 277.996 165.101 277.55 165.43 277.221C165.759 276.892 166.205 276.707 166.67 276.707H198.226C198.677 276.728 199.103 276.922 199.414 277.248C199.726 277.574 199.9 278.008 199.9 278.46C199.9 278.911 199.726 279.345 199.414 279.671C199.103 279.997 198.677 280.191 198.226 280.212H166.67C166.206 280.212 165.76 280.028 165.431 279.699C165.102 279.371 164.917 278.926 164.916 278.461ZM164.916 264.441C164.917 263.977 165.102 263.532 165.431 263.203C165.76 262.875 166.206 262.691 166.67 262.691H198.226C198.677 262.712 199.103 262.905 199.414 263.232C199.726 263.558 199.9 263.992 199.9 264.443C199.9 264.895 199.726 265.328 199.414 265.655C199.103 265.981 198.677 266.175 198.226 266.196H166.67C166.44 266.196 166.212 266.15 165.999 266.062C165.786 265.974 165.593 265.845 165.43 265.682C165.267 265.519 165.138 265.326 165.049 265.113C164.961 264.9 164.916 264.672 164.916 264.441ZM164.916 250.425C164.916 249.96 165.101 249.514 165.43 249.185C165.759 248.856 166.205 248.671 166.67 248.671H198.226C198.677 248.692 199.103 248.885 199.414 249.212C199.726 249.538 199.9 249.972 199.9 250.423C199.9 250.875 199.726 251.308 199.414 251.635C199.103 251.961 198.677 252.155 198.226 252.176H166.67C166.206 252.176 165.76 251.992 165.431 251.663C165.102 251.335 164.917 250.89 164.916 250.425ZM160.9 245.677C161.229 246.006 161.413 246.452 161.413 246.916C161.413 247.381 161.229 247.827 160.9 248.156L155.641 253.416C155.478 253.579 155.285 253.708 155.072 253.796C154.859 253.885 154.631 253.93 154.401 253.93C154.171 253.93 153.943 253.885 153.73 253.796C153.517 253.708 153.324 253.579 153.161 253.416L151.392 251.665C151.063 251.336 150.877 250.89 150.877 250.425C150.877 249.959 151.061 249.513 151.39 249.184C151.719 248.854 152.165 248.669 152.63 248.669C153.096 248.668 153.542 248.853 153.871 249.182L154.382 249.696L158.402 245.677C158.73 245.348 159.175 245.164 159.64 245.164C160.104 245.164 160.549 245.348 160.877 245.677H160.9ZM160.9 259.697C161.229 260.026 161.413 260.472 161.413 260.936C161.413 261.401 161.229 261.847 160.9 262.176L155.641 267.436C155.312 267.764 154.866 267.949 154.401 267.949C153.936 267.949 153.49 267.764 153.161 267.436L151.392 265.681C151.219 265.521 151.081 265.327 150.985 265.112C150.888 264.896 150.837 264.664 150.832 264.428C150.828 264.192 150.871 263.958 150.96 263.74C151.048 263.521 151.179 263.322 151.346 263.156C151.513 262.989 151.711 262.858 151.93 262.769C152.148 262.681 152.383 262.638 152.618 262.642C152.854 262.646 153.087 262.698 153.302 262.794C153.517 262.891 153.711 263.029 153.871 263.202L154.397 263.716L158.417 259.697C158.745 259.368 159.19 259.184 159.655 259.184C160.119 259.184 160.564 259.368 160.893 259.697H160.9ZM160.9 273.717C161.228 274.045 161.413 274.49 161.413 274.955C161.413 275.419 161.228 275.864 160.9 276.192L155.641 281.452C155.312 281.78 154.866 281.965 154.401 281.965C153.936 281.965 153.49 281.78 153.161 281.452L151.392 279.701C151.083 279.368 150.914 278.929 150.923 278.475C150.931 278.02 151.115 277.587 151.436 277.266C151.757 276.945 152.191 276.761 152.645 276.752C153.099 276.744 153.539 276.912 153.871 277.222L154.382 277.736L158.402 273.717C158.564 273.554 158.757 273.424 158.969 273.336C159.182 273.248 159.41 273.202 159.64 273.202C159.87 273.202 160.097 273.248 160.31 273.336C160.522 273.424 160.715 273.554 160.877 273.717H160.9ZM164.916 292.568C164.915 292.338 164.96 292.11 165.048 291.897C165.136 291.684 165.265 291.49 165.427 291.327C165.59 291.165 165.783 291.035 165.996 290.947C166.208 290.859 166.436 290.813 166.667 290.813H198.223C198.46 290.802 198.696 290.84 198.919 290.923C199.141 291.006 199.344 291.133 199.515 291.297C199.687 291.461 199.824 291.658 199.917 291.876C200.01 292.094 200.058 292.329 200.058 292.566C200.058 292.803 200.01 293.038 199.917 293.256C199.824 293.474 199.687 293.671 199.515 293.835C199.344 293.999 199.141 294.126 198.919 294.209C198.696 294.292 198.46 294.329 198.223 294.318H166.667C166.202 294.318 165.757 294.134 165.429 293.806C165.1 293.477 164.916 293.032 164.916 292.568ZM160.896 287.819C161.059 287.982 161.189 288.175 161.277 288.388C161.365 288.601 161.411 288.829 161.411 289.059C161.411 289.289 161.365 289.517 161.277 289.73C161.189 289.943 161.059 290.136 160.896 290.299L155.637 295.558C155.474 295.721 155.281 295.851 155.068 295.939C154.856 296.027 154.628 296.073 154.397 296.073C154.167 296.073 153.939 296.027 153.726 295.939C153.513 295.851 153.32 295.721 153.158 295.558L151.392 293.807C151.063 293.478 150.878 293.032 150.878 292.566C150.878 292.1 151.063 291.654 151.392 291.324C151.721 290.995 152.168 290.81 152.633 290.81C153.099 290.81 153.546 290.995 153.875 291.324L154.386 291.839L158.402 287.819C158.731 287.491 159.177 287.306 159.642 287.306C160.106 287.306 160.552 287.491 160.881 287.819H160.896Z" fill="#0CACE3"/>
<path d="M89.0309 223.118C89.0309 223.118 88.3585 222.57 87.4118 219.899C86.4651 217.228 86.1984 216.766 85.8565 214.737C85.5147 212.708 85.6837 210.229 86.2322 208.783C86.7807 207.336 87.7875 205.582 88.5087 205.131C89.23 204.68 89.4592 204.549 89.4592 204.549C89.4592 204.549 89.8349 204.643 90.635 205.458C91.4352 206.273 93.986 208.55 95.2107 210.511C96.4354 212.472 97.2956 213.328 97.6713 215.045C98.047 216.762 98.3438 218.249 98.3438 218.249C98.7865 217.659 99.3203 217.143 99.9253 216.721C101.6 215.403 103.483 214.375 105.496 213.678C106.964 213.156 108.464 212.729 109.986 212.397C111.135 212.152 112.615 211.803 112.615 211.803C113.025 212.911 113.268 214.073 113.337 215.252C113.407 217.186 113.098 219.116 112.428 220.932C111.793 222.607 109.881 224.936 108.032 226.139C106.209 227.226 104.256 228.082 102.221 228.686C101.285 228.926 99.8089 229.437 99.8089 229.437L89.0309 223.118Z" fill="#333333"/>
<path d="M77.9629 287.809C97.254 287.809 112.893 272.17 112.893 252.879C112.893 233.588 97.254 217.949 77.9629 217.949C58.6718 217.949 43.0332 233.588 43.0332 252.879C43.0332 272.17 58.6718 287.809 77.9629 287.809Z" fill="#333333"/>
<path d="M84.5988 287.176C102.87 283.346 114.691 265.974 111.002 248.374C107.312 230.775 89.5093 219.613 71.2378 223.443C52.9663 227.274 41.1453 244.646 44.8348 262.245C48.5243 279.845 66.3273 291.007 84.5988 287.176Z" fill="#1C1C1C"/>
<path d="M81.1789 265.824C81.1789 265.824 94.4288 263.54 98.5949 260.892C102.761 258.243 108.174 253.164 102.502 247.255C96.8293 241.346 83.7184 242.225 81.3104 242.63C78.9024 243.036 66.8096 244.982 59.2023 250.422C51.595 255.862 52.9737 264.051 56.5726 266.057C60.1715 268.063 64.4429 269.461 72.809 267.642L81.1789 265.824Z" fill="#935124"/>
<path d="M80.285 266.02C80.285 266.02 93.0578 263.766 97.115 261.377C101.172 258.987 106.465 254.438 101.127 249.367C95.7889 244.295 83.1814 245.321 80.841 245.723C78.5006 246.125 66.8662 248.063 59.4617 252.965C52.0573 257.868 53.2181 264.987 56.6404 266.689C60.0628 268.39 64.1538 269.517 72.2119 267.767L80.285 266.02Z" fill="#A25D28"/>
<path d="M61.2015 316.194C65.5316 316.194 69.0417 312.684 69.0417 308.354C69.0417 304.024 65.5316 300.514 61.2015 300.514C56.8715 300.514 53.3613 304.024 53.3613 308.354C53.3613 312.684 56.8715 316.194 61.2015 316.194Z" fill="#1C1C1C"/>
<path d="M60.1631 283.293C47.6534 293.853 54.0247 305.191 54.0247 305.191L65.9672 302.136C65.9672 302.136 65.6667 296.039 71.2717 295.784C71.2717 295.784 80.7385 318.324 80.0172 340.999C79.9685 341.966 79.6933 342.907 79.2136 343.748C78.734 344.589 78.0634 345.304 77.2561 345.838C74.4536 347.746 78.0074 348.513 81.2043 348.513C84.4013 348.513 92.2866 349.403 94.7059 347.112C97.1252 344.82 96.6143 343.674 96.742 340.744C96.8697 337.814 97.4934 318.711 105.657 313.872C113.82 309.034 129.346 301.261 138.644 298.97C138.644 298.97 140.936 298.218 140.301 293.365C139.666 288.511 137.491 275.663 135.842 278.21C134.192 280.757 133.806 282.264 130.875 283.293C127.945 284.322 116.994 287.636 115.849 289.416C115.849 289.416 119.41 277.019 105.657 273.48L60.1631 283.293Z" fill="#1C1C1C"/>
<path d="M80.1681 303.838C80.4837 305.491 82.3733 308.879 82.3733 308.879C82.3733 308.879 79.9314 310.611 78.5903 310.758C77.2491 310.904 76.1484 305.874 76.1484 305.874L80.1681 303.838Z" fill="#0CACE3"/>
<path d="M110.18 294.145C103.328 292.492 88.5977 300.055 88.5977 300.055C88.5977 300.055 91.0395 303.759 90.8028 304.623L110.18 294.145Z" fill="#0CACE3"/>
<path d="M87.1555 307.848C88.5168 307.263 88.9437 305.213 88.109 303.269C87.2743 301.324 85.4941 300.221 84.1328 300.805C82.7715 301.39 82.3446 303.44 83.1793 305.384C84.014 307.329 85.7942 308.432 87.1555 307.848Z" fill="#0CACE3"/>
<path d="M85.307 308.646C85.307 308.646 86.8886 308.271 87.1854 309.544C87.4821 310.818 87.8691 318.741 86.6594 318.56C85.4498 318.38 81.3362 317.929 82.1251 315.499C82.914 313.068 85.307 308.646 85.307 308.646Z" fill="#0CACE3"/>
<path d="M90.1054 307.392C90.1054 307.392 88.4863 307.256 88.3924 308.556C88.2985 309.856 89.0836 317.753 90.2519 317.4C91.4203 317.046 95.4174 315.983 94.2904 313.699C93.1634 311.415 90.1054 307.392 90.1054 307.392Z" fill="#0CACE3"/>
<path d="M71.7833 260.861C71.4098 260.178 70.8252 259.633 70.1166 259.31C69.4081 258.986 68.6139 258.901 67.8527 259.066C67.0915 259.231 66.4044 259.639 65.894 260.227C65.3836 260.816 65.0774 261.553 65.0212 262.33L63.1429 262.736C63.1064 261.462 63.5162 260.216 64.3014 259.213C65.0866 258.21 66.1978 257.512 67.4428 257.242C68.6878 256.971 69.9882 257.144 71.119 257.731C72.2498 258.318 73.1399 259.282 73.6353 260.456L71.7833 260.861Z" fill="black"/>
<path d="M93.3709 256.242C92.9975 255.558 92.4128 255.014 91.7043 254.69C90.9958 254.366 90.2015 254.281 89.4403 254.446C88.6792 254.612 87.992 255.019 87.4816 255.607C86.9712 256.196 86.665 256.934 86.6088 257.71L84.7305 258.116C84.6962 256.844 85.1071 255.6 85.8921 254.599C86.6771 253.598 87.787 252.902 89.0303 252.632C90.2736 252.361 91.5723 252.533 92.7022 253.118C93.8321 253.703 94.7223 254.665 95.2192 255.836L93.3709 256.242Z" fill="black"/>
<circle cx="205" cy="469" r="108" fill="white"/>
<path d="M174.789 482.122H168.902V514.898H174.789V482.122Z" fill="#9E9E9E"/>
<path d="M171.846 420.115C178.01 420.115 183.006 415.118 183.006 408.954C183.006 402.791 178.01 397.794 171.846 397.794C165.682 397.794 160.686 402.791 160.686 408.954C160.686 415.118 165.682 420.115 171.846 420.115Z" stroke="#0CACE3" stroke-width="15" stroke-miterlimit="10"/>
<path d="M171.846 538.54C178.01 538.54 183.006 533.544 183.006 527.38C183.006 521.216 178.01 516.22 171.846 516.22C165.682 516.22 160.686 521.216 160.686 527.38C160.686 533.544 165.682 538.54 171.846 538.54Z" stroke="#9E9E9E" stroke-width="15" stroke-miterlimit="10"/>
<path d="M174.789 422.954H168.902V455.73H174.789V422.954Z" fill="#0CACE3"/>
<path d="M171.846 480.456C178.01 480.456 183.006 475.46 183.006 469.296C183.006 463.132 178.01 458.136 171.846 458.136C165.682 458.136 160.686 463.132 160.686 469.296C160.686 475.46 165.682 480.456 171.846 480.456Z" stroke="#9E9E9E" stroke-width="15" stroke-miterlimit="10"/>
<path d="M171.845 414.909C175.134 414.909 177.8 412.243 177.8 408.955C177.8 405.666 175.134 403 171.845 403C168.557 403 165.891 405.666 165.891 408.955C165.891 412.243 168.557 414.909 171.845 414.909Z" fill="#0CACE3"/>
<path d="M171.845 475.251C175.134 475.251 177.8 472.585 177.8 469.296C177.8 466.008 175.134 463.342 171.845 463.342C168.557 463.342 165.891 466.008 165.891 469.296C165.891 472.585 168.557 475.251 171.845 475.251Z" fill="#B1B1B1"/>
<path d="M162.76 453.289C162.76 453.289 163.054 452.93 163.254 451.428C163.453 449.927 163.544 449.66 163.501 448.565C163.462 447.488 163.17 446.436 162.648 445.494C162.202 444.801 161.485 443.992 161.055 443.837L160.493 443.634C160.28 443.796 160.105 444.003 159.98 444.239C159.645 444.753 158.57 446.231 158.143 447.382C157.717 448.533 157.383 449.079 157.347 450.019C157.311 450.958 157.347 451.767 157.347 451.767C157.054 451.507 156.722 451.295 156.363 451.138C155.342 450.631 154.243 450.299 153.113 450.154C152.289 450.043 151.459 449.983 150.628 449.975C149.998 449.975 149.194 449.951 149.194 449.951C149.1 450.575 149.1 451.21 149.194 451.835C149.369 452.853 149.741 453.827 150.289 454.702C151.026 455.693 152.017 456.467 153.157 456.941C154.229 457.31 155.344 457.543 156.475 457.634C156.988 457.658 157.817 457.769 157.817 457.769L162.76 453.289Z" fill="#333333"/>
<path d="M171.812 486.276C182.112 486.276 190.461 477.927 190.461 467.628C190.461 457.329 182.112 448.979 171.812 448.979C161.513 448.979 153.164 457.329 153.164 467.628C153.164 477.927 161.513 486.276 171.812 486.276Z" fill="#333333"/>
<path d="M172.1 486.271C182.067 486.271 190.146 478.489 190.146 468.89C190.146 459.29 182.067 451.508 172.1 451.508C162.133 451.508 154.053 459.29 154.053 468.89C154.053 478.489 162.133 486.271 172.1 486.271Z" fill="#1C1C1C"/>
<path d="M171.551 474.156C171.551 474.156 164.381 474.403 161.912 473.518C159.443 472.634 156.061 470.679 158.375 467.146C160.689 463.613 167.624 462.689 168.942 462.637C170.26 462.585 176.776 462.294 181.345 464.206C185.913 466.118 186.097 470.332 184.432 471.706C182.767 473.08 180.696 474.219 176.123 474.188L171.551 474.156Z" fill="#E8C9B8"/>
<path d="M171.551 474.16C171.551 474.16 164.381 474.375 161.912 473.606C159.443 472.837 156.061 471.133 158.375 468.058C160.689 464.983 167.636 464.174 168.942 464.131C170.248 464.087 176.776 463.832 181.345 465.497C185.913 467.162 186.097 470.834 184.432 472.029C182.767 473.224 180.696 474.215 176.123 474.188L171.551 474.16Z" fill="#F9DAC5"/>
<path d="M163.591 469.747C163.791 469.381 164.104 469.09 164.483 468.917C164.863 468.744 165.288 468.7 165.695 468.79C166.102 468.879 166.469 469.099 166.74 469.415C167.012 469.732 167.173 470.128 167.2 470.543L168.196 470.762C168.215 470.083 167.997 469.418 167.578 468.882C167.159 468.346 166.566 467.974 165.901 467.829C165.237 467.685 164.543 467.777 163.939 468.09C163.336 468.403 162.86 468.917 162.596 469.544L163.591 469.747Z" fill="black"/>
<path d="M179.516 470.113C179.316 469.747 179.003 469.456 178.624 469.283C178.244 469.111 177.819 469.066 177.412 469.156C177.005 469.246 176.638 469.465 176.367 469.782C176.095 470.098 175.934 470.494 175.907 470.91L174.911 471.125C174.892 470.445 175.11 469.78 175.529 469.244C175.948 468.709 176.541 468.336 177.206 468.192C177.87 468.047 178.564 468.139 179.168 468.452C179.772 468.765 180.247 469.28 180.511 469.906L179.516 470.113Z" fill="black"/>
<path d="M206.593 413.244L206.195 412.173H202.718L202.319 413.268C202.223 413.572 202.089 413.862 201.921 414.133C201.854 414.212 201.768 414.274 201.672 414.314C201.576 414.353 201.471 414.369 201.368 414.36C201.26 414.36 201.153 414.339 201.053 414.298C200.953 414.257 200.862 414.197 200.786 414.121C200.709 414.053 200.647 413.969 200.605 413.876C200.562 413.783 200.54 413.681 200.539 413.579C200.538 413.456 200.557 413.334 200.595 413.216C200.635 413.093 200.698 412.918 200.786 412.695L202.977 407.142C203.04 406.983 203.112 406.792 203.2 406.569C203.273 406.374 203.367 406.187 203.479 406.011C203.58 405.861 203.717 405.738 203.877 405.653C204.06 405.555 204.266 405.507 204.474 405.513C204.683 405.506 204.891 405.554 205.076 405.653C205.236 405.735 205.373 405.855 205.474 406.003C205.575 406.15 205.66 406.306 205.729 406.469C205.797 406.633 205.88 406.868 205.988 407.13L208.222 412.651C208.362 412.939 208.451 413.249 208.485 413.567C208.482 413.67 208.459 413.772 208.415 413.865C208.372 413.959 208.311 414.043 208.234 414.113C208.157 414.193 208.065 414.257 207.962 414.299C207.859 414.342 207.748 414.362 207.637 414.36C207.516 414.363 207.396 414.338 207.286 414.288C207.192 414.24 207.109 414.172 207.043 414.089C206.955 413.966 206.883 413.832 206.828 413.69C206.713 413.531 206.657 413.376 206.593 413.244ZM203.164 410.855H205.721L204.43 407.326L203.164 410.855Z" fill="#4F4F4F"/>
<path d="M211.073 408.775V408.966C211.33 408.643 211.648 408.372 212.009 408.169C212.347 407.994 212.723 407.905 213.104 407.911C213.582 407.908 214.051 408.039 214.458 408.289C214.882 408.557 215.221 408.942 215.434 409.396C215.685 409.937 215.807 410.529 215.792 411.125C215.797 411.583 215.729 412.039 215.589 412.475C215.467 412.852 215.274 413.202 215.02 413.507C214.785 413.781 214.493 414 214.163 414.148C213.831 414.3 213.469 414.377 213.104 414.375C212.704 414.388 212.308 414.293 211.957 414.1C211.617 413.889 211.317 413.62 211.073 413.303V415.693C211.073 416.394 210.818 416.745 210.312 416.745C210.197 416.76 210.08 416.743 209.974 416.695C209.869 416.647 209.779 416.571 209.714 416.474C209.603 416.224 209.552 415.951 209.567 415.677V408.787C209.549 408.543 209.62 408.301 209.766 408.106C209.835 408.031 209.92 407.972 210.014 407.934C210.109 407.895 210.21 407.878 210.312 407.883C210.415 407.879 210.517 407.898 210.612 407.938C210.707 407.978 210.792 408.038 210.862 408.114C211.015 408.298 211.09 408.535 211.073 408.775ZM214.195 411.093C214.205 410.723 214.14 410.354 214.004 410.01C213.894 409.733 213.709 409.492 213.47 409.313C213.249 409.156 212.985 409.072 212.714 409.074C212.501 409.071 212.292 409.117 212.099 409.206C211.907 409.296 211.737 409.427 211.602 409.591C211.27 410.029 211.109 410.573 211.148 411.121C211.116 411.651 211.276 412.176 211.598 412.599C211.732 412.766 211.901 412.901 212.095 412.993C212.288 413.085 212.5 413.131 212.714 413.128C212.977 413.127 213.234 413.046 213.45 412.897C213.692 412.721 213.879 412.481 213.992 412.204C214.136 411.852 214.206 411.473 214.195 411.093Z" fill="#4F4F4F"/>
<path d="M218.541 408.775V408.966C218.799 408.643 219.117 408.372 219.477 408.169C219.816 407.994 220.192 407.905 220.573 407.911C221.051 407.908 221.52 408.039 221.927 408.289C222.351 408.557 222.69 408.942 222.903 409.396C223.153 409.937 223.276 410.529 223.261 411.125C223.266 411.583 223.198 412.039 223.058 412.475C222.936 412.852 222.743 413.202 222.489 413.507C222.254 413.781 221.961 414 221.632 414.148C221.3 414.3 220.938 414.377 220.573 414.375C220.173 414.388 219.776 414.293 219.426 414.1C219.086 413.889 218.786 413.62 218.541 413.303V415.693C218.541 416.394 218.287 416.745 217.781 416.745C217.666 416.76 217.549 416.743 217.443 416.695C217.337 416.647 217.247 416.571 217.183 416.474C217.072 416.224 217.021 415.951 217.036 415.677V408.787C217.018 408.543 217.089 408.301 217.235 408.106C217.304 408.031 217.389 407.972 217.483 407.934C217.577 407.895 217.679 407.878 217.781 407.883C217.884 407.879 217.986 407.898 218.081 407.938C218.176 407.978 218.261 408.038 218.33 408.114C218.484 408.298 218.559 408.535 218.541 408.775ZM221.664 411.093C221.674 410.723 221.609 410.354 221.473 410.01C221.362 409.733 221.178 409.492 220.939 409.313C220.718 409.156 220.453 409.072 220.182 409.074C219.97 409.071 219.76 409.117 219.568 409.206C219.376 409.296 219.206 409.427 219.071 409.591C218.739 410.029 218.578 410.573 218.617 411.121C218.585 411.651 218.745 412.176 219.067 412.599C219.2 412.766 219.37 412.901 219.563 412.993C219.757 413.085 219.968 413.131 220.182 413.128C220.446 413.127 220.702 413.046 220.919 412.897C221.16 412.721 221.348 412.481 221.461 412.204C221.605 411.852 221.674 411.473 221.664 411.093Z" fill="#4F4F4F"/>
<path d="M224.54 413.392V406.481C224.521 406.223 224.598 405.966 224.755 405.76C224.826 405.679 224.914 405.614 225.013 405.571C225.113 405.528 225.221 405.509 225.329 405.513C225.438 405.509 225.547 405.529 225.648 405.571C225.749 405.613 225.84 405.676 225.914 405.756C226.076 405.962 226.154 406.221 226.133 406.481V413.392C226.153 413.653 226.073 413.912 225.91 414.117C225.836 414.197 225.746 414.26 225.646 414.302C225.546 414.344 225.437 414.364 225.329 414.36C225.221 414.363 225.114 414.342 225.015 414.299C224.917 414.255 224.829 414.19 224.759 414.109C224.602 413.904 224.524 413.649 224.54 413.392Z" fill="#4F4F4F"/>
<path d="M228.583 407.142C228.375 407.147 228.172 407.074 228.013 406.939C227.934 406.866 227.872 406.776 227.832 406.677C227.791 406.577 227.773 406.469 227.778 406.362C227.775 406.257 227.795 406.152 227.837 406.056C227.879 405.959 227.942 405.873 228.021 405.804C228.173 405.66 228.374 405.582 228.583 405.585C228.784 405.582 228.98 405.653 229.133 405.784C229.214 405.856 229.278 405.945 229.32 406.045C229.361 406.145 229.379 406.254 229.371 406.362C229.377 406.469 229.359 406.576 229.319 406.675C229.278 406.774 229.216 406.863 229.136 406.935C228.985 407.073 228.787 407.147 228.583 407.142ZM229.379 408.787V413.392C229.399 413.652 229.317 413.91 229.152 414.113C229.08 414.193 228.99 414.257 228.891 414.299C228.791 414.342 228.683 414.362 228.575 414.36C228.467 414.363 228.36 414.342 228.262 414.299C228.163 414.255 228.075 414.19 228.005 414.109C227.847 413.905 227.769 413.649 227.786 413.392V408.835C227.767 408.578 227.845 408.324 228.005 408.122C228.077 408.044 228.166 407.981 228.264 407.94C228.362 407.899 228.468 407.88 228.575 407.883C228.683 407.88 228.79 407.899 228.889 407.941C228.989 407.982 229.079 408.044 229.152 408.122C229.305 408.309 229.38 408.547 229.36 408.787H229.379Z" fill="#4F4F4F"/>
<path d="M235.46 411.511H232.346C232.342 411.843 232.417 412.17 232.565 412.467C232.685 412.721 232.876 412.934 233.115 413.083C233.354 413.231 233.63 413.308 233.911 413.303C234.087 413.304 234.263 413.282 234.433 413.236C234.595 413.189 234.75 413.117 234.891 413.025C235.031 412.933 235.165 412.83 235.289 412.718C235.417 412.61 235.576 412.463 235.775 412.276C235.875 412.2 236 412.163 236.126 412.172C236.27 412.166 236.412 412.213 236.524 412.304C236.578 412.354 236.619 412.416 236.646 412.485C236.672 412.554 236.682 412.628 236.675 412.702C236.663 412.883 236.604 413.057 236.504 413.208C236.371 413.423 236.198 413.611 235.994 413.761C235.736 413.957 235.446 414.106 235.138 414.204C234.752 414.326 234.348 414.385 233.943 414.379C233.506 414.405 233.068 414.34 232.657 414.19C232.246 414.039 231.87 413.805 231.553 413.503C231.259 413.181 231.033 412.804 230.887 412.393C230.741 411.983 230.679 411.548 230.705 411.113C230.7 410.667 230.77 410.224 230.912 409.802C231.042 409.418 231.25 409.065 231.525 408.767C231.81 408.475 232.159 408.254 232.545 408.121C232.962 407.963 233.405 407.884 233.851 407.89C234.409 407.878 234.959 408.015 235.444 408.289C235.867 408.526 236.213 408.879 236.444 409.304C236.66 409.695 236.775 410.133 236.779 410.579C236.779 410.977 236.663 411.24 236.436 411.376C236.126 411.496 235.792 411.542 235.46 411.511ZM232.346 410.607H235.233C235.234 410.161 235.079 409.728 234.795 409.384C234.665 409.25 234.508 409.145 234.334 409.077C234.16 409.008 233.974 408.977 233.788 408.986C233.606 408.979 233.425 409.01 233.256 409.079C233.088 409.148 232.936 409.252 232.812 409.384C232.526 409.729 232.363 410.159 232.346 410.607Z" fill="#4F4F4F"/>
<path d="M242.502 413.447V413.3C242.311 413.52 242.099 413.72 241.868 413.897C241.662 414.048 241.434 414.166 241.191 414.248C240.934 414.33 240.665 414.37 240.395 414.367C240.027 414.372 239.664 414.288 239.335 414.124C239.005 413.961 238.716 413.724 238.491 413.431C238.247 413.116 238.065 412.758 237.953 412.376C237.827 411.951 237.765 411.509 237.77 411.065C237.719 410.226 237.978 409.396 238.499 408.735C238.737 408.462 239.032 408.246 239.365 408.102C239.697 407.958 240.057 407.89 240.419 407.903C240.818 407.891 241.215 407.972 241.578 408.138C241.927 408.323 242.24 408.57 242.502 408.867V406.505C242.484 406.243 242.552 405.983 242.697 405.764C242.763 405.68 242.848 405.614 242.945 405.57C243.042 405.527 243.148 405.507 243.255 405.513C243.358 405.506 243.462 405.524 243.558 405.564C243.654 405.604 243.74 405.666 243.808 405.744C243.954 405.94 244.024 406.182 244.007 406.425V413.447C244.026 413.694 243.951 413.939 243.796 414.132C243.728 414.207 243.644 414.266 243.55 414.305C243.457 414.344 243.356 414.363 243.255 414.359C243.152 414.362 243.051 414.341 242.957 414.3C242.863 414.259 242.78 414.197 242.713 414.12C242.559 413.931 242.484 413.69 242.502 413.447ZM239.367 411.109C239.357 411.487 239.426 411.863 239.57 412.212C239.679 412.49 239.868 412.73 240.112 412.902C240.338 413.052 240.605 413.133 240.877 413.133C241.147 413.134 241.412 413.058 241.641 412.913C241.89 412.749 242.084 412.515 242.199 412.24C242.347 411.883 242.417 411.499 242.406 411.113C242.414 410.738 242.344 410.365 242.199 410.018C242.075 409.736 241.877 409.494 241.626 409.317C241.398 409.16 241.129 409.077 240.853 409.078C240.567 409.069 240.287 409.156 240.056 409.325C239.812 409.505 239.627 409.753 239.523 410.038C239.394 410.38 239.335 410.744 239.347 411.109H239.367Z" fill="#4F4F4F"/>
<path d="M201.192 530.359V523.628C201.168 523.342 201.254 523.058 201.431 522.832C201.509 522.746 201.604 522.677 201.711 522.632C201.817 522.587 201.933 522.565 202.048 522.569C202.165 522.566 202.282 522.588 202.389 522.633C202.497 522.678 202.594 522.746 202.674 522.832C202.854 523.056 202.941 523.341 202.917 523.628V530.359C202.941 530.646 202.854 530.932 202.674 531.156C202.594 531.244 202.496 531.314 202.387 531.359C202.277 531.405 202.159 531.425 202.04 531.419C201.925 531.422 201.81 531.399 201.704 531.353C201.598 531.307 201.504 531.238 201.427 531.152C201.25 530.928 201.166 530.644 201.192 530.359Z" fill="#4F4F4F"/>
<path d="M206.198 525.819V526.018C206.443 525.688 206.757 525.416 207.118 525.221C207.473 525.044 207.865 524.955 208.261 524.962C208.654 524.955 209.043 525.05 209.388 525.237C209.711 525.412 209.97 525.683 210.129 526.014C210.236 526.209 210.305 526.422 210.332 526.643C210.368 526.93 210.384 527.218 210.38 527.507V530.471C210.4 530.73 210.322 530.987 210.161 531.192C210.087 531.269 209.998 531.33 209.899 531.372C209.801 531.414 209.695 531.435 209.587 531.435C209.48 531.435 209.374 531.414 209.276 531.372C209.177 531.33 209.088 531.269 209.014 531.192C208.855 530.988 208.777 530.732 208.795 530.475V527.818C208.814 527.408 208.739 526.999 208.576 526.623C208.486 526.477 208.356 526.36 208.201 526.286C208.047 526.211 207.874 526.183 207.704 526.205C207.424 526.203 207.151 526.292 206.927 526.46C206.688 526.634 206.508 526.877 206.413 527.157C206.314 527.593 206.275 528.041 206.298 528.487V530.479C206.318 530.74 206.237 531 206.071 531.204C205.998 531.284 205.908 531.347 205.809 531.389C205.709 531.431 205.601 531.45 205.493 531.446C205.385 531.45 205.278 531.429 205.18 531.385C205.081 531.342 204.994 531.277 204.923 531.196C204.765 530.992 204.687 530.736 204.704 530.479V525.842C204.685 525.599 204.756 525.356 204.903 525.161C204.972 525.087 205.056 525.028 205.149 524.989C205.243 524.951 205.344 524.933 205.445 524.938C205.578 524.936 205.709 524.97 205.824 525.038C205.942 525.108 206.036 525.212 206.094 525.337C206.167 525.487 206.203 525.652 206.198 525.819Z" fill="#4F4F4F"/>
<path d="M212.053 525.078H212.232V524.122C212.232 523.863 212.232 523.664 212.232 523.516C212.245 523.385 212.284 523.258 212.348 523.142C212.412 523.03 212.505 522.937 212.619 522.875C212.739 522.804 212.877 522.769 213.017 522.772C213.222 522.776 213.417 522.858 213.563 523.003C213.672 523.099 213.745 523.23 213.77 523.373C213.805 523.578 213.82 523.786 213.813 523.994V525.078H214.399C214.584 525.064 214.768 525.121 214.913 525.237C214.969 525.287 215.014 525.348 215.045 525.417C215.076 525.486 215.092 525.56 215.092 525.635C215.1 525.727 215.079 525.818 215.034 525.898C214.988 525.978 214.92 526.042 214.837 526.082C214.609 526.181 214.361 526.226 214.112 526.213H213.825V529.14C213.824 529.332 213.833 529.524 213.853 529.714C213.864 529.835 213.913 529.949 213.993 530.041C214.042 530.087 214.1 530.122 214.164 530.144C214.228 530.166 214.296 530.174 214.363 530.168C214.491 530.164 214.618 530.147 214.742 530.116C214.865 530.089 214.99 530.073 215.116 530.068C215.181 530.069 215.246 530.084 215.305 530.11C215.365 530.137 215.418 530.176 215.462 530.224C215.515 530.275 215.556 530.337 215.583 530.406C215.61 530.475 215.622 530.548 215.618 530.622C215.615 530.751 215.573 530.877 215.498 530.982C215.423 531.087 215.317 531.167 215.196 531.212C214.817 531.364 214.409 531.434 214.001 531.415C213.608 531.44 213.215 531.353 212.87 531.164C212.621 531.003 212.441 530.756 212.364 530.471C212.274 530.079 212.233 529.678 212.244 529.276V526.221H212.037C211.848 526.234 211.66 526.176 211.511 526.058C211.455 526.008 211.409 525.946 211.378 525.878C211.346 525.809 211.329 525.735 211.328 525.659C211.329 525.583 211.346 525.508 211.379 525.439C211.412 525.37 211.46 525.309 211.519 525.261C211.67 525.139 211.859 525.075 212.053 525.078Z" fill="#4F4F4F"/>
<path d="M220.644 528.567H217.525C217.523 528.899 217.599 529.227 217.748 529.523C217.871 529.783 218.067 530.001 218.314 530.148C218.554 530.292 218.83 530.366 219.111 530.359C219.287 530.361 219.462 530.338 219.632 530.292C219.795 530.245 219.949 530.174 220.09 530.081C220.23 529.988 220.363 529.885 220.489 529.774C220.612 529.666 220.775 529.519 220.971 529.332C221.071 529.256 221.196 529.219 221.321 529.228C221.465 529.222 221.607 529.269 221.719 529.36C221.773 529.411 221.814 529.473 221.84 529.542C221.866 529.611 221.877 529.684 221.871 529.758C221.86 529.938 221.8 530.111 221.699 530.26C221.568 530.476 221.394 530.664 221.19 530.813C220.931 531.009 220.642 531.158 220.333 531.256C219.947 531.378 219.544 531.437 219.138 531.431C218.701 531.458 218.263 531.395 217.851 531.244C217.44 531.093 217.065 530.858 216.749 530.555C216.453 530.234 216.226 529.857 216.079 529.446C215.933 529.036 215.871 528.6 215.896 528.165C215.891 527.719 215.962 527.276 216.107 526.854C216.236 526.47 216.443 526.117 216.717 525.819C216.994 525.527 217.332 525.301 217.709 525.158C218.125 524.999 218.569 524.92 219.015 524.927C219.572 524.914 220.122 525.051 220.608 525.325C221.03 525.565 221.376 525.918 221.608 526.345C221.821 526.734 221.935 527.171 221.938 527.615C221.938 528.013 221.823 528.276 221.596 528.392C221.296 528.522 220.97 528.582 220.644 528.567ZM217.525 527.663H220.417C220.415 527.217 220.258 526.785 219.975 526.44C219.845 526.306 219.688 526.201 219.514 526.133C219.34 526.064 219.154 526.033 218.967 526.042C218.785 526.035 218.604 526.067 218.436 526.135C218.268 526.204 218.116 526.308 217.991 526.44C217.706 526.786 217.543 527.215 217.525 527.663Z" fill="#4F4F4F"/>
<path d="M224.879 529.117V530.447C224.9 530.709 224.818 530.969 224.652 531.172C224.579 531.252 224.49 531.315 224.39 531.357C224.29 531.399 224.183 531.419 224.074 531.415C223.968 531.418 223.862 531.397 223.764 531.354C223.667 531.312 223.579 531.248 223.509 531.168C223.347 530.964 223.267 530.707 223.286 530.447V526.018C223.286 525.305 223.545 524.947 224.063 524.947C224.171 524.937 224.281 524.956 224.381 524.999C224.481 525.043 224.569 525.111 224.636 525.198C224.767 525.422 224.834 525.678 224.827 525.938C224.979 525.66 225.177 525.41 225.413 525.198C225.641 525.023 225.923 524.934 226.209 524.947C226.549 524.948 226.883 525.034 227.181 525.198C227.316 525.251 227.432 525.342 227.516 525.46C227.6 525.578 227.649 525.718 227.655 525.863C227.655 526.035 227.589 526.2 227.471 526.325C227.352 526.45 227.19 526.524 227.018 526.532C226.874 526.511 226.732 526.475 226.596 526.424C226.404 526.359 226.204 526.322 226.002 526.317C225.797 526.309 225.595 526.374 225.433 526.5C225.27 526.647 225.15 526.836 225.086 527.046C224.999 527.325 224.943 527.614 224.919 527.906C224.892 528.241 224.879 528.644 224.879 529.117Z" fill="#4F4F4F"/>
<path d="M229.498 525.93L230.789 529.547L232.179 525.771C232.249 525.541 232.357 525.324 232.497 525.129C232.557 525.063 232.632 525.012 232.714 524.979C232.797 524.946 232.886 524.932 232.975 524.938C233.071 524.936 233.166 524.953 233.254 524.988C233.343 525.023 233.424 525.075 233.493 525.141C233.56 525.201 233.614 525.274 233.652 525.355C233.689 525.437 233.708 525.526 233.708 525.615C233.705 525.698 233.691 525.779 233.668 525.858C233.645 525.948 233.616 526.036 233.581 526.121C233.549 526.205 233.509 526.296 233.465 526.404L231.94 530.196L231.772 530.594C231.714 530.745 231.638 530.888 231.545 531.02C231.462 531.143 231.349 531.242 231.216 531.308C231.084 531.375 230.937 531.406 230.789 531.399C230.597 531.409 230.407 531.354 230.251 531.243C230.127 531.154 230.025 531.038 229.952 530.905C229.888 530.781 229.781 530.542 229.63 530.18L228.112 526.428L228.004 526.149C227.967 526.055 227.935 525.96 227.909 525.862C227.887 525.78 227.875 525.696 227.873 525.611C227.874 525.495 227.909 525.382 227.973 525.285C228.04 525.177 228.133 525.088 228.243 525.026C228.363 524.953 228.502 524.917 228.642 524.922C228.744 524.91 228.848 524.924 228.943 524.964C229.038 525.004 229.121 525.068 229.183 525.149C229.319 525.396 229.425 525.658 229.498 525.93Z" fill="#4F4F4F"/>
<path d="M235.657 524.198C235.448 524.203 235.245 524.131 235.087 523.994C235.012 523.92 234.952 523.832 234.911 523.735C234.871 523.637 234.85 523.533 234.85 523.427C234.85 523.321 234.871 523.217 234.911 523.119C234.952 523.022 235.012 522.933 235.087 522.859C235.239 522.722 235.435 522.644 235.639 522.641C235.844 522.637 236.042 522.708 236.199 522.839C236.281 522.91 236.345 522.999 236.387 523.1C236.428 523.2 236.446 523.309 236.438 523.417C236.443 523.524 236.426 523.63 236.386 523.729C236.346 523.829 236.285 523.918 236.207 523.991C236.056 524.127 235.86 524.201 235.657 524.198ZM236.453 525.843V530.447C236.475 530.708 236.393 530.966 236.226 531.168C236.154 531.248 236.064 531.312 235.965 531.354C235.865 531.397 235.757 531.418 235.649 531.415C235.542 531.418 235.435 531.397 235.337 531.354C235.24 531.31 235.153 531.245 235.083 531.164C234.925 530.96 234.847 530.705 234.864 530.447V525.89C234.845 525.634 234.923 525.379 235.083 525.177C235.154 525.099 235.242 525.037 235.34 524.995C235.437 524.954 235.543 524.935 235.649 524.938C235.757 524.935 235.864 524.955 235.963 524.996C236.063 525.037 236.153 525.099 236.226 525.177C236.304 525.269 236.363 525.374 236.4 525.489C236.437 525.603 236.451 525.723 236.442 525.843H236.453Z" fill="#4F4F4F"/>
<path d="M242.535 528.567H239.42C239.416 528.899 239.491 529.226 239.639 529.523C239.762 529.783 239.958 530.001 240.205 530.148C240.44 530.288 240.708 530.361 240.982 530.359C241.158 530.361 241.333 530.338 241.503 530.292C241.666 530.245 241.821 530.174 241.961 530.081C242.101 529.988 242.234 529.885 242.36 529.774C242.483 529.666 242.647 529.519 242.842 529.332C242.942 529.256 243.067 529.219 243.192 529.228C243.337 529.221 243.479 529.268 243.59 529.36C243.644 529.411 243.685 529.473 243.711 529.542C243.738 529.611 243.748 529.684 243.742 529.758C243.731 529.938 243.672 530.111 243.571 530.26C243.44 530.477 243.266 530.665 243.061 530.813C242.803 531.009 242.513 531.158 242.204 531.256C241.818 531.379 241.415 531.438 241.01 531.431C240.572 531.458 240.134 531.395 239.723 531.244C239.311 531.093 238.936 530.858 238.62 530.555C238.324 530.234 238.097 529.857 237.95 529.446C237.804 529.036 237.742 528.6 237.767 528.165C237.764 527.719 237.835 527.276 237.978 526.854C238.107 526.47 238.314 526.117 238.588 525.819C238.865 525.527 239.204 525.301 239.58 525.158C239.998 524.998 240.443 524.92 240.89 524.927C241.447 524.914 241.998 525.051 242.483 525.325C242.905 525.565 243.251 525.918 243.483 526.345C243.698 526.733 243.812 527.171 243.814 527.615C243.814 528.013 243.702 528.276 243.471 528.392C243.176 528.52 242.856 528.58 242.535 528.567ZM239.42 527.663H242.308C242.306 527.217 242.15 526.785 241.866 526.44C241.736 526.306 241.579 526.201 241.405 526.133C241.231 526.064 241.045 526.033 240.858 526.042C240.676 526.035 240.495 526.067 240.327 526.135C240.159 526.204 240.007 526.308 239.882 526.44C239.597 526.785 239.435 527.215 239.42 527.663Z" fill="#4F4F4F"/>
<path d="M246.024 525.931L247.059 529.491L248.007 526.182C248.107 525.835 248.182 525.6 248.23 525.473C248.289 525.33 248.384 525.206 248.505 525.11C248.668 524.999 248.861 524.939 249.059 524.939C249.256 524.939 249.449 524.999 249.612 525.11C249.737 525.209 249.834 525.338 249.895 525.485C249.951 525.62 250.027 525.851 250.126 526.182L251.07 529.491L252.122 525.931C252.189 525.676 252.245 525.489 252.289 525.373C252.334 525.256 252.408 525.152 252.504 525.07C252.629 524.975 252.785 524.929 252.942 524.939C253.128 524.938 253.306 525.009 253.44 525.138C253.509 525.198 253.564 525.272 253.602 525.355C253.639 525.438 253.657 525.529 253.655 525.62C253.634 525.875 253.574 526.125 253.476 526.361L252.173 530.177C252.062 530.499 251.974 530.734 251.91 530.878C251.847 531.033 251.746 531.17 251.616 531.276C251.46 531.399 251.264 531.461 251.066 531.447C250.861 531.459 250.658 531.395 250.496 531.268C250.359 531.146 250.254 530.993 250.19 530.822C250.126 530.647 250.05 530.423 249.975 530.141L249.063 527.038L248.182 530.141C248.102 530.482 247.975 530.81 247.804 531.116C247.724 531.229 247.615 531.319 247.489 531.377C247.364 531.435 247.225 531.459 247.087 531.447C246.932 531.451 246.778 531.415 246.641 531.344C246.515 531.275 246.41 531.175 246.334 531.053C246.244 530.912 246.172 530.761 246.119 530.603C246.055 530.431 246.008 530.292 245.972 530.204L244.681 526.389C244.582 526.143 244.519 525.884 244.494 525.62C244.495 525.533 244.513 525.447 244.548 525.368C244.583 525.289 244.634 525.217 244.697 525.158C244.763 525.092 244.841 525.04 244.928 525.005C245.014 524.97 245.106 524.953 245.199 524.955C245.3 524.942 245.403 524.956 245.498 524.995C245.592 525.034 245.674 525.097 245.737 525.178C245.862 525.416 245.958 525.669 246.024 525.931Z" fill="#4F4F4F"/>
<path d="M201.191 472.116V465.377C201.168 465.091 201.253 464.806 201.43 464.58C201.512 464.498 201.61 464.433 201.717 464.389C201.825 464.344 201.94 464.321 202.056 464.321C202.172 464.321 202.287 464.344 202.394 464.389C202.501 464.433 202.599 464.498 202.681 464.58C202.863 464.804 202.95 465.09 202.924 465.377V472.116C202.948 472.403 202.861 472.688 202.681 472.913C202.602 473.001 202.504 473.07 202.394 473.116C202.285 473.161 202.166 473.182 202.048 473.176C201.933 473.179 201.818 473.157 201.712 473.112C201.606 473.066 201.511 472.998 201.434 472.913C201.256 472.687 201.169 472.403 201.191 472.116Z" fill="#4F4F4F"/>
<path d="M206.198 467.575V467.771C206.441 467.439 206.755 467.167 207.118 466.974C207.472 466.793 207.864 466.702 208.261 466.711C208.655 466.704 209.043 466.799 209.389 466.986C209.711 467.161 209.97 467.432 210.129 467.763C210.235 467.958 210.304 468.172 210.333 468.392C210.368 468.679 210.384 468.967 210.38 469.256V472.22C210.4 472.48 210.322 472.739 210.161 472.945C210.09 473.025 210.002 473.088 209.904 473.13C209.805 473.172 209.699 473.192 209.592 473.188C209.483 473.191 209.375 473.17 209.275 473.127C209.175 473.083 209.086 473.018 209.014 472.937C208.856 472.733 208.778 472.477 208.795 472.22V469.567C208.814 469.157 208.739 468.749 208.576 468.372C208.484 468.23 208.353 468.116 208.198 468.046C208.043 467.975 207.872 467.95 207.704 467.974C207.424 467.973 207.152 468.063 206.927 468.229C206.689 468.403 206.51 468.647 206.413 468.926C206.315 469.362 206.276 469.809 206.298 470.256V472.248C206.317 472.51 206.236 472.771 206.071 472.976C205.997 473.055 205.908 473.117 205.808 473.159C205.708 473.2 205.601 473.219 205.493 473.215C205.386 473.218 205.279 473.198 205.18 473.154C205.082 473.111 204.994 473.046 204.924 472.964C204.765 472.761 204.687 472.505 204.705 472.248V467.599C204.684 467.357 204.755 467.115 204.904 466.922C204.971 466.846 205.055 466.786 205.149 466.747C205.242 466.708 205.344 466.69 205.445 466.695C205.578 466.695 205.709 466.729 205.824 466.795C205.94 466.867 206.034 466.971 206.095 467.094C206.167 467.244 206.202 467.409 206.198 467.575Z" fill="#4F4F4F"/>
<path d="M214.06 470.622H212.232C212.002 470.639 211.775 470.569 211.594 470.427C211.523 470.364 211.466 470.286 211.428 470.199C211.39 470.111 211.372 470.017 211.375 469.921C211.372 469.826 211.39 469.731 211.427 469.643C211.464 469.555 211.52 469.476 211.59 469.412C211.772 469.269 212.001 469.199 212.232 469.216H214.076C214.308 469.199 214.537 469.269 214.721 469.412C214.788 469.478 214.842 469.557 214.878 469.644C214.915 469.731 214.934 469.825 214.934 469.919C214.934 470.014 214.915 470.107 214.878 470.195C214.842 470.282 214.788 470.361 214.721 470.427C214.534 470.576 214.297 470.646 214.06 470.622Z" fill="#4F4F4F"/>
<path d="M217.409 467.587V467.783C217.666 467.459 217.982 467.189 218.341 466.986C218.68 466.811 219.056 466.722 219.437 466.727C219.915 466.724 220.384 466.855 220.791 467.105C221.217 467.375 221.556 467.761 221.771 468.217C222.022 468.756 222.144 469.347 222.129 469.941C222.133 470.401 222.063 470.858 221.922 471.296C221.8 471.673 221.607 472.023 221.353 472.327C221.115 472.602 220.821 472.822 220.49 472.971C220.159 473.12 219.8 473.196 219.437 473.191C219.038 473.205 218.643 473.11 218.294 472.917C217.951 472.709 217.652 472.439 217.409 472.12V474.51C217.409 475.211 217.154 475.561 216.645 475.561C216.529 475.577 216.412 475.559 216.306 475.51C216.201 475.462 216.111 475.384 216.047 475.287C215.937 475.036 215.888 474.763 215.904 474.49V467.599C215.883 467.357 215.954 467.115 216.103 466.922C216.17 466.846 216.254 466.786 216.348 466.747C216.442 466.708 216.543 466.69 216.645 466.695C216.747 466.693 216.849 466.712 216.944 466.752C217.039 466.792 217.124 466.851 217.194 466.926C217.348 467.111 217.425 467.348 217.409 467.587ZM220.528 469.906C220.537 469.535 220.472 469.167 220.337 468.822C220.227 468.546 220.042 468.306 219.803 468.129C219.584 467.969 219.318 467.884 219.046 467.886C218.834 467.885 218.625 467.93 218.432 468.02C218.24 468.109 218.07 468.241 217.935 468.404C217.606 468.843 217.446 469.386 217.485 469.933C217.452 470.465 217.611 470.992 217.935 471.415C218.068 471.581 218.238 471.715 218.43 471.806C218.623 471.897 218.833 471.943 219.046 471.941C219.31 471.942 219.568 471.861 219.783 471.71C220.025 471.535 220.212 471.297 220.325 471.021C220.472 470.668 220.544 470.288 220.536 469.906H220.528Z" fill="#4F4F4F"/>
<path d="M224.979 470.873V472.204C224.998 472.467 224.917 472.727 224.752 472.933C224.678 473.011 224.588 473.073 224.489 473.114C224.389 473.155 224.282 473.175 224.174 473.172C224.068 473.175 223.962 473.155 223.865 473.113C223.767 473.071 223.68 473.008 223.609 472.929C223.448 472.723 223.37 472.464 223.39 472.204V467.771C223.39 467.054 223.645 466.695 224.162 466.695C224.271 466.685 224.381 466.703 224.482 466.746C224.582 466.79 224.669 466.859 224.736 466.946C224.867 467.171 224.933 467.427 224.927 467.687C225.079 467.409 225.277 467.158 225.513 466.946C225.74 466.772 226.022 466.683 226.309 466.695C226.65 466.697 226.985 466.783 227.285 466.946C227.419 467 227.535 467.091 227.618 467.209C227.702 467.327 227.749 467.467 227.755 467.611C227.757 467.701 227.741 467.79 227.707 467.873C227.672 467.956 227.621 468.031 227.556 468.093C227.441 468.213 227.283 468.281 227.118 468.284C226.974 468.264 226.832 468.228 226.696 468.177C226.506 468.111 226.307 468.075 226.106 468.069C225.899 468.059 225.695 468.124 225.533 468.253C225.368 468.398 225.249 468.587 225.19 468.798C225.099 469.077 225.041 469.366 225.019 469.659C225.011 469.989 224.979 470.395 224.979 470.873Z" fill="#4F4F4F"/>
<path d="M234.138 469.934C234.143 470.381 234.069 470.826 233.919 471.248C233.779 471.633 233.559 471.985 233.274 472.28C232.991 472.57 232.649 472.796 232.27 472.941C231.426 473.249 230.501 473.249 229.657 472.941C229.279 472.79 228.938 472.561 228.655 472.269C228.372 471.976 228.154 471.627 228.016 471.244C227.865 470.824 227.791 470.38 227.797 469.934C227.792 469.483 227.868 469.035 228.02 468.611C228.153 468.228 228.368 467.878 228.651 467.586C228.934 467.295 229.277 467.07 229.657 466.927C230.073 466.77 230.515 466.692 230.96 466.696C231.407 466.69 231.852 466.77 232.27 466.931C232.651 467.076 232.997 467.303 233.281 467.595C233.566 467.887 233.784 468.238 233.919 468.623C234.07 469.044 234.144 469.487 234.138 469.934ZM232.545 469.934C232.577 469.394 232.426 468.859 232.115 468.416C231.98 468.241 231.805 468.101 231.605 468.006C231.404 467.912 231.185 467.867 230.964 467.875C230.671 467.871 230.383 467.955 230.139 468.118C229.891 468.296 229.701 468.544 229.594 468.83C229.336 469.539 229.336 470.316 229.594 471.025C229.702 471.311 229.89 471.56 230.135 471.742C230.38 471.909 230.671 471.995 230.968 471.989C231.193 472.002 231.418 471.96 231.624 471.866C231.829 471.773 232.009 471.63 232.147 471.451C232.446 471.005 232.587 470.47 232.545 469.934Z" fill="#4F4F4F"/>
<path d="M241.269 467.866V472.495C241.278 472.956 241.221 473.416 241.098 473.861C241 474.216 240.814 474.541 240.556 474.805C240.282 475.068 239.947 475.258 239.58 475.358C239.091 475.49 238.585 475.552 238.079 475.541C237.578 475.548 237.08 475.47 236.605 475.31C236.232 475.19 235.891 474.985 235.609 474.713C235.504 474.617 235.419 474.502 235.359 474.374C235.299 474.245 235.265 474.106 235.259 473.964C235.255 473.876 235.272 473.787 235.306 473.705C235.34 473.624 235.392 473.55 235.458 473.49C235.586 473.368 235.758 473.302 235.936 473.307C236.054 473.309 236.171 473.338 236.277 473.391C236.383 473.444 236.476 473.52 236.549 473.614C236.633 473.721 236.724 473.825 236.812 473.932C236.901 474.037 237.004 474.13 237.119 474.207C237.24 474.287 237.375 474.344 237.517 474.374C238.017 474.477 238.536 474.437 239.015 474.259C239.226 474.16 239.395 473.989 239.492 473.777C239.584 473.568 239.638 473.344 239.652 473.116C239.668 472.88 239.68 472.501 239.688 471.981C239.467 472.306 239.178 472.578 238.839 472.777C238.486 472.965 238.091 473.058 237.692 473.048C237.196 473.061 236.709 472.922 236.294 472.65C235.885 472.365 235.565 471.968 235.374 471.507C235.153 470.969 235.045 470.391 235.055 469.81C235.049 469.371 235.115 468.933 235.251 468.516C235.366 468.155 235.556 467.822 235.808 467.54C236.039 467.283 236.323 467.079 236.641 466.942C236.97 466.804 237.323 466.735 237.68 466.739C238.087 466.73 238.49 466.818 238.855 466.998C239.215 467.195 239.529 467.466 239.775 467.795V467.58C239.761 467.347 239.833 467.117 239.978 466.934C240.044 466.86 240.125 466.801 240.216 466.762C240.307 466.723 240.405 466.704 240.504 466.707C240.625 466.692 240.747 466.712 240.857 466.766C240.966 466.82 241.056 466.905 241.118 467.01C241.23 467.281 241.282 467.573 241.269 467.866ZM236.653 469.886C236.616 470.409 236.766 470.928 237.075 471.351C237.208 471.511 237.376 471.639 237.566 471.724C237.755 471.81 237.962 471.851 238.17 471.845C238.435 471.846 238.694 471.773 238.919 471.634C239.168 471.479 239.368 471.256 239.496 470.993C239.652 470.668 239.727 470.31 239.716 469.949C239.747 469.41 239.597 468.876 239.289 468.432C239.157 468.259 238.985 468.119 238.789 468.025C238.592 467.931 238.376 467.885 238.158 467.89C237.948 467.884 237.74 467.928 237.55 468.018C237.36 468.108 237.195 468.241 237.067 468.408C236.767 468.839 236.621 469.358 236.653 469.882V469.886Z" fill="#4F4F4F"/>
<path d="M244.303 470.874V472.204C244.324 472.468 244.241 472.729 244.072 472.933C243.999 473.011 243.91 473.073 243.811 473.114C243.712 473.155 243.606 473.175 243.499 473.172C243.392 473.176 243.285 473.156 243.187 473.114C243.089 473.072 243.001 473.009 242.929 472.929C242.769 472.723 242.69 472.465 242.71 472.204V467.771C242.71 467.054 242.976 466.696 243.507 466.696C243.615 466.686 243.724 466.704 243.824 466.748C243.923 466.792 244.01 466.86 244.076 466.947C244.208 467.171 244.274 467.428 244.267 467.688C244.419 467.408 244.619 467.158 244.857 466.947C245.084 466.77 245.366 466.681 245.653 466.696C245.994 466.697 246.33 466.784 246.629 466.947C246.763 467 246.879 467.092 246.963 467.21C247.046 467.328 247.093 467.468 247.099 467.612C247.101 467.784 247.035 467.95 246.917 468.075C246.8 468.201 246.638 468.276 246.466 468.285C246.322 468.265 246.18 468.229 246.044 468.178C245.853 468.112 245.652 468.076 245.45 468.07C245.243 468.06 245.04 468.125 244.877 468.253C244.713 468.399 244.594 468.588 244.534 468.799C244.443 469.078 244.386 469.367 244.363 469.659C244.319 469.99 244.303 470.396 244.303 470.874Z" fill="#4F4F4F"/>
<path d="M252.102 470.324H248.988C248.984 470.657 249.059 470.986 249.207 471.284C249.331 471.541 249.528 471.757 249.772 471.905C250.006 472.047 250.276 472.12 250.549 472.116C250.727 472.12 250.904 472.097 251.075 472.049C251.237 472.002 251.391 471.933 251.533 471.842C251.673 471.749 251.806 471.646 251.931 471.535C252.055 471.423 252.218 471.276 252.417 471.089C252.518 471.014 252.642 470.977 252.768 470.985C252.913 470.977 253.056 471.025 253.166 471.121C253.218 471.168 253.259 471.227 253.285 471.292C253.311 471.358 253.322 471.429 253.317 471.499C253.305 471.679 253.248 471.853 253.15 472.005C253.015 472.219 252.842 472.406 252.64 472.559C252.38 472.752 252.089 472.9 251.78 472.997C251.394 473.122 250.99 473.181 250.585 473.172C250.148 473.198 249.71 473.135 249.299 472.985C248.888 472.835 248.512 472.601 248.195 472.3C247.901 471.978 247.675 471.601 247.528 471.191C247.382 470.78 247.319 470.345 247.343 469.91C247.339 469.466 247.411 469.024 247.554 468.603C247.682 468.217 247.891 467.863 248.167 467.564C248.444 467.271 248.783 467.045 249.159 466.903C249.578 466.745 250.022 466.666 250.469 466.672C251.027 466.659 251.577 466.796 252.063 467.07C252.486 467.308 252.833 467.662 253.062 468.09C253.278 468.479 253.394 468.915 253.397 469.36C253.422 469.512 253.403 469.669 253.342 469.81C253.28 469.951 253.179 470.072 253.05 470.157C252.751 470.284 252.427 470.342 252.102 470.324ZM248.988 469.42H251.875C251.872 468.976 251.718 468.546 251.437 468.201C251.307 468.068 251.149 467.963 250.976 467.895C250.802 467.826 250.616 467.795 250.43 467.803C250.247 467.795 250.065 467.827 249.896 467.896C249.727 467.964 249.575 468.069 249.45 468.201C249.168 468.547 249.006 468.974 248.988 469.42Z" fill="#4F4F4F"/>
<path d="M259.885 471.089C259.905 471.492 259.792 471.891 259.563 472.225C259.334 472.558 259.002 472.807 258.618 472.933C258.128 473.104 257.611 473.185 257.092 473.172C256.589 473.184 256.087 473.095 255.619 472.909C255.265 472.774 254.953 472.549 254.715 472.256C254.535 472.028 254.433 471.749 254.424 471.459C254.423 471.375 254.439 471.292 254.471 471.215C254.504 471.138 254.551 471.067 254.611 471.009C254.673 470.947 254.747 470.899 254.829 470.867C254.91 470.834 254.997 470.819 255.085 470.822C255.229 470.809 255.372 470.853 255.483 470.945C255.588 471.046 255.675 471.163 255.742 471.292C255.881 471.549 256.083 471.766 256.328 471.925C256.613 472.079 256.936 472.152 257.26 472.136C257.541 472.149 257.819 472.075 258.056 471.925C258.144 471.875 258.218 471.804 258.271 471.719C258.325 471.633 258.356 471.536 258.363 471.435C258.371 471.314 258.345 471.192 258.289 471.084C258.233 470.976 258.148 470.885 258.044 470.822C257.714 470.651 257.362 470.527 256.997 470.455C256.54 470.349 256.093 470.207 255.659 470.029C255.341 469.897 255.057 469.694 254.83 469.436C254.623 469.181 254.514 468.86 254.523 468.532C254.525 468.208 254.625 467.893 254.81 467.627C255.02 467.325 255.311 467.089 255.651 466.946C256.076 466.767 256.535 466.68 256.997 466.691C257.371 466.687 257.745 466.731 258.108 466.823C258.398 466.892 258.676 467.007 258.929 467.165C259.129 467.286 259.3 467.45 259.43 467.643C259.538 467.794 259.599 467.972 259.606 468.157C259.608 468.241 259.592 468.325 259.56 468.402C259.528 468.48 259.48 468.55 259.419 468.607C259.274 468.732 259.087 468.795 258.897 468.782C258.752 468.783 258.611 468.734 258.498 468.643C258.351 468.517 258.218 468.375 258.1 468.221C257.971 468.073 257.814 467.952 257.638 467.866C257.432 467.765 257.203 467.717 256.973 467.727C256.721 467.719 256.473 467.783 256.256 467.91C256.172 467.954 256.101 468.02 256.051 468.101C256.001 468.181 255.972 468.273 255.969 468.368C255.97 468.447 255.99 468.524 256.027 468.593C256.063 468.662 256.116 468.722 256.18 468.767C256.352 468.887 256.543 468.977 256.746 469.029C256.981 469.101 257.308 469.185 257.726 469.288C258.14 469.383 258.541 469.527 258.921 469.718C259.2 469.859 259.443 470.062 259.63 470.312C259.796 470.536 259.886 470.809 259.885 471.089Z" fill="#4F4F4F"/>
<path d="M266.361 471.088C266.381 471.492 266.268 471.891 266.039 472.224C265.811 472.558 265.479 472.806 265.095 472.932C264.605 473.103 264.088 473.184 263.569 473.171C263.065 473.184 262.564 473.095 262.095 472.909C261.742 472.774 261.43 472.549 261.191 472.255C261.01 472.029 260.908 471.749 260.9 471.459C260.9 471.375 260.916 471.292 260.948 471.215C260.98 471.137 261.028 471.067 261.088 471.009C261.15 470.947 261.224 470.898 261.305 470.866C261.387 470.834 261.474 470.819 261.562 470.821C261.705 470.809 261.849 470.853 261.96 470.945C262.065 471.046 262.152 471.163 262.219 471.291C262.358 471.548 262.559 471.766 262.804 471.925C263.09 472.079 263.412 472.152 263.736 472.136C264.017 472.149 264.295 472.075 264.533 471.925C264.613 471.873 264.679 471.803 264.727 471.72C264.774 471.638 264.802 471.546 264.808 471.451C264.815 471.329 264.79 471.208 264.734 471.1C264.678 470.992 264.593 470.901 264.489 470.837C264.159 470.666 263.806 470.543 263.442 470.471C262.985 470.365 262.537 470.222 262.103 470.045C261.785 469.913 261.502 469.71 261.275 469.451C261.068 469.196 260.959 468.876 260.968 468.547C260.97 468.224 261.07 467.908 261.255 467.643C261.465 467.341 261.756 467.104 262.095 466.962C262.521 466.783 262.98 466.696 263.442 466.707C263.816 466.703 264.19 466.747 264.553 466.838C264.843 466.907 265.12 467.023 265.373 467.181C265.573 467.302 265.744 467.465 265.875 467.659C265.983 467.809 266.044 467.988 266.05 468.173C266.053 468.257 266.037 468.34 266.005 468.418C265.973 468.495 265.924 468.565 265.863 468.623C265.719 468.748 265.532 468.811 265.341 468.798C265.197 468.799 265.056 468.749 264.943 468.659C264.796 468.532 264.663 468.391 264.545 468.236C264.429 468.085 264.284 467.958 264.119 467.862C263.912 467.76 263.683 467.712 263.454 467.723C263.202 467.714 262.953 467.778 262.737 467.906C262.653 467.95 262.582 468.016 262.531 468.096C262.481 468.177 262.453 468.269 262.45 468.364C262.451 468.442 262.471 468.519 262.507 468.589C262.544 468.658 262.597 468.717 262.661 468.762C262.832 468.883 263.024 468.972 263.226 469.025C263.461 469.097 263.788 469.18 264.206 469.284C264.621 469.378 265.022 469.523 265.401 469.714C265.68 469.854 265.923 470.057 266.11 470.308C266.276 470.534 266.364 470.808 266.361 471.088Z" fill="#4F4F4F"/>
</g>
<defs>
<filter id="filter0_d" x="0" y="0" width="372" height="602" filterUnits="userSpaceOnUse" color-interpolation-filters="sRGB">
<feFlood flood-opacity="0" result="BackgroundImageFix"/>
<feColorMatrix in="SourceAlpha" type="matrix" values="0 0 0 0 0 0 0 0 0 0 0 0 0 0 0 0 0 0 127 0"/>
<feOffset dx="5" dy="5"/>
<feGaussianBlur stdDeviation="10"/>
<feColorMatrix type="matrix" values="0 0 0 0 0.764706 0 0 0 0 0.764706 0 0 0 0 0.764706 0 0 0 0.25 0"/>
<feBlend mode="normal" in2="BackgroundImageFix" result="effect1_dropShadow"/>
<feBlend mode="normal" in="SourceGraphic" in2="effect1_dropShadow" result="shape"/>
</filter>
</defs>
</svg>
