<svg width="1440" height="255" viewBox="0 0 1440 255" fill="none" xmlns="http://www.w3.org/2000/svg">
<g clip-path="url(#clip0)">
<rect width="1440" height="1095" transform="translate(0 -840)" fill="#AFE2F4"/>
<g clip-path="url(#clip1)">
<path d="M1437.13 23.9263L1537.37 -110.501L1629.2 51.5061L1437.13 23.9263Z" fill="#BCE7F5"/>
<path d="M1437.13 23.9263L1265.93 110.952L1295.19 -70.8529" fill="#BCE7F5"/>
<path d="M1295.19 -70.853L1437.13 23.9262L1537.37 -110.501L1395.42 -205.28L1295.19 -70.853ZM1474.19 -52.016C1466.1 -41.1634 1454.8 -32.8227 1441.7 -28.0489C1428.61 -23.2751 1414.32 -22.2826 1400.63 -25.1968C1386.95 -28.1111 1374.49 -34.8012 1364.83 -44.4212C1355.17 -54.0411 1348.74 -66.1588 1346.36 -79.2416C1343.97 -92.3244 1345.74 -105.785 1351.44 -117.92C1357.14 -130.056 1366.51 -140.322 1378.37 -147.419C1390.23 -154.517 1404.05 -158.128 1418.07 -157.795C1432.09 -157.462 1445.69 -153.2 1457.15 -145.549C1464.76 -140.471 1471.24 -134.024 1476.22 -126.574C1481.2 -119.124 1484.57 -110.819 1486.16 -102.132C1487.74 -93.4445 1487.5 -84.5459 1485.45 -75.9441C1483.41 -67.3423 1479.59 -59.2058 1474.21 -51.9993L1474.19 -52.016Z" fill="#BCE7F5"/>
</g>
<g clip-path="url(#clip2)">
<path d="M311.773 100.437L419.846 -44.5015L521.166 131.711L311.773 100.437Z" fill="#BCE7F5"/>
<path d="M311.773 100.437L126.036 193.498L156.425 -3.29135" fill="#BCE7F5"/>
<path d="M156.425 -3.29126L311.773 100.437L419.846 -44.5012L264.498 -148.229L156.425 -3.29126ZM351.517 18.4152C342.796 30.1164 330.552 39.0724 316.332 44.1505C302.112 49.2285 286.556 50.2006 271.631 46.9438C256.706 43.687 243.082 36.3475 232.483 25.8536C221.883 15.3597 214.784 2.18278 212.084 -12.0108C209.383 -26.2043 211.202 -40.777 217.31 -53.8857C223.418 -66.9944 233.542 -78.0504 246.4 -85.6554C259.258 -93.2605 274.274 -97.0729 289.548 -96.6107C304.822 -96.1485 319.668 -91.4323 332.209 -83.0587C340.539 -77.5016 347.647 -70.4681 353.127 -62.3598C358.607 -54.2516 362.352 -45.2274 364.147 -35.8027C365.943 -26.378 365.754 -16.7374 363.592 -7.43145C361.429 1.87447 357.336 10.6634 351.545 18.4335L351.517 18.4152Z" fill="#BCE7F5"/>
</g>
</g>
<defs>
<clipPath id="clip0">
<rect width="1440" height="1095" fill="white" transform="translate(0 -840)"/>
</clipPath>
<clipPath id="clip1">
<rect width="575.919" height="581.011" fill="white" transform="matrix(0.597766 -0.801671 0.831648 0.555303 1026 18.6978)"/>
</clipPath>
<clipPath id="clip2">
<rect width="620.949" height="635.867" fill="white" transform="matrix(0.597766 -0.801671 0.831648 0.555303 -136 91.7969)"/>
</clipPath>
</defs>
</svg>
