<svg width="93" height="94" viewBox="0 0 93 94" fill="none" xmlns="http://www.w3.org/2000/svg">
<g clip-path="url(#clip0)">
<g clip-path="url(#clip1)">
<path d="M72.5001 41.4952L41.7651 21.1945L77.7289 0.159196L72.5001 41.4952Z" fill="#878787"/>
<path d="M72.4995 41.4941L92.9338 77.384L51.9036 72.6761" fill="#878787"/>
<path d="M21.1689 52.377L51.9039 72.6776L15.9374 93.7112L21.1689 52.377Z" fill="#3A2F2F"/>
<path d="M21.1691 52.3773L0.73477 16.4875L41.765 21.1953" fill="#3A2F2F"/>
<path d="M41.7651 21.1953L21.1692 52.3773L51.9042 72.678L72.5001 41.496L41.7651 21.1953ZM38.4336 59.6588C35.9523 58.0207 34.0196 55.6728 32.88 52.912C31.7403 50.1512 31.445 47.1016 32.0312 44.1488C32.6174 41.196 34.0588 38.4726 36.1732 36.3231C38.2877 34.1737 40.9801 32.6947 43.91 32.0731C46.8399 31.4515 49.8756 31.7154 52.6334 32.8312C55.3911 33.9471 57.7469 35.8649 59.4028 38.342C61.0588 40.8192 61.9405 43.7444 61.9365 46.7478C61.9325 49.7512 61.0429 52.6979 59.3802 55.2151C58.2769 56.8871 56.8597 58.3286 55.2097 59.4571C53.5596 60.5856 51.709 61.3791 49.7635 61.7922C47.8181 62.2054 45.8158 62.2301 43.8712 61.865C41.9265 61.4999 40.0776 60.7521 38.4299 59.6643L38.4336 59.6588Z" fill="#878787"/>
<path d="M72.5001 41.4952L41.7651 21.1945L77.7289 0.159192L72.5001 41.4952Z" fill="#535353"/>
<path d="M72.4995 41.4941L92.9338 77.384L51.9036 72.6761" fill="#535353"/>
<path d="M41.7651 21.1934L21.1692 52.3754L51.9042 72.676L72.5001 41.494L41.7651 21.1934ZM38.4336 59.6569C35.9523 58.0187 34.0196 55.6708 32.88 52.91C31.7403 50.1492 31.445 47.0996 32.0312 44.1468C32.6174 41.194 34.0588 38.4707 36.1732 36.3212C38.2877 34.1717 40.9801 32.6927 43.91 32.0711C46.8399 31.4496 49.8756 31.7134 52.6334 32.8293C55.3911 33.9452 57.7469 35.8629 59.4028 38.3401C61.0588 40.8172 61.9405 43.7425 61.9365 46.7459C61.9324 49.7493 61.0429 52.6959 59.3802 55.2132C58.2769 56.8852 56.8597 58.3266 55.2096 59.4551C53.5596 60.5836 51.709 61.3771 49.7635 61.7903C47.818 62.2034 45.8158 62.2282 43.8712 61.863C41.9265 61.4979 40.0776 60.7501 38.4299 59.6624L38.4336 59.6569Z" fill="#535353"/>
<rect width="26.3346" height="52.6108" transform="matrix(0.978494 -0.206274 0.192038 0.981387 16.0889 26.5488)" fill="#3A2F2F"/>
<ellipse rx="15.2312" ry="15.4541" transform="matrix(0.833032 0.553225 -0.553165 0.833072 47.1277 46.7128)" fill="#B3E3F3"/>
</g>
</g>
<defs>
<clipPath id="clip0">
<rect width="93" height="94" fill="white"/>
</clipPath>
<clipPath id="clip1">
<rect width="126.507" height="127.209" fill="white" transform="translate(29.1094 -41) rotate(33.445)"/>
</clipPath>
</defs>
</svg>
